<?xml version="1.0" encoding="utf-8"?>
<!-- Generator: Adobe Illustrator 19.1.1, SVG Export Plug-In . SVG Version: 6.00 Build 0)  -->
<svg version="1.1" xmlns="http://www.w3.org/2000/svg" xmlns:xlink="http://www.w3.org/1999/xlink" x="0px" y="0px"
	 viewBox="0 0 491 566.9" style="enable-background:new 0 0 491 566.9;" xml:space="preserve">
<style type="text/css">
	.st0{fill:#B5E1E6;}
	.st1{fill:#EFAFAF;}
	.st2{fill:#FFFFFF;}
	.st3{fill:#115657;}
	.st4{fill:#1C9399;}
	.st5{font-family:'NexaBold';}
	.st6{font-size:63.9112px;}
	.st7{font-family:'Helvetica';}
	.st8{font-size:17.6921px;}
</style>
<g id="Background">
	<polygon class="st0" points="245.5,547.6 16.8,415.5 16.8,151.4 245.5,19.4 474.2,151.4 474.2,415.5 	"/>
</g>
<g id="Map">
</g>
<g id="Calque_5">
	<g>
		<path class="st2" d="M422.1,228.6c-0.1-2.1-0.3-4.2-0.1-6.3c0.4-5.4,0.7-10.7,0.9-16.1c0.2-9,0.7-18.1,1.3-27.1
			c0.4-6.5,0.9-13.1,1.4-19.6c0.3-4.3,0.5-8.5,1.2-12.8c0.5-3.3,0.9-6.5,1.4-9.8c0.2-0.9-0.5-0.7-0.9-0.8c-3.2-0.3-6.3-0.6-9.5-0.9
			c-5.7-0.6-11.4-1.2-17.2-1.7c-5.1-0.5-10.3-1-15.4-1.6c-5.1-0.5-10.2-1.1-15.3-1.6c-4.4-0.5-8.8-1-13.2-1.4
			c-1.1-0.1-2.3-0.4-3.4-0.1c0.9,0.3,1.9,0.3,2.8,0.5c-1.4,1.2-2.8,2.4-4.7,2.6c0.4,1.6,0.9,3.1,0.7,4.8c0,0,0,0.1,0.1,0.1
			c0,0.4,0,0.7-0.1,1.1c0,0.9-0.3,1.9,0,2.8c0.8,0.1,0.4,0.6,0.2,0.9c-0.2,1.3-0.3,2.6,0,3.9c0.1,0.3,0,0.7-0.1,1
			c-0.7,2.2-0.7,4.4-0.4,6.6c0.4,2.5,0.8,5,0.3,7.5c0.2,2.4,1.7,4.1,2.9,6c0.4,0.7,1.1,1.2,1.6,1.9c0.1,0.1,0.2,0.1,0.3,0.1
			c0.2,0,0.4,0.1,0.5,0.3l0,0c0.5,0.1,0.8,0.3,0.9,0.9l0,0c0.4,0.2,0.7,0.4,0.7,0.9c0.1,0.1,0.1,0.1,0.2,0.2
			c0.3,0.1,0.4,0.3,0.4,0.6c-0.2,0.9-0.3,1.7-0.5,2.5c-0.5,1.7-0.5,3.3-0.1,5c0.3,1.3,0.5,2.8,0.6,4.2c0.1,2-0.1,4.1,0,6.1
			c0,0.8-0.6,1.4-0.5,2.2c0.1,1.3-0.1,2.4-0.6,3.6c-1.2,2.9-2.1,5.9-3.2,8.9c-0.4,1.1-0.3,2.4-0.8,3.5c0.2,1.6-0.7,3.1-0.2,4.7
			c0.1,0.2-0.1,0.6-0.2,0.7c-0.6,0.8-0.6,1.8-0.7,2.7c-0.1,1-0.1,2-0.4,3.1c-0.2,0.6-0.3,1.3-0.1,2c0.2,0.5,0.2,0.9,0,1.4
			c-0.3,1.2,0.6,2.8,1.8,2.9c1.9,0.2,3.1,1.5,4.3,2.7c0.7,0.7,1.3,1.2,2.2,1.5c0.7,0.3,1.6,0.5,2.1,0.9c1.4,1.1,2.8,2.3,4.2,3.4
			c1.2,0.9,2.1,2.2,3.8,2.3c1.6,0.1,3.2,0.4,4.7-0.1c1.8-0.6,3.7-0.1,5.5-0.7c1.2-0.4,2.5-0.6,3.7-1c0.1,0,0.1-0.1,0.2-0.1
			c0.1-0.2,0.3-0.2,0.6-0.2c0.1-0.1,0.2-0.1,0.3-0.2c0.2-0.3,0.5-0.5,0.8-0.3c0.2-0.1,0.4-0.1,0.6-0.2c1-0.7,2.1-0.6,3.2-0.4
			c0.2-0.1,0.3-0.1,0.5-0.2c0.6-0.2,1.1-0.4,1.7-0.3c0.2-0.1,0.3-0.2,0.5-0.3c0.4-0.5,0.8-0.2,1.3-0.2c0.1,0,0.2,0,0.3,0
			c1.5-0.7,3.3-0.6,4.8-1.2c1.4-0.6,2.9-0.7,4.2-1.2c0.7-0.3,1.5-0.4,2.2-0.4c1.1,0,2.1-0.4,3.2-0.7c0.6-0.1,0.5-0.6,0.2-0.7
			c-0.6-0.2-1.2-0.7-1.9-0.2c-0.4,0.3-0.9,0.6-1.1,0c-0.2-0.5,0-1.1,0.4-1.5c0.2-0.2,0.4,0.1,0.5,0.3c0.4,0.6,0.9,0.6,1.5,0.2
			c0.8-0.5,2.4,0.1,2.8,1c0.1,0.2,0,0.4-0.1,0.5c-0.7,0.6-0.2,0.8,0.3,0.9c1.5,0.2,2.9,0.7,4.4,0.5c0.7-0.1,1.4,0.2,2,0.4
			c1.1,0.4,2.1,0.5,3.2,0.3C422.1,229.6,422.1,229.1,422.1,228.6z"/>
		<path class="st2" d="M343,163.1c-0.5-0.7-0.5-1.5-0.4-2.2c0.1-1.2-0.2-2.2-0.6-3.3c-0.1-0.3-0.2-0.6-0.2-1
			c0.1-1.5-0.5-2.9-0.4-4.4c0-1.2-0.1-2.4,0.1-3.6c0.2-0.7,0-1.4-0.5-1.9c-0.7-0.7-1.4-1.4-2.3-1.8c-1-0.5-2.1-0.9-2.9-1.8
			c-0.7-0.8-1.4-1.7-2.2-2.4c-0.7-0.6-1.1-1.7-1-2.6c0.1-0.8,0.1-1.5,0.1-2.3c-0.1-1.3-0.1-2.7-0.6-3.8c-0.5-1.1-0.8-2.2-1-3.4
			c0-0.1,0-0.3,0-0.4c0.2-0.3,0.1-0.5,0.1-0.8c-0.1-1.4-0.1-2.8,0.4-4.2c0.1-0.3,0-0.6-0.2-0.8c-0.4-0.5-0.5-1.1-0.6-1.6
			c0.2-0.5,0.1-1,0-1.6c0-0.2,0-0.4,0-0.6c0-0.1-0.1-0.3-0.1-0.4c-0.5-1-0.4-2-0.3-3c0-0.6,0-1-0.4-1.4c0.1-0.4,0.2-0.8,0-1.2
			c0.1-0.3,0.1-0.5-0.2-0.7c0-0.1-0.1-0.2-0.1-0.3c0-0.3-0.2-0.6-0.3-0.8c-0.5-1.2-1.5-2.2-1.6-3.5c-0.1-1.2-0.7-1.1-1.5-1.1
			c-0.2,0-0.3,0-0.5,0c-3.7,0.1-7.5,0.2-11.2,0.3c-7.3,0.1-14.7,0.1-22,0.3c-1.2,0-2.5-0.2-3.7,0.2c0,0-0.1,0-0.1,0
			c-0.1,0-0.1,0-0.2,0.1c-0.4-0.3-0.9-0.2-1.4-0.2c-1.6,0-3.2,0-4.8,0c-4.9-0.1-9.8-0.6-14.8,0c-0.4,0-0.9-0.1-1.1,0.4
			c-0.4,0.5-0.6,1.1-0.5,1.8c0.1,0.9-0.2,1.7-0.6,2.5c-0.4,0.8-0.6,1.5-0.8,2.3c-0.2,0.9-0.4,1.8-0.7,2.7c-0.2,0.6-0.6,1.4-0.3,2
			c0.3,0.7,0.1,1.3-0.3,1.8c-0.1,0.2-0.3,0.4-0.3,0.6c0,1.3-0.4,2.4-0.9,3.5c-0.2,0.3-0.3,0.6-0.3,0.9c-0.3,1.5-0.1,3.2-0.7,4.7
			c-0.4,0.3-0.6,0.7-0.8,1.3c-0.4,1.2-0.1,2.4-0.3,3.6c-0.1,0.8-0.9,1.4-0.8,2.2c0,0.5-0.4,0.8-0.6,1.2c-0.4,1-1.1,1.9-0.8,3.1
			c0.2,1.1,0.2,2.1-0.2,3.1c-0.5,1-0.4,2-0.5,3.1c-0.3,3-0.8,6-1.4,8.9c-0.4,0.7,0,1.5,0,2.2c-0.1,0.3-0.2,0.6-0.3,0.9
			c0.2,0.8,0.5,1.6-0.1,2.3c0,0.1,0,0.2,0.1,0.4c-0.2,0.7,0.6,1.5,0,2.2c-0.1,0.1-0.1,0.2-0.2,0.4c0,0.3-0.1,0.5-0.4,0.7
			c0,0.3,0,0.5,0,0.8c-0.1,0.5-0.1,0.9-0.2,1.4c0.2,0.3,0.1,0.5-0.1,0.6c0,0.3-0.1,0.5-0.1,0.8c-0.2,0.2-0.3,0.4-0.3,0.7
			c0.7,0.4,1,0.7,0.2,1.3c-0.3,0.2-0.2,0.7-0.1,1c0.2,0.5,0.1,1-0.3,1.3c0,0.1,0,0.3,0,0.4c1.4,0.7,1.4,0.9,0.3,2.6
			c0,0.2,0,0.5,0,0.7c0.3,1.8,0.4,3.7,1.1,5.5c0.2,0.6-0.1,1.3,0.4,1.9c0,0.1,0.1,0.2,0.1,0.3c0.7,1.3,1.2,2.7,2.1,3.9
			c0.1,0.6,0.3,1.2,0.4,1.7c0.8,1.5,1.3,3.1,2.7,4.1c0.2,0.1,0.4,0.4,0.4,0.6c0,0.7,0.6,1.1,1,1.4c0.4,0.2,0.5,0.6,0.7,0.9
			c0.1,1.2,0.8,2,1.5,2.9c0.7,0.9,1.7,1.7,2.1,2.7c0.8,1.8,2.6,3.1,2.9,5.2c0,0.1,0.2,0.2,0.3,0.3c0.5,0.5,1.6,0.6,1.2,1.8
			c0,0.1,0.1,0.2,0.2,0.3c0.9,0.5,1.5,1.3,2.2,2.1c0.5,0.6,1.1,0.8,1.9,0.6c2-0.4,4-1,6.1-0.7c0.5,0.1,0.9,0,1.2-0.3
			c1.3-0.9,3-0.9,4.4-1.6c2.1-1,3.6-2.6,5.5-3.8c0.7-0.2,1.4-0.4,2.1-0.6c0.1,0,0.2,0,0.2,0c0.2,0.1,0.4,0,0.6-0.2
			c0.2-0.1,0.4-0.2,0.6-0.2c0.2,0.1,0.4,0,0.5-0.2c0.2,0,0.3-0.1,0.5-0.1c0.6-0.1,1.2,0.3,1.7-0.3c0.1,0,0.1-0.1,0.1-0.1
			c1.9-0.2,3.8-0.2,5.6,0.5l0,0c0.8,0.6,1.6,0.2,2.5,0.3c-0.1-0.1-0.2-0.1-0.3-0.1c0.1,0,0.2,0.1,0.3,0.1c0.1,0,0.1,0,0.2,0
			c0.4,0.4,0.9,0.6,1.5,0.6c-0.1-0.2-0.3-0.3-0.4-0.4c0.2,0.1,0.3,0.2,0.4,0.4c0.1,0,0.2,0,0.2,0c0.2,0.1,0.4,0.1,0.6,0.2
			c0.9,0,1.7,0.5,2.6,0.4c1.4,0.8,3,1.2,4.6,1.3c0.1,0,0.3,0.1,0.4,0.1c0.2,0.4,0.5,0.4,0.8,0.4c1.3,0.2,2.6,0.5,3.7,1.2
			c0.7,0.5,1.2,0.3,1.5-0.5c0.2-0.7,0.6-1.3,1.1-1.8c1-1.1,1.8-2.4,3-3.3c0.1-0.1,0.1-0.1,0.2-0.2c0.6-0.3,1.3-0.6,1.7-1.2
			c0.1,0,0.1,0,0.1-0.1c0.9-0.4,1.9-0.4,2.6-1.1l0,0c1.2-0.3,2.2-1.1,3.3-1.7c0.1,0,0.3,0,0.4-0.1c1.6,0.1,3-0.5,4.5-1
			c0.2-0.2,0.3-0.4,0.3-0.6c0.4-0.1,0.8-0.4,0.7-0.9c-0.3-1.1,0-2.1,0-3.1c0-0.1,0.1-0.2,0.1-0.3c0.2-0.2,0.4-0.4,0.2-0.6
			c-0.6-0.6-0.4-1.6-0.9-2.2c0.2-0.7,0.3-1.3-0.2-1.9c-0.2-0.3-0.3-0.8-0.2-1.2c0.1-0.8,0-1.5-0.2-2.2c-0.1-0.4-0.2-0.8,0-1.3
			c0.2-0.5,0.2-1-0.1-1.6c-0.3-0.6-0.3-1.3-0.2-1.9c0.2-1.1,0.6-2.2,0.9-3.3c0.2-0.1,0.2-0.3,0.2-0.5c0-0.1,0.1-0.3,0.1-0.4
			c0.4-0.5,0.1-1.1,0-1.6c0.1-0.6,0.5-1,0.7-1.5c0.9-3,1.5-6.1,1.7-9.3C343.2,164.2,343.3,163.6,343,163.1z M255.9,182.9
			c0,0-0.1-0.1-0.1-0.1c0,0,0,0,0.1-0.1c0,0,0,0.1-0.1,0.1C255.9,182.8,255.9,182.8,255.9,182.9z M255.9,182.6
			C255.9,182.6,255.9,182.6,255.9,182.6C255.9,182.6,255.9,182.6,255.9,182.6z M306.3,205.7c-0.2,0-0.3,0-0.5,0
			C306,205.6,306.2,205.7,306.3,205.7c0.1,0,0.2,0,0.3,0.1C306.5,205.7,306.4,205.7,306.3,205.7z"/>
		<path class="st2" d="M249.2,210.5c-0.1-0.1-0.1-0.3-0.2-0.4c-0.5-0.7-0.6-1.7-1.1-2.3c-1-1.1-1.8-2.5-3.3-3.2
			c-0.8-0.1-1-0.6-0.9-1.3c-1.7-3.5-2.6-4.2-3.1-4c-0.3,0.1-0.5,0.4-0.9,0.3c-0.4-0.1-0.8-0.6-0.7-0.9c0.1-0.3,0.5-0.3,0.7-0.6
			c0.1-0.3,0-0.6,0-0.8c-0.6-1.7-1.6-3.3-2.1-4.9c-0.2-0.7-0.3-1-0.6-1.5c-0.4-0.6-1-1.1-1.7-1.5c-1.3-0.7-1.9-2-2.8-3
			c-1.1-1.2-0.1-3.2-1.3-4.4c0.2-1.4-0.3-2.6-1.3-3.7c-0.3-0.3-0.4-0.7-0.5-1.1c-0.3-1.4,0-2.7,0-4.1c0-0.6,0.2-1.2-0.1-1.8
			c0.1-0.5,0.5-0.9,0.4-1.5c0.1-0.5,0.1-0.9,0.1-1.4c0-0.4,0-0.7,0-1.1c-0.1,0-0.1,0-0.2-0.1c0.1,0,0.1,0.1,0.2,0.1
			c0.1-0.3,0.1-0.6-0.1-0.9c0.2-0.7,0.5-1.4,0.7-2.1c0.1-0.3,0.1-0.6,0.2-0.9c0.4-0.8,0.5-1.7,0.2-2.6c0-0.1-0.1-0.2-0.1-0.4
			c-0.3-0.6-0.7-1.2-1-1.7c0,0-0.1-0.1-0.1-0.1c-0.3-0.3-0.6-0.6-0.8-0.9c0-0.2-0.1-0.4-0.1-0.6c-0.2-0.1-0.3-0.2-0.4-0.3
			c0.1,0.1,0.2,0.2,0.4,0.3c-0.1-0.3-0.3-0.5-0.4-0.8c0,0.1,0,0.1,0,0.1c0,0,0-0.1,0-0.1c0-0.2,0-0.4,0-0.6c0.1-0.4,0.4-0.8,0.3-1.3
			c0.1-0.3,0-0.5-0.1-0.8l0-0.1c0,0,0-0.1,0-0.1c0-0.3-0.1-0.6-0.1-1c0.1-0.5,0.3-1,0.4-1.5l0.1-0.1l0-0.1c0-0.2,0-0.3,0-0.5
			c-0.1-3-0.6-6,0.8-8.9c0-0.1,0.1-0.2,0.1-0.3c0.2-0.1,0.2-0.3,0.2-0.5c0-0.1,0-0.3,0.1-0.4c0.4-0.6,0.5-1.1,0.1-1.8
			c-0.2-0.4-0.3-0.9,0.2-1.3c0,0,0.1,0,0.1-0.1c0.1-0.5,0.2-1.1,0.4-1.6c0.4-0.8,0.2-1.4-0.4-1.9c-0.3-0.2-0.5-0.5-0.4-0.9
			c0.3,0,0.4,0.3,0.6,0.4c0-0.3,0.1-0.7,0.1-1c0-0.3,0.1-0.6,0.3-0.8c0-0.2,0-0.4,0-0.6c-0.2-0.2-0.2-0.3,0.1-0.4
			c0.4-0.9,0.5-1.8,0.7-2.8c0.3-1.5,1-3,0.6-4.6c-0.1-0.2,0-0.5,0.1-0.7c0.4-1.1,0.5-2.3,0.5-3.4c0.3-0.8,0.2-1.5-0.1-2.2
			c-0.2-0.7-0.2-1.3,0-2c0.2-0.5,0.3-0.9,0.3-1.4c0-0.5,0.1-0.9,0.4-1.2c0.3-0.4,0.4-0.9,0.4-1.4c0-0.7-0.1-1.4,0-2.1
			c0-2.3,0-2.3-2.3-2.1c-6.9,0.6-13.8,1.3-20.6,1.8c-8.8,0.8-17.7,1.5-26.5,2.2c-3.5,0.3-6.9,0.5-10.4,0.8
			c-3.8,0.3-7.5,0.5-11.3,0.9c-1.5,0.2-3.4-0.5-4.2,1.6c0,0-0.1,0.1-0.2,0.1c-2.2,0.8-2.8,3-4.2,4.6c-0.5,0.6-0.7,1.4-1.3,1.9
			c-0.1,0.1-0.3,0.3-0.2,0.5c0,1-0.6,1.7-1.2,2.3c-0.2,0.3-0.6,0.5-0.6,0.9c-0.1,0.8-0.4,1.4-1.3,1.4c-0.3,0-0.5,0.3-0.6,0.6
			c0,0.6-0.2,1.1-0.4,1.6c0.5,0.9,0.2,1.9,0,2.8c-0.2,1.5-0.4,3-0.8,4.4c0.1,0.5,0.2,1,0.2,1.4c0.1,1,0.2,1.9,0.3,2.9
			c0.3,0.5,0.6,1,0.4,1.6c0,0.1,0,0.3,0,0.4c0.2,0.2,0.2,0.4,0.1,0.6c0,0.3,0.1,0.4,0.3,0.6c0.6,0.2,0.7,0.7,0.6,1.2
			c-0.1,0.9,0.1,1.6,0.5,2.4c0.6,1,0.8,2.2,1.2,3.2c0.1,0.9,0.5,1.7,0.9,2.5c0,0.4,0.3,0.6,0.5,0.8c0.9,1,1.8,1.9,2.6,2.8l0,0.1
			c0.3,0.1,0.4,0.3,0.2,0.6c0,0.2,0,0.4,0.3,0.6c0.6,0.4,0.9,0.9,0.8,1.7c0.1,0.3,0.1,0.6,0.2,0.9c1.1,0.3,1.5,1.3,2,2.2
			c0.7,1.1,1.3,2.2,2,3.3c0.3,0.5-0.2,0.7-0.3,1c0,0.1,0,0.3,0,0.4c0.6,0.5,0.6,1.1,0.5,1.8c0,0.1,0.1,0.2,0.1,0.3
			c0.1,0.6,0.5,1,0.8,1.4c0.3,0.4,0.8,0.8,0.8,1.4c0,1.9,0.7,3.5,2.1,4.8c0.1,0.2,0.2,0.5,0.2,0.7c0.5,1,1,2,1.5,3.1
			c0,0.1,0.1,0.3,0.1,0.4c0.2,0.7,0.5,1.4,1.1,2c0.3,0.3,0.6,0.7,0.6,1.1c0,1.6,0.3,3,0.8,4.5c0.4,1.4,1,2.8,1.6,4.2
			c0,0.4,0,0.8,0,1.2c0.1,0.2,0.2,0.4,0.3,0.6c0,0.5,0,0.9,0.1,1.4c-0.1,0.3,0.1,0.6,0.3,0.8c0.1,0.5,0,1.1,0.2,1.6
			c0,0.5,0,1.1,0.7,1.3c0.3,0.1,0.4,0.4,0.5,0.7c0.6,1.4,1,2.9,2.1,4c0.3,0.4,0.5,0.8,0.6,1.3c0.3,0.8,0.5,1.6,1.2,2.2
			c0,0.1,0.1,0.1,0.1,0.1c-0.1,0.6,0.4,0.9,0.6,1.3c-0.3,0.4-0.6,0.8-0.4,1.3c0,0.2,0,0.4,0,0.6c0,0.1,0,0.3,0,0.4
			c-0.1,0.2-0.1,0.4-0.1,0.6c-0.2,0.4-0.7,0.9,0.1,1.2c0.4,0.3,0.8,0.6,1.2,0.8c0,0.1,0,0.1,0.1,0.2c0.2,0.4,0.6,0.5,1,0.6
			c0,0,0.1,0.1,0.2,0.1c1.9,0.1,3.4-0.8,5.1-1.4c0.1,0,0.3,0,0.4,0c1.5,0.2,3,0.3,4.5,0.2c1.6-0.2,3.2-0.6,4.8,0.1
			c0.3,0.2,0.7,0.1,1.1,0.2c1.5,0.4,3.1,0.1,4.5,0.4c1.6,0.4,3.2,0.3,4.9,0.1c0.3,0,0.7-0.1,1,0.1c0.8,0.5,1.6,0.5,2.5,0.4
			c0.6-0.1,1.1,0,1.7,0.1c1.6,0.3,3.1,0.7,4.8,0.3c0.6-0.1,0.9-0.2,1.4,0c1,0.2,1.8,1.1,1.9,1c0.1-0.1-0.1-0.3-0.1-0.5
			c0.1-0.1,0.2-0.2,0.4-0.2c0.4-0.1,0.9-0.1,1.3,0.1c1.1,0.6,2.3,0.6,3.5,0.6c0.7,0,1.4,0,2.2,0.1c1,0.1,1.9,0.7,2.9,0.6
			c0.3,0.1,0.5,0.2,0.8,0.3c0.3,0.5,0.9,0.5,1.4,0.7l0,0c0.8,0.6,1.7,0.5,2.7,0.5c0.2,0.4,0.5,0.6,1,0.5c0.9-0.1,1.9-0.2,2.8,0
			c2.3,0.3,4.5,0.8,6.8,0.4c0.7-0.1,1.4-0.3,2.1,0c0.9,0.5,1.7-0.4,2.6,0c0.1,0,0.3-0.2,0.3-0.3c0.6-1.5,1.5-3,1.5-4.7
			C250,212.4,250.5,211.2,249.2,210.5z M228.7,142.1c0-0.1,0-0.1,0.1-0.2C228.8,142,228.8,142.1,228.7,142.1z M232.1,119.2
			L232.1,119.2L232.1,119.2L232.1,119.2z"/>
		<path class="st2" d="M233,347c-0.5-0.1-0.8-0.5-1.1-0.9c-0.5-0.7-1.2-1.2-1.7-1.9c-0.6-0.9-1.8-1.3-2.2-2.4
			c-0.4-1.1-1.1-1.7-2-2.1c-0.2-0.1-0.5-0.3-0.6-0.5c-0.2-0.8-0.9-1.3-1.1-1.9c-0.2-0.6-1-0.7-1-1.4c0-1.8-1.4-2.9-2.6-3.7
			c-1.4-1-2.5-2.2-3.7-3.3c-2.1-1.9-3.2-4.8-5.7-6.3c0,0,0-0.1-0.1-0.1c-1.1-1.2-2.1-2.5-2.9-4c-0.3-0.6-0.6-1.2-0.9-1.9
			c-1.1-2.2-3.7-3.3-4.3-5.9c0-0.1-0.2-0.2-0.2-0.3c-0.4-0.8-1.3-1-1.8-1.7c-1.2-1.9-2.1-4-2.4-6.3c-0.1-0.8,0.2-1.3,0.4-1.9
			c0.3-1.2,0.6-2.6,1.3-3.6c0.7-1,1.2-2.1,2-3.1c0.4-0.6,1.1-1,1.1-1.7c0-0.6,0.4-1,0.9-1.3c1.1-0.7,1.9-1.7,2.7-2.8
			c0.6-0.9,1.5-1.7,2.4-2.1c2-0.9,3.8-2.2,5.5-3.6c0.2-0.2,0.4-0.4,0.4-0.7c0.1-1.4,0.9-2.3,1.8-3.3c0.6-0.7,1.4-1.4,1.9-2.2
			c0.6-1.1,1.3-2.2,2.3-3c1.7-1.2,3.2-2.6,4.7-4c0.3-0.3,0.7-0.6,0.4-1c-0.5-0.7-0.1-1.2,0.3-1.8c0.6-1,0.3-2.4-0.5-2.9
			c-1-0.6-2.2-0.9-3.3-1.1c-0.3,0-0.5,0.1-0.8,0.1c-0.4,0.1-0.6,0-0.8-0.4c0-0.1,0-0.1-0.1-0.1c-0.7-1-1.7-1-2.7-0.8
			c-0.3,0.1-0.7,0.2-0.9-0.1c-0.4-0.6-0.9-0.4-1.4-0.4c-1,0.1-2,0.1-2.7-0.9c-0.1-0.3-0.3-0.4-0.6-0.3c-0.2-0.3-0.5-0.1-0.8-0.1
			c-1,0-2,0.1-2.9-0.1c-1.4-0.3-2.7-0.9-4.1-1.2c-0.8-0.2-1.8-0.3-2.4-0.9c-1.4-1.2-3.3-1.4-4.7-2.4c-0.1-0.1-0.3,0-0.5,0
			c-1.6,0.3-3.2-0.3-4.7-0.7c-1.1-0.2-2.2-0.4-3.3-0.3c-2.1,0.2-4.1-0.3-5.9-1.4c-0.5-0.3-1-0.6-1.6-0.6c-0.5,0-1-0.2-1.5-0.5
			c-1-0.5-2-1.1-3-1c-1.4,0.1-2.7,0.4-4.1,0.1c-0.5-0.1-1.1,0-1.6-0.3c-0.6-0.3-1.3-0.4-2-0.3c-0.7,0.1-1.4,0.1-2-0.5
			c-0.3-0.4-0.9-0.4-1.3-0.3c-0.8,0.2-1.6,0.2-2.3-0.1c-0.7-0.2-1.3-0.2-2,0.1c-0.4,0.2-1,0.4-1.3,0.2c-1.7-1.1-3.1,0.1-4.7,0.4
			c-0.2,0-0.3,0.2-0.5,0.4c-1.7,1.5-3.1,3.3-5.5,3.7c-0.1,0-0.2,0.1-0.2,0.2c-0.7,1-1.6,1.8-2.1,3c-1,2.2-3,3.3-5,4.3
			c-1.9,1-4.1,0.5-6.1,1.7c-1.2,0.7-2.9,1-4.5,0.7c-0.2,0-0.4,0.1-0.7,0.1c-1.6,0.3-2.9,1.2-4.5,1.4c-1.4,0.1-2.8,0.8-4.3,0.6
			c-0.8-0.1-1.5-0.2-2.3-0.3c-2.5-0.1-5.1-0.2-7.6-0.1c-0.6,0-1.2,0-1.8-0.2c-1.8-0.8-3.7-0.7-5.6-1.1c-1.8-0.4-3.8-0.4-5.6-0.6
			c-0.5-0.1-1-0.2-1.4-0.4c-0.7-0.2-1.4-0.4-2.1-0.3c-1.3,0.2-2.5,0.4-3.8,0.5c-0.3,0-0.6,0.1-0.9-0.1c-0.9-0.4-1.8-0.5-2.7-0.3
			c-1.8,0.3-3.5,0.3-5.3,0.1c-0.8-0.1-1,0.2-1,0.9c0.3,3.7-0.1,7.3,0,11c0,4.3-0.1,8.7-0.1,13c-0.1,6.7,0.2,13.3,0.1,20
			c-0.1,5.5-0.3,11-0.6,16.5c-0.3,5.5-0.5,11-1.2,16.5c-0.1,0.9-0.1,1.7-0.2,2.6c0,0.5,0,1,0.7,1c1.3,0,2.5,0.1,3.8,0.1
			c10.7,0.2,21.4,0.4,32.1,0.7c5.6,0.1,11.3,0.2,16.9,0.4c3.4,0.1,6.7,0.1,10.1,0.2c6,0.2,12,0.4,18,0.5c6.1,0.1,12.1,0.4,18.1,0.7
			c8.8,0.5,17.6,0.9,26.4,1.4c3.8,0.2,7.5,0.4,11.3,0.5c3.9,0.1,7.7,0.4,11.6-0.1c1.2-0.1,2.4-0.5,3.7-0.8c0.3-0.1,0.6-0.2,0.6-0.6
			C233.6,347,233.2,347.1,233,347z"/>
		<path class="st2" d="M349,318.1c0-0.4-0.1-0.9-0.4-1.2c-0.2-0.3-0.4-0.6-0.4-0.9c0-1.9-1.4-2.8-2.6-3.5c-2.7-1.5-4.7-3.7-7-5.6
			c-1.3-1-1.8-2.7-3.1-3.7c-1.5-1.2-2.4-2.9-3.6-4.3c-1.7-2-3.8-3.6-5.1-5.9c-0.6-1.1-1.2-2.1-0.3-3.4c0.6-0.8,1.4-1.3,1.9-2.1
			c1-1.9,2.4-3.5,3.1-5.5c0.2-0.4,0.4-0.9,0.8-1.1c0.8-0.4,1.5-1,2-1.7c1.5-1.8,2.9-3.7,3.3-6.1c0.1-1,0.5-2,1.1-2.8
			c0.3-0.3,0.4-0.5,0-0.9c-1.8-1.8-3.6-3.7-5.4-5.5c-0.9-1-2.2-1.7-2.8-3.1c-0.4-0.9-0.9-1.7-1.9-2.1c-0.2-0.1-0.4-0.4-0.5-0.6
			c-0.8-2.1-1.7-4.1-3-6c-0.6-0.9-1-2-1.6-3c-0.7-1.3-1-2.8-2.3-3.8c0,0,0,0,0,0c-0.2-0.3-0.4-0.7-0.8-0.8c-0.1-0.3-0.4-0.4-0.6-0.5
			c-0.1-0.3-0.2-0.6-0.6-0.6c-0.2-0.3-0.5-0.2-0.7-0.3c-0.5-0.5-1.1-0.4-1.7-0.4c-0.2,0-0.5,0-0.7,0c-0.5-0.6-1.1-0.3-1.7-0.3
			c-1.9-0.1-3.6-0.9-5.5-0.8c-0.7,0-1.7,0-2.4-0.5c-1.2-0.8-2.6-1.3-3.8-1.3c-1.7-0.1-3.3-0.5-4.9-0.8c-0.9-0.2-1.8,0.2-2.6-0.2
			c-1.3-0.7-2.7-0.9-4.1-1.1c-1.6-0.2-3.2-0.3-4.7,0c-2.5,0.5-5,0.8-7.4,1.7c-1,0.4-2.1,0.4-3.1,1.1c-0.7,0.5-1.7,0-2.4,0.6
			c0,0-0.1,0-0.2-0.1c-0.8-0.5-1.6-0.3-1.9,0.5c-0.3,0.6-0.6,0.9-1.2,1.1c-0.6,0.2-1.2,0.4-1.8,0.7c-1,0.6-2,1.1-3,1.4
			c-0.8,0.3-1.5,0.6-2.1,1.2c-0.9,0.8-2,1.5-3.2,1.9c-0.7,0.2-1,0.4-1,1.1c-0.1,1.1-0.1,2.2-0.9,3.2c-0.4,0.5-0.8,1.5-0.7,2
			c0.3,1,0,1.7-0.3,2.6c-0.6,1.8-2,3.2-2.4,5.1c-0.2,1-1.3,1.1-1.6,1.8c-0.4,1.2-1.2,1.9-2.4,2.4c-0.3,0.1-0.5,0.5-0.6,0.8
			c-0.2,0.5-0.6,0.9-1,1.2c-1.4,1-2.7,1.9-3.6,3.4c-1,1.7-2.3,3.3-3.7,4.8c0,0.2,0,0.5-0.1,0.7c0-0.2,0-0.5,0.1-0.7
			c-0.6,0.5-0.9,1.4-1.6,1.9c-1.3,0.8-1.9,2.3-3.3,2.9c0,0-0.1,0.1-0.1,0.2c-0.5,1.2-1.3,2.3-1.6,3.6c0.2,0.9,0.9,1.7,0.3,2.7
			c-0.6,0.8-0.9,0.9-1.4,0c-0.4,0.6-0.6,1.3-0.6,2c0.3,2.6,0.7,5.2,1,7.9c0.3,0.2,0.3,0.4,0.3,0.7c0.1,0.1,0.1,0.2,0.2,0.3
			c0.7,0.4,1.1,1.1,1.3,1.8c0.4,1.7,1.6,2.5,3,3.2c1.1,0.5,2.1,1.2,2.3,2.5c0.1,0.8,0.9,0.9,1.5,1.2c0.8,0.4,1.3,0.9,1.7,1.6
			c0.6,1,1.6,1.7,2.3,2.7c0.3,0.4,0.6,0.9,1.1,1.1c0.3,0.2,0.5,0.5,0.3,0.8c0,0.2,0.1,0.3,0.2,0.4c0.3,0.8,0.6,1.5,1.6,1.5l0,0.1
			c-0.1,0.4,0.2,0.8,0.5,0.9c1,0.4,1.6,1.2,2.5,1.9c1.4,1.1,3.1,1.8,4.1,3.4c0,0.1,0.2,0.1,0.3,0.1c0.1,0.2,0.3,0.3,0.4,0.5
			c0.1,0.2,0,0.5,0.3,0.6c0.5,0.8,0.6,2,1.7,2.4c0.8,0.3,1.2,1.2,2.1,1.1l0,0c0.1,0.3,0.2,0.6,0.2,0.8l0,0c0.2,0.8,0.9,1.4,1.4,1.6
			c1.6,0.6,2.5,1.9,3.4,3.2c0,0.1,0,0.1,0.1,0.1c0.8,1,2.2,1.6,2.4,3.1c0,0.2,0.3,0.3,0.5,0.4c0,0.1,0,0.1,0.1,0.1
			c0.3,0.7,0.8,1.1,1.4,1.4l0,0c0.2,0.5,0.5,0.5,1,0.4c2.2-0.2,4.4-0.4,6.5-0.5c9.5-0.6,19-1.1,28.4-1.3c5.6-0.1,11.2-0.4,16.9-0.5
			c4.8-0.1,9.6-0.2,14.4-0.3c3-0.1,6-0.1,8.9-0.1c0.5,0,0.8-0.1,0.6-0.6c-0.5-1.6-0.2-3.2,0.2-4.7c0.4-1.9,0.3-3.9,0.5-5.8
			C349.2,321.6,348.8,319.9,349,318.1z"/>
		<path class="st2" d="M424.6,239.7c-0.7,0.1-1.5-0.1-2-0.6c-0.4-0.3-0.9-0.4-1.4-0.5c-2.2,0-4.4-0.5-6.6-0.9
			c-0.7-0.1-1.4-0.2-2.1,0.2c-0.4,0.2-1,0.3-1.5,0.2c-1,0-1.9,0.1-2.8,0.6c-0.8,0.1-1.5,0.2-2.2,0.6c-0.3,0.1-0.5,0.2-0.8,0.3
			c-1.3-0.1-2.5,0.5-3.8,0.6c-0.6,0.1-1.3,0-1.8,0.6c-0.2,0-0.4,0-0.6,0l0,0c-0.2,0-0.3,0-0.5,0c-1.8,0.3-3.7,0.6-5.5,1
			c-1.2,0.3-2.5,0.6-3.6,1.1c-0.7,0.3-1.4,0.4-2.1,0.6c-1.7,0.4-3.5,0.5-5.3,0.9c-2.4,0.6-4.8,0.2-7.2,0c-1.7-0.1-3.3-0.2-5-0.5
			c-0.9-0.2-1.8-0.2-2.7-0.4c-2-0.6-3.9-1.4-5.9-1.7c-1.2-0.2-2.3-0.4-3.3-1.1c-0.2-0.1-0.4-0.1-0.6-0.1c-2.4-0.3-4.9-0.3-7.3,0
			c-1.4,0.2-2.7,1.2-3.1,2.6c0,0.2-0.1,0.4,0.1,0.5c0.2,0.1,0.3,0,0.4-0.1c0.5-0.5,1-0.3,1.6-0.1c1,0.4,2.1,0.8,3.2,1.1
			c1.3,0.3,3,1.7,3.1,3c0.2,2.2,0.9,4.3,1.9,6.2c0.3,0.6,0.6,1.3,0.7,2.1c0.1,1.3,0.5,2.6,1.1,3.8c0.4,0.7,1,1.2,1.1,2.1
			c0,0.5,0.1,1,0.9,1.1c0.3,0,0.6,0.4,0.7,0.8c0.1,0.4,0.3,0.7,0.7,0.8c0.6,0.9,1.2,1.7,1.7,2.6c0.8,1.3,2.1,2.2,2.9,3.6
			c0.2,0.4,0.4,0.7,0.2,1.1c-0.6,1.4-0.9,2.9-1.4,4.2c-0.7,1.8-1.9,3.5-3.8,4.6c-1,0.6-2.1,1.2-2.5,2.4c-0.6,1.5-1.6,2.6-2.3,4
			c-0.3,0.6-0.7,1.4-1.3,1.7c-1.2,0.6-1.6,1.8-2.3,2.8c-0.5,0.7-0.3,2.1,0.6,3c0.2,0.2,0.3,0.5,0.5,0.7c-0.1,0.8,0.6,1.2,1,1.7
			c0.3,0.3,0.7,0.6,0.9,1c0.5,1.4,1.6,2.3,2.6,3.2l0.1,0c0.1,0.3,0.1,0.7,0.4,0.9c0.1,0.2,0.1,0.3,0.2,0.5c0,0.3-0.1,0.5,0.2,0.6
			c0,0,0,0,0,0c0.5,1.4,1.4,2.4,2.7,3l0,0c0.1,0.8,0.4,1.5,1.1,1.9c-0.2-0.4-0.3-0.9-0.6-1.3c-0.1-0.2-0.2-0.3-0.3-0.4
			c0.1,0.1,0.2,0.3,0.3,0.4c0.2,0.4,0.4,0.9,0.6,1.3c0,0.1,0.1,0.2,0.1,0.3c0.1,0.1,0.3,0.1,0.4,0.2c-0.1-0.1-0.3-0.2-0.4-0.2
			c-0.1,0.5,0.3,0.5,0.6,0.7c0,0.1,0.1,0.2,0.1,0.3c0.3,1.2,1.5,1.7,2,2.7c0.2,0.4,0.5,1.1,1.2,1.2l0,0c0.6,0.5,1.1,1.2,1.9,1.5l0,0
			c0,0.7,0.7,1,1.1,1.3c0.9,0.6,1.4,1.5,1.6,2.6c0.1,0.8,0.4,1.6,0.8,2.3c0,0.1,0,0.2,0,0.4c-0.2,0.2-0.2,0.5-0.1,0.8
			c-0.4,2,0.1,4.1-0.5,6.2c-0.4,1.7-0.5,3.5-0.9,5.2c-0.2,0.1-0.2,0.3-0.2,0.5l0,0c-0.2,0.7-0.2,1.5-0.2,2.3c0,0.5,0.2,1.2,1,1.2
			c5.6,0.1,11.1,0.2,16.7,0.4c6.8,0.2,13.5,0.7,20.3,1c2,0.1,4.1,0.4,6.1,0.3c0.5,0,0.9-0.1,0.9-0.7c0.1-1.2,0.2-2.4,0.2-3.6
			c0.4-5.4,0.9-10.8,1.3-16.2c0-0.3,0.1-0.5,0.1-0.8c0.2-2.4,0.4-4.8,0.6-7.2c0-0.1,0-0.3,0-0.4v0c0.4-4.1,0.7-8.2,1.1-12.4
			c0.3-4,0.7-7.9,1-11.9c0-0.2,0-0.4,0.1-0.6c0.2-1.5,0.3-3,0.5-4.5c0.6-6,1.1-12.1,1.9-18.1c0.4-3.3,1-6.5,1.1-9.8
			c0-0.2,0-0.4,0.1-0.6c0.3-0.7,0.2-1.5,0.3-2.3c0.3-3.2,0.9-6.4,1.1-9.6C425.7,240,425.5,239.6,424.6,239.7z"/>
		<path class="st2" d="M161.1,226.4c-1-0.1-1.2-1.4-2.1-1.6c-0.2,0-0.1-0.3-0.1-0.5c0.3-1.8,0.5-3.5-0.2-5.2c-0.4-0.9-0.7-2-1.3-2.8
			c-1-1.5-1.8-3.1-2.5-4.7c-0.5-1.2-0.7-2.5-1.6-3.5c-0.4-0.5-0.5-1.2-0.5-1.9c-0.1-1.8-0.1-3.7-0.9-5.4c-0.2-0.5-0.3-1,0-1.5
			c0.2-0.3,0.2-0.7,0-1c-0.3-0.4-0.3-0.8-0.4-1.2c-0.4-0.9-0.1-2-1-2.7c-1.1-0.8-1.6-2-2-3.3c-0.2-0.7-0.5-1.3-0.9-1.9
			c-0.5-0.7-1-1.5-0.8-2.5c0.1-0.9,0-1.8-0.6-2.6c-0.3-0.4-0.6-0.9-0.6-1.3c0.2-1.1-0.5-1.7-1.1-2.4c-0.2-0.2-0.4-0.3-0.4-0.5
			c-0.3-1.2-1.1-2.2-0.9-3.5c0-0.1-0.1-0.4-0.2-0.4c-0.8-0.2-1.1-1-1.6-1.5c-1-1-2-2-2.5-3.3c-0.5-1.2-1.3-2.3-2-3.4
			c-0.6-0.9-0.9-1.9-1.7-2.6c-1.1-0.9-1.5-2-2.1-3.1c-0.2-0.4-0.2-0.8-0.4-1.2c-0.5-1.1-1.1-2.2-1.4-3.4c-0.2-1-0.4-2-0.8-2.9
			c-1-2.2-1.3-4.7-1.2-7c0-2.3,0.4-4.7,0.3-7c0-0.8,0.1-1.7,1.2-1.9c0.5-0.1,0.9-0.4,0.9-0.8c0.3-1.2,1.1-1.9,1.8-2.6
			c0.3-0.3,0.6-0.8,0.7-1.2c0.2-1.3,0.9-2.4,1.6-3.3c0.8-1,1.5-2,2-3.2c0.7-0.5,1.8-0.4,2-1.6c0-0.2,0-0.3-0.1-0.5
			c-0.4,0.1-0.7,0.2-1.1,0.1c0.4,0.1,0.7,0,1.1-0.1c-0.5-0.4-1-0.1-1.5,0c-0.3,0-0.5,0-0.8,0c-0.2-0.2-0.4-0.2-0.6,0
			c-0.1,0-0.2,0-0.3,0c-0.6-0.3-1.2-0.1-1.9-0.1c-2.8,0.2-5.5,0.5-8.3,0.8c-6.8,0.7-13.6,1.4-20.4,2c-5,0.5-9.9,0.9-14.9,1.4
			c-4.4,0.4-8.8,0.8-13.1,1.2c-0.3,0-0.8-0.1-0.8,0.5c0.5,0.4,0.6,0.8,0.7,1.4c-0.1-0.5-0.2-1-0.7-1.4c0,1.4,0.2,2.8,0.3,4.3
			c0.4,5.4,1,10.8,1.6,16.2c0.6,6.1,1.2,12.2,2,18.3c0.3,2.4,0.4,4.8,0.6,7.1c0.2,1.8,0.2,3.6,0.8,5.3c0,0.1,0,0.1,0,0.2
			c0.1,1.6,0.1,3.3,0.6,4.9c-0.3,0.1-0.2,0.4-0.2,0.6c0.6,5.8,1.1,11.5,1.8,17.3c1.2,9.3,1.8,18.7,3.2,28.1c0,2.1-0.1,4.1,0.1,6.2
			c0,0.2-0.1,0.4-0.1,0.6c0.2,2.3,0.4,4.5,0.6,6.8c0.2,2.3,0.2,2.3,2.4,2c1.6-0.2,3.3-0.4,4.9-0.7c0.9-0.2,1.7,0.3,2.6,0.1
			c2.2-0.3,4.5-0.5,6.8-0.2c0.8,0.1,1.5-0.1,2.2-0.5l0,0c0.2,0,0.5,0,0.7,0c2-0.2,3.9-0.4,5.9,0c1.1,0.2,2.2,0.3,3.2,0.2
			c1.4-0.1,2.9-0.5,4.3-0.5c1.5,0,2.9-0.5,4.4-0.4c1.6,0.1,3.2,0,4.7-0.5c2.4-0.8,4.7-1.5,7-2.5c1.7-0.7,3.6-0.7,5-2
			c0,0,0.1,0,0.2-0.1c1.7-0.8,3.5-1.3,5.1-2.2c1.9-1,3.5-2.2,4.8-4c0-0.3,0.2-0.6,0.5-0.7c0-0.1,0.1-0.2,0.1-0.4
			c-0.3-0.2-0.9-0.3-0.7-0.8c0.2-0.7,0.9-0.3,1.4-0.3c0.4-1.4,1.2-2.5,2.3-3.4c0.8-0.8,2.2-0.8,2.8-1.9c0.7-0.1,1.1-0.8,1.7-0.9
			c0.2,0,0.5-0.1,0.5-0.4C161.7,226.5,161.3,226.5,161.1,226.4z M80.1,153L80.1,153C80.1,153,80.1,153,80.1,153
			c0.2-1.1,0.1-2.2,0-3.2C80.2,150.8,80.3,151.9,80.1,153z M78.2,132.9c0-0.2,0-0.3-0.1-0.5C78.2,132.6,78.2,132.8,78.2,132.9z"/>
	</g>
	<g>
		<g>
			<path class="st4" d="M388.9,211.4c-0.3,3.2-3.1,5.6-6.3,5.4s-5.6-3.1-5.3-6.3c0.3-3.2,3.1-5.6,6.3-5.4
				C386.8,205.4,389.2,208.2,388.9,211.4z"/>
			<ellipse class="st4" cx="289.9" cy="160.5" rx="5.8" ry="5.9"/>
			
				<ellipse transform="matrix(0.9959 -9.070457e-002 9.070457e-002 0.9959 -10.5121 19.4322)" class="st4" cx="208.5" cy="125.4" rx="5.8" ry="5.9"/>
			
				<ellipse transform="matrix(0.9959 -9.070457e-002 9.070457e-002 0.9959 -16.7384 18.2825)" class="st4" cx="192.8" cy="193.3" rx="5.8" ry="5.9"/>
			<path class="st4" d="M108.3,198.6c0.3,3.2-2,6.1-5.2,6.4c-3.2,0.3-6.1-2-6.4-5.3c-0.3-3.2,2-6.1,5.2-6.4
				C105.1,193,107.9,195.4,108.3,198.6z"/>
			<path class="st4" d="M131.1,298.7c-0.1,3.2-2.9,5.7-6.1,5.6c-3.2-0.1-5.7-2.9-5.6-6.1s2.9-5.7,6.1-5.6S131.3,295.5,131.1,298.7z"
				/>
			<ellipse class="st4" cx="287.4" cy="285.2" rx="5.8" ry="5.9"/>
			<path class="st4" d="M391.5,281.7c-0.2,3.2-3,5.7-6.2,5.5c-3.2-0.2-5.6-3-5.4-6.2s3-5.7,6.2-5.5
				C389.3,275.7,391.7,278.4,391.5,281.7z"/>
			<g>
				<path class="st4" d="M426.1,150.8l-13.6,4.8l-0.5,0.2L382,210.4l-0.9,24.8c0.1,0,0.3-0.1,0.4-0.1c0.8-0.3,1.6-0.4,2.4-0.6
					l0.9-23.3l29.1-53.1l12-4.3C425.9,152.8,426,151.8,426.1,150.8z"/>
				<path class="st4" d="M380.5,236.1l0.9-25.8l0.1-0.1l30-54.8l15.3-5.5l-0.1,1c-0.1,1-0.2,2-0.3,3.1l0,0.4l-12.1,4.3l-28.9,52.7
					l-0.9,23.7l-0.9,0.2c-0.7,0.2-1.3,0.3-1.9,0.5c-0.2,0.1-0.3,0.1-0.5,0.1L380.5,236.1z M382.7,210.6l-0.9,23.8
					c0.5-0.1,1-0.3,1.5-0.4l0.8-23l0.1-0.1l29.2-53.3l11.8-4.2c0-0.5,0.1-1.1,0.1-1.6l-13,4.6L382.7,210.6z"/>
			</g>
			<g>
				<path class="st4" d="M291.2,160.4l-0.1-0.7l-31.9-22.1c-0.1,0.2-0.3,0.4-0.4,0.7c-0.3,0.6-0.6,1.2-0.8,1.9l30.5,21.1l4.4,45.7
					c0.7-0.2,1.3-0.4,2-0.6c0.1,0,0.2,0,0.2,0c0.2,0.1,0.4,0,0.5-0.1L291.2,160.4z"/>
				<path class="st4" d="M292.3,207.8l-4.4-46.1l-30.6-21.2l0.1-0.4c0.1-0.5,0.4-1,0.6-1.5c0.1-0.2,0.2-0.3,0.2-0.5
					c0.1-0.2,0.2-0.3,0.3-0.5c0.1-0.1,0.1-0.2,0.1-0.2l0.3-0.6l32.7,22.7l4.5,47.2l-0.3,0.2c-0.3,0.3-0.7,0.4-1,0.3h0L292.3,207.8z
					 M258.7,139.9l30.3,21l4.3,45.2l1.5-0.4l-4.4-45.6l-31.1-21.5c0,0,0,0,0,0c-0.1,0.2-0.2,0.3-0.2,0.5
					C259,139.4,258.9,139.6,258.7,139.9z"/>
			</g>
			<g>
				<path class="st4" d="M207.6,123l-15.4,69.8l-11,20.9c1.1-0.3,2.1-0.8,3.2-1.3c0.1,0,0.3,0,0.4,0c0.1,0,0.1,0,0.2,0l9.7-18.5
					l0.1-0.2l2-9.1c0,0,0,0,0,0c0,0,0,0,0,0l12.7-57.4l20.8,11.7c0-0.2-0.1-0.4-0.2-0.6c-0.2-0.4-0.3-0.9,0.2-1.3c0,0,0.1,0,0.1-0.1
					c0.1-0.4,0.1-0.7,0.2-1.1L207.6,123z M196.2,184.4c0.1-0.1,0.1-0.2,0.1-0.3l0,0C196.3,184.3,196.2,184.3,196.2,184.4z"/>
				<path class="st4" d="M180,214.7l11.6-22.1l15.6-70.6l24.1,13.6l-0.1,0.5c0,0.2-0.1,0.3-0.1,0.5c0,0.2-0.1,0.4-0.1,0.5l-0.1,0.4
					l-0.2,0.1c-0.1,0.1-0.1,0.2,0,0.5c0.2,0.3,0.3,0.6,0.3,0.8l0.2,1.3l-21.1-12l-14.5,65.8l-0.1,0.2l-9.9,18.8l-0.7,0l-0.1,0
					c-0.2,0.1-0.5,0.2-0.7,0.3c-0.8,0.3-1.6,0.7-2.5,0.9L180,214.7z M208,124l-15.3,69.1l-10.2,19.4c0.3-0.1,0.5-0.2,0.8-0.3
					c0.3-0.1,0.6-0.2,0.9-0.4l0.5-0.1l9.6-18.2l2-9.1l-0.2-0.3l0.3,0l12.8-57.8l20.2,11.4c0-0.4,0.2-0.7,0.5-1c0-0.1,0-0.2,0.1-0.3
					c0,0,0-0.1,0-0.1L208,124z"/>
			</g>
			<g>
				<path class="st4" d="M103.7,198.4l-0.1-0.2L82,176.8c0,0,0,0.1,0,0.1c0.2,1.4,0.2,2.9,0.5,4.3l18.8,18.6l20.9,47.4
					c1-0.1,1.9-0.3,2.9-0.3L103.7,198.4z"/>
				<path class="st4" d="M121.7,247.9l-0.2-0.4l-20.8-47.3l-18.8-18.7l0-0.2c-0.2-1-0.3-2-0.4-3c0-0.5-0.1-1-0.1-1.4l-0.2-1.8
					l1.3,1.2l21.7,21.7l21.8,49.5l-0.9,0.1c-0.4,0-0.8,0.1-1.2,0.2c-0.6,0.1-1.1,0.2-1.7,0.2L121.7,247.9z M83.1,180.9l18.8,18.7
					l20.7,47c0.4,0,0.7-0.1,1.1-0.1c0.1,0,0.3,0,0.4-0.1l-21-47.8l-20.3-20.1C82.8,179.3,82.9,180.1,83.1,180.9z"/>
			</g>
			<g>
				<path class="st4" d="M117.4,265.1c-1,0-1.9-0.1-2.9-0.1l10.2,36.9l37.6-53c-0.2,0-0.3,0.1-0.5,0.1c-0.4,0.2-1,0.4-1.3,0.2
					c-0.5-0.3-1-0.5-1.5-0.4l-33.2,46.7L117.4,265.1z"/>
				<path class="st4" d="M124.4,303.4l-10.8-39h0.9c1,0,2,0,2.9,0.1l0.5,0l8.2,29.6l32.6-45.9l0.3,0c0.7,0,1.3,0.2,1.9,0.6
					c0.1,0.1,0.6-0.1,0.7-0.2c0.2-0.1,0.4-0.1,0.6-0.2l1.7-0.4L124.4,303.4z M115.3,265.7l9.6,34.7l35.8-50.4
					c-0.2,0-0.4-0.1-0.6-0.2c-0.3-0.2-0.6-0.3-0.9-0.3L125.5,297l-8.7-31.3C116.4,265.8,115.8,265.7,115.3,265.7z"/>
			</g>
			<g>
				<path class="st4" d="M332.3,280.9c0.8-0.4,1.5-1,2-1.7c0.1-0.1,0.2-0.2,0.3-0.3l-45.9,5.2l-4.4-46.1c-0.9,0.2-1.8,0.3-2.7,0.6
					l4.7,48.7l45.2-5.1c0,0,0,0,0-0.1C331.6,281.5,331.9,281.1,332.3,280.9z"/>
				<path class="st4" d="M285.7,287.9l-4.8-49.9l0.6-0.1c0.9-0.2,1.8-0.4,2.8-0.6l0.7-0.1l4.4,46.2l46.8-5.3l-1.3,1.6
					c-0.8,0.9-1.5,1.5-2.3,1.9c-0.2,0.1-0.4,0.4-0.5,0.7l-0.1,0.4l-0.4,0.1L285.7,287.9z M282.3,239l4.5,47.4l44.1-5
					c0.3-0.6,0.6-0.9,1-1.1l0,0c0.3-0.2,0.6-0.4,0.9-0.6l-44.7,5.1l-4.4-46.1C283.3,238.8,282.8,238.9,282.3,239z"/>
			</g>
			<g>
				<path class="st4" d="M387.8,243.6c-0.2,0-0.3,0.1-0.5,0.1c-0.8,0.2-1.5,0.3-2.3,0.4l-0.6,36l-23.6,1.2c-0.6,0.4-1.1,1-1.4,1.7
					c-0.2,0.4-0.4,0.8-0.6,1.2l28.3-1.4L387.8,243.6z"/>
				<path class="st4" d="M357.6,284.9l0.6-1c0.2-0.4,0.4-0.7,0.5-1.1c0.3-0.8,0.8-1.4,1.6-2l0.2-0.1l0.2,0l23-1.2l0.6-35.9l0.5-0.1
					c0.8-0.1,1.5-0.2,2.3-0.4l1.3-0.3l-0.7,40.6L357.6,284.9z M361,281.9c-0.5,0.4-0.8,0.8-1,1.3c0,0.1-0.1,0.2-0.1,0.2l26.6-1.3
					l0.6-37.7c-0.5,0.1-1,0.2-1.5,0.3l-0.6,36L361,281.9z"/>
			</g>
		</g>
	</g>
	<g>
		<g>
			<path class="st3" d="M374.1,237.4c-0.7,0-1.3-0.1-2-0.1c-0.3,0-0.6-0.1-0.9-0.1c-1.8-0.1-2.8-1.1-3.7-1.9
				c-0.3-0.2-0.5-0.5-0.8-0.7c-0.9-0.7-1.8-1.4-2.7-2.2c-0.5-0.4-1-0.8-1.5-1.2c-0.3-0.2-0.7-0.4-1.2-0.5c-0.2-0.1-0.4-0.1-0.7-0.2
				c-1-0.4-1.8-0.9-2.7-1.8c-1.1-1.1-2.1-2.2-3.6-2.3c-0.8-0.1-1.6-0.6-2.2-1.4c-0.6-0.9-0.9-2-0.7-3c0.1-0.3,0.1-0.5,0-0.7
				c-0.4-1-0.2-1.9,0-2.7c0.2-0.9,0.3-1.9,0.4-2.8l0-0.2c0-0.9,0.1-2,0.9-3c-0.3-1.1-0.1-2.1,0.1-2.9c0.1-0.6,0.2-1.2,0.2-1.7l0-0.4
				l0.2-0.3c0.2-0.4,0.3-1,0.3-1.5c0.1-0.6,0.2-1.2,0.4-1.9c0.4-1,0.7-2,1-3c0.7-2,1.4-4,2.2-6c0.4-1,0.6-2,0.5-3
				c-0.1-0.7,0.2-1.3,0.4-1.7c0.1-0.2,0.2-0.4,0.2-0.6c0-0.9,0-1.8,0-2.7c0-1.2,0.1-2.3,0-3.4c-0.1-1.2-0.3-2.6-0.6-4
				c-0.5-2-0.4-3.8,0.1-5.6c0.1-0.5,0.2-1,0.3-1.6c0-0.1,0-0.3,0.1-0.4l-0.5-0.6l0-0.2l-0.4-0.2l-0.3-0.6l-0.2,0l-0.4-0.3
				c-0.4-0.1-0.8-0.3-1-0.8c-0.1-0.2-0.4-0.5-0.6-0.7c-0.3-0.3-0.6-0.7-0.9-1.2c-0.3-0.4-0.5-0.8-0.8-1.2c-1-1.5-2.1-3.1-2.2-5.3
				l0-0.2l0-0.2c0.5-2.4,0.1-4.8-0.3-7.1c-0.4-2.6-0.3-5,0.5-7.2c0.1-0.2,0.1-0.3,0.1-0.3c-0.4-1.6-0.2-3.1,0-4.3l-0.1-0.3
				c-0.4-0.9-0.3-1.8-0.2-2.5c0-0.2,0.1-0.5,0.1-0.7c0-0.2,0-0.4,0-0.6l0,0l0-0.6c0.1-1.2-0.2-2.4-0.5-3.6l-0.5-2.1l1.4-0.2
				c0.7-0.1,1.3-0.3,1.9-0.7c-0.1,0-0.2-0.1-0.3-0.1l-4-1.5l4.2-0.9c1.1-0.2,2.1-0.1,3,0c0.3,0,0.5,0.1,0.8,0.1
				c3.1,0.3,6.2,0.6,9.4,1l7.3,0.8c4,0.4,7.9,0.8,11.9,1.2c1.6,0.2,3.2,0.3,4.7,0.5c3.5,0.4,7.1,0.7,10.6,1.1
				c3.8,0.3,7.6,0.7,11.3,1.1c2,0.2,3.9,0.4,5.9,0.6c1.4,0.1,2.8,0.3,4.1,0.4c1.8,0.2,3.6,0.3,5.3,0.5c0.5,0,1.2,0,1.7,0.7
				c0.2,0.3,0.5,0.8,0.3,1.6l-0.4,2.9c-0.3,2.3-0.6,4.5-1,6.8c-0.5,3.3-0.7,6.7-1,9.9c-0.1,0.9-0.1,1.8-0.2,2.7
				c-0.6,7.5-1,13.7-1.4,19.6c-0.6,10.4-1,19-1.3,27.1c-0.1,5.4-0.5,10.7-0.9,16.2c-0.1,2,0,3.9,0.1,6.1c0.1,0.8,0,1.5-0.3,2.1
				l-0.2,0.7l-0.7,0.1c-1.3,0.2-2.6,0.1-3.9-0.4c-0.6-0.2-1-0.4-1.4-0.4c-1.3,0.2-2.5-0.1-3.6-0.3c-0.4-0.1-0.8-0.2-1.2-0.2
				c-0.8-0.1-1.2-0.4-1.4-0.8c-0.2,0.2-0.5,0.3-0.8,0.3c-0.3,0.1-0.7,0.2-1,0.2c-0.7,0.2-1.5,0.4-2.4,0.4c-0.7,0-1.3,0.1-1.7,0.3
				c-0.8,0.3-1.6,0.5-2.3,0.7c-0.7,0.2-1.3,0.3-1.9,0.6c-0.9,0.4-1.7,0.5-2.6,0.7c-0.8,0.1-1.5,0.3-2.2,0.6l-0.3,0.1l-0.6-0.1
				c-0.1,0-0.3,0-0.4,0c0,0,0,0,0,0l-1,0.6l-0.4,0c-0.3,0-0.6,0.1-1,0.2l-1,0.3l-0.3-0.1c-1-0.2-1.7-0.2-2.3,0.2l-0.3,0.1l-1.1,0.4
				l-0.1,0l-0.7,0.4l-0.2,0c-0.2,0.1-0.3,0.2-0.5,0.2c-0.5,0.2-1.1,0.3-1.7,0.4c-0.7,0.1-1.3,0.3-1.9,0.5c-1.1,0.4-2.2,0.4-3.2,0.5
				c-0.8,0-1.7,0.1-2.4,0.3C375.6,237.3,374.8,237.4,374.1,237.4z M355.6,207.8c0,0.8-0.1,1.5-0.2,2.1c-0.1,0.8-0.3,1.4-0.1,2
				c0.2,0.7-0.1,1.4-0.4,1.9c-0.3,0.4-0.4,0.9-0.4,1.7l0,0.3c-0.1,1-0.1,2.1-0.4,3.3c-0.1,0.5-0.2,0.9-0.1,1.2
				c0.2,0.7,0.3,1.3,0.1,2.1c-0.1,0.3,0,0.7,0.3,1c0.2,0.2,0.4,0.4,0.5,0.4c2.4,0.3,3.9,1.8,5.1,3.1c0.6,0.6,1.1,1,1.8,1.2
				c0.2,0.1,0.4,0.1,0.6,0.2c0.6,0.2,1.3,0.4,1.9,0.9c0.5,0.4,1,0.8,1.5,1.2c0.9,0.7,1.8,1.4,2.7,2.1c0.3,0.3,0.6,0.5,0.9,0.8
				c0.8,0.7,1.4,1.2,2.2,1.3c0.3,0,0.6,0.1,0.9,0.1c1.2,0.1,2.3,0.2,3.3-0.1c1-0.3,2-0.4,3-0.4c0.9,0,1.7-0.1,2.5-0.3
				c0.7-0.2,1.4-0.4,2.1-0.5c0.5-0.1,0.9-0.2,1.4-0.3c0.2-0.2,0.5-0.3,0.9-0.4c0.5-0.5,1-0.6,1.5-0.5l0.1,0c1.3-0.8,2.6-0.7,3.7-0.5
				l0.5-0.1c0.4-0.1,0.9-0.3,1.5-0.3l0,0c0.7-0.7,1.6-0.5,1.9-0.5c0.1,0,0.1,0,0.2,0l0.1,0c0.8-0.3,1.6-0.5,2.4-0.6
				c0.7-0.1,1.4-0.3,2-0.5c0.8-0.3,1.6-0.5,2.3-0.7c0.7-0.2,1.3-0.3,1.9-0.6c0.6-0.3,1.3-0.4,1.9-0.4c-0.3-1,0.1-2.1,0.7-2.7
				c0.3-0.3,0.7-0.5,1.2-0.5c0.3,0,0.8,0.2,1.2,0.7c0.7-0.4,1.5-0.5,2.4-0.2c1,0.3,1.8,1,2.1,1.8c0.1,0.3,0.2,0.6,0.1,0.8
				c0.1,0,0.3,0.1,0.4,0.1c1,0.2,1.9,0.4,2.7,0.3c1-0.1,1.9,0.2,2.6,0.5c0.6,0.2,1.2,0.4,1.8,0.4c0,0,0,0,0,0c0-0.1,0-0.2,0-0.4l0,0
				c-0.1-2.3-0.3-4.3-0.1-6.5c0.4-5.4,0.7-10.7,0.8-16.1c0.2-8.1,0.6-16.7,1.3-27.2c0.4-5.9,0.8-12.1,1.4-19.6
				c0.1-0.9,0.1-1.8,0.2-2.7c0.2-3.3,0.5-6.8,1-10.2c0.3-2.3,0.7-4.5,1-6.8l0.3-2.4c-1.7-0.2-3.4-0.3-5.1-0.5
				c-1.4-0.1-2.8-0.3-4.1-0.4c-2-0.2-3.9-0.4-5.9-0.6c-3.7-0.4-7.5-0.8-11.2-1.1c-3.6-0.3-7.2-0.7-10.7-1.1
				c-1.6-0.2-3.2-0.3-4.7-0.5c-4-0.4-7.9-0.8-11.9-1.2l-7.3-0.8c-3-0.3-6-0.6-8.9-0.9l-0.1,0.1c-1.2,1.1-2.5,2.1-4,2.6
				c0.3,1.1,0.5,2.3,0.5,3.5l0.1,0.1l0,0.8c0,0.2,0,0.5,0,0.7c0,0.3,0,0.6-0.1,1c0,0.3-0.1,0.6-0.1,0.9c0.2,0.2,0.4,0.4,0.5,0.6
				c0.3,0.7,0,1.4-0.2,1.7c-0.2,1-0.3,2.1,0,3.1c0.1,0.5,0.1,1.1-0.1,1.7c-0.6,1.7-0.7,3.8-0.4,6c0.4,2.5,0.8,5.1,0.3,7.8
				c0.1,1.4,1,2.6,1.8,3.9c0.3,0.4,0.6,0.9,0.9,1.3c0.2,0.3,0.4,0.5,0.6,0.8c0.2,0.2,0.4,0.5,0.6,0.7c0.3,0.1,0.6,0.2,0.8,0.5
				c0.5,0.2,0.9,0.6,1.2,1.1c0.4,0.3,0.7,0.6,0.8,1.1c0.5,0.4,0.7,1,0.6,1.6c-0.1,0.3-0.1,0.6-0.1,0.8c-0.1,0.6-0.2,1.3-0.4,1.9
				c-0.4,1.4-0.4,2.8-0.1,4.4c0.4,1.5,0.6,3,0.7,4.4c0.1,1.2,0,2.4,0,3.6c0,0.9,0,1.7,0,2.6c0,0.7-0.2,1.2-0.4,1.6
				c-0.1,0.2-0.2,0.4-0.2,0.5c0.1,1.4-0.1,2.8-0.7,4.2c-0.8,1.9-1.5,3.9-2.1,5.8c-0.3,1-0.7,2-1.1,3c-0.1,0.4-0.2,0.8-0.3,1.3
				C355.9,206.5,355.8,207.2,355.6,207.8z M426.8,136.7l1.2,0l-1.2-0.2C426.8,136.6,426.8,136.7,426.8,136.7z"/>
			<path class="st3" d="M275,214.6c-0.9,0-1.7-0.4-2.3-1.1c-0.1-0.2-0.3-0.3-0.4-0.5c-0.5-0.6-0.9-1-1.4-1.3c-0.5-0.3-1-0.9-0.9-1.6
				c0,0-0.1,0-0.1-0.1c-0.2-0.1-0.5-0.3-0.7-0.5c-0.2-0.1-0.6-0.4-0.7-1c-0.1-0.9-0.7-1.7-1.4-2.6c-0.5-0.7-1.1-1.4-1.5-2.3
				c-0.2-0.5-0.8-1.1-1.3-1.7c-0.2-0.2-0.4-0.5-0.6-0.7c-0.7-0.8-1.5-1.9-1.7-3.2c0,0,0-0.1-0.1-0.1c0-0.1-0.1-0.2-0.1-0.2
				c-0.5-0.3-1.4-1-1.6-2.2c-1.2-1-1.9-2.4-2.4-3.6c-0.1-0.3-0.3-0.6-0.4-0.9l-0.1-0.3l-0.3-1.5c-0.5-0.7-0.8-1.5-1.2-2.2
				c-0.2-0.5-0.5-1-0.8-1.5l-0.1-0.2c-0.5-0.6-0.5-1.3-0.5-1.8c0-0.1,0-0.3,0-0.4c-0.6-1.5-0.8-3-1-4.5c-0.1-0.4-0.1-0.8-0.2-1.2
				l0-1.3l0.2-0.3c0.1-0.2,0.3-0.5,0.5-0.7c-0.1,0-0.2-0.1-0.3-0.1l-0.6-0.3l0-1.7l0.4-0.4c0,0,0,0,0,0c-0.3-0.9-0.2-1.5,0.1-1.9
				l-0.2-0.1l0-0.7c0-0.5,0.1-0.9,0.3-1.3l0.1-1.1l0.1,0l0.2-1.2l-0.1-1.4l0.4-0.3l0.4-0.8c0-0.1,0-0.2-0.1-0.2
				c-0.1-0.3-0.2-0.8-0.2-1.3l-0.1-0.7l0.3-0.4c0.1-0.2,0.1-0.3-0.1-1l-0.1-0.6l0.3-1c0-0.1,0-0.2-0.1-0.4c-0.1-0.5-0.2-1.3,0.1-2.1
				c0.6-2.5,1-5.2,1.4-8.6c0-0.2,0-0.5,0.1-0.7c0.1-0.8,0.1-1.8,0.6-2.7c0.3-0.6,0.3-1.4,0.1-2.4c-0.3-1.4,0.3-2.5,0.7-3.4
				c0.1-0.2,0.2-0.3,0.2-0.5c0.1-0.2,0.2-0.4,0.3-0.6c0-0.1,0.1-0.1,0.1-0.2c0-0.8,0.3-1.4,0.6-1.9c0.1-0.2,0.2-0.4,0.2-0.5
				c0.1-0.4,0.1-0.9,0.1-1.4c0-0.7,0-1.5,0.3-2.4c0.2-0.5,0.4-1.1,0.9-1.6c0.2-0.7,0.3-1.5,0.3-2.3c0-0.6,0.1-1.2,0.2-1.8
				c0.1-0.3,0.1-0.8,0.5-1.3c0.4-0.9,0.7-1.9,0.7-2.9c0-0.6,0.3-1.1,0.5-1.3c0.3-0.4,0.3-0.5,0.2-0.7c-0.5-1.1-0.1-2.2,0.2-2.9
				c0.3-0.8,0.5-1.5,0.7-2.5c0.2-1,0.5-1.9,0.9-2.7c0.4-0.7,0.5-1.2,0.4-1.7c-0.1-0.9,0.1-1.8,0.7-2.6c0.5-1,1.5-1,1.9-1
				c0,0,0,0,0.1,0c0,0,0.1,0,0.1,0c3.5-0.4,7-0.3,10.5-0.1c1.5,0.1,3,0.1,4.4,0.1c0.9,0,1.9,0,2.8,0c0.7,0,1.4,0,2.1,0
				c0.3,0,0.7,0,1.2,0.1l0.1,0l0.1,0c0.9-0.2,1.9-0.2,2.7-0.2c0.3,0,0.7,0,1,0c4.4-0.1,8.8-0.1,13.2-0.2c2.9,0,5.9-0.1,8.8-0.1
				c2.6,0,5.2-0.1,7.8-0.2l3.6-0.1c0.1,0,0.3,0,0.4,0l0.2,0c0.6,0,2.4,0.1,2.5,2.3c0,0.5,0.3,1,0.7,1.7c0.3,0.5,0.6,0.9,0.8,1.5
				c0,0,0,0.1,0.1,0.1c0.1,0.2,0.2,0.5,0.3,0.8c0.2,0.3,0.4,0.7,0.3,1.3c0.1,0.3,0,0.6,0,0.9c0.4,0.6,0.4,1.3,0.3,1.8
				c-0.1,0.9-0.1,1.7,0.2,2.4l0.2,0.7l0,0.7c0.1,0.4,0.2,1.1,0,1.7c0.1,0.4,0.2,0.7,0.3,0.9c0.5,0.6,0.6,1.4,0.3,2
				c-0.4,1.2-0.4,2.5-0.3,3.6c0,0.2,0.1,0.7-0.1,1.3c0.1,1,0.4,1.9,0.8,2.9c0.5,1.1,0.6,2.4,0.6,3.5c0,0.2,0,0.5,0,0.7
				c0.1,0.9,0,1.8-0.1,2.5c-0.1,0.6,0.2,1.2,0.5,1.6c0.7,0.7,1.4,1.4,1.9,2.1l0.4,0.4c0.5,0.6,1.2,0.9,2,1.3l0.5,0.3
				c1.2,0.6,2,1.4,2.7,2.1c0.8,0.8,1.1,1.9,0.9,3.1c-0.1,0.7-0.1,1.4-0.1,2.1c0,0.4,0,0.8,0,1.2c0,0.6,0.1,1.3,0.2,1.9
				c0.1,0.8,0.3,1.6,0.2,2.5c0,0.1,0,0.2,0.1,0.4c0.6,1.4,0.8,2.6,0.7,3.9c-0.1,0.6,0,1,0.2,1.4l0,0c0.5,0.8,0.4,1.6,0.4,2.2l0,0.2
				c-0.1,2.9-0.7,6-1.7,9.6c-0.1,0.4-0.3,0.7-0.5,1c0,0.1-0.1,0.2-0.1,0.2c0.1,0.5,0.3,1.3-0.2,2.1l0,0c0,0.4-0.2,0.7-0.3,1
				c-0.1,0.2-0.1,0.5-0.2,0.7c-0.2,0.7-0.5,1.5-0.6,2.2c-0.1,0.4,0,0.9,0.1,1.2c0.4,0.8,0.4,1.6,0.1,2.5c0,0.1-0.1,0.2,0,0.5
				c0.2,0.9,0.4,1.8,0.2,2.8c0,0.1,0,0.2,0,0.2c0.7,0.8,0.6,1.7,0.5,2.4c0.2,0.4,0.3,0.7,0.3,1c0.1,0.2,0.1,0.5,0.2,0.5
				c0.2,0.2,0.8,0.9,0,2c0,0.4,0,0.7-0.1,1c-0.1,0.6-0.1,1.1,0,1.5c0.2,0.8-0.1,1.6-0.8,2.1c-0.1,0.2-0.3,0.5-0.6,0.7l-0.2,0.1
				l-0.5,0.2c-1.4,0.5-2.8,1.1-4.5,1l-0.1,0c-0.3,0.1-0.5,0.3-0.8,0.5c-0.7,0.4-1.4,0.9-2.3,1.2c-0.7,0.5-1.4,0.7-2,0.9
				c-0.2,0-0.3,0.1-0.5,0.2c-0.5,0.6-1.1,0.9-1.7,1.2v0l-0.2,0.2c-0.6,0.5-1.2,1.2-1.7,1.8c-0.4,0.5-0.8,1-1.2,1.4
				c-0.3,0.4-0.6,0.8-0.8,1.3c-0.3,0.8-0.7,1.3-1.4,1.5c-0.6,0.2-1.3,0.1-2-0.4c-0.9-0.6-1.9-0.8-3.2-1.1c-0.3,0-0.9-0.1-1.3-0.5
				c-1.8-0.1-3.3-0.5-4.6-1.2c-0.5,0-1-0.1-1.4-0.2c-0.3-0.1-0.6-0.2-0.8-0.2l-0.2,0l-0.8-0.2c-0.7,0-1.3-0.2-1.8-0.6
				c-0.1,0-0.2,0-0.4,0c-0.6,0.1-1.6,0.2-2.5-0.5c-1.5-0.5-3-0.5-4.4-0.4c-0.7,0.6-1.5,0.5-1.9,0.4c-0.1,0-0.2,0-0.2,0l-0.1,0
				c-0.3,0.3-0.7,0.3-1,0.3l-0.1,0.1c-0.5,0.4-0.9,0.4-1.3,0.4l-1.8,0.5c-0.7,0.4-1.3,0.9-2,1.4c-1.1,0.8-2.2,1.7-3.5,2.3
				c-0.7,0.4-1.5,0.6-2.2,0.7c-0.8,0.2-1.5,0.4-2.1,0.8c-0.6,0.4-1.3,0.6-2.1,0.5c-1.6-0.2-3.2,0.1-4.8,0.5l-0.9,0.2
				C275.5,214.6,275.2,214.6,275,214.6z M272.5,209.8c0.7,0.5,1.2,1.1,1.7,1.6c0.1,0.2,0.3,0.3,0.4,0.5c0.2,0.2,0.4,0.3,0.7,0.2
				l0.9-0.2c1.8-0.4,3.7-0.8,5.7-0.5c0.2,0,0.3,0,0.4-0.1c0.9-0.6,1.9-0.9,2.8-1.1c0.6-0.2,1.2-0.3,1.7-0.6c1.1-0.5,2-1.3,3-2
				c0.7-0.6,1.5-1.1,2.3-1.7l0.3-0.1l3.9-1.2l0,0l0.6-0.2c0.5-0.1,0.8-0.1,1.1,0c0,0,0,0,0,0l0.1-0.3l0.8-0.1c1.8-0.2,4-0.3,6.2,0.5
				l0.5,0.2l0.1,0.1c0.1,0,0.2,0,0.3,0l0-0.4c0.2,0,0.4,0,0.6,0c0,0,0,0,0,0c0.1,0,0.3,0,0.5,0.1l0,0.1c0.1,0,0.1,0,0.2,0l0.1-0.1
				c0,0,0.1,0,0.1,0.1l0.2,0l0.6,0.4c0.2,0.2,0.3,0.2,0.6,0.2l0,0.1l0.2-0.3c0.2,0.1,0.3,0.2,0.5,0.3l0.3,0.1c0.5,0,1,0.1,1.4,0.2
				c0.3,0.1,0.6,0.2,0.9,0.1l0.4-0.1l0.4,0.2c1.1,0.6,2.4,1,4,1.1l0.6,0.1l0.6,0.1l0.2,0.3c1.2,0.2,2.6,0.5,3.9,1.3
				c0.3-0.8,0.7-1.4,1.2-2c0.4-0.4,0.7-0.8,1.1-1.2c0.6-0.7,1.2-1.5,2-2.1l0.3-0.3l0.3-0.1c0.6-0.3,1-0.4,1.1-0.7l0.3-0.4l0.4-0.1
				c0.3-0.1,0.6-0.2,1-0.3c0.5-0.2,1-0.3,1.3-0.6l0.2-0.2l0.3-0.1c0.7-0.2,1.3-0.5,1.9-0.9c0.4-0.2,0.7-0.5,1.1-0.7l0.2-0.1l0.7-0.1
				l0.1,0c1.2,0,2.3-0.3,3.5-0.8l0.2-0.6l0.4-0.1c-0.1-0.7,0-1.3,0-1.9c0-0.4,0.1-0.7,0.1-1l0-0.2l0.2-0.6c-0.2-0.3-0.2-0.7-0.3-1
				c0-0.2-0.1-0.5-0.2-0.5l-0.5-0.5l0.2-0.7c0.2-0.5,0.1-0.6,0-0.7c-0.4-0.6-0.6-1.3-0.4-2.1c0.1-0.5,0-1-0.2-1.7
				c-0.1-0.5-0.3-1.2,0-2c0.1-0.3,0.1-0.4,0-0.7c-0.3-0.7-0.5-1.8-0.3-2.7c0.2-0.9,0.4-1.7,0.7-2.5c0.1-0.3,0.2-0.6,0.3-0.9l0.5-1.2
				c0-0.1,0-0.2-0.1-0.3c0-0.1-0.1-0.3-0.1-0.4l0-0.2l0-0.2c0.1-0.5,0.3-0.9,0.5-1.2c0.1-0.2,0.2-0.3,0.2-0.4c1-3.4,1.5-6.2,1.6-9
				l0-0.3c0-0.2,0-0.5,0-0.6c-0.7-1.1-0.7-2.2-0.6-3c0.1-0.8-0.1-1.7-0.5-2.7c-0.2-0.5-0.3-1-0.3-1.5c0-0.6-0.1-1.3-0.2-2
				c-0.1-0.8-0.3-1.5-0.2-2.4c0-0.4,0-0.7,0-1.1c0-0.9,0-1.8,0.2-2.8c0.1-0.3,0-0.5-0.2-0.8c-0.5-0.5-1.2-1.2-2-1.6l-0.5-0.2
				c-0.9-0.4-1.9-0.9-2.8-1.9l-0.4-0.5c-0.6-0.7-1.1-1.3-1.7-1.8c-1-0.9-1.5-2.3-1.4-3.7c0.1-0.6,0.1-1.4,0.1-2.1c0-0.3,0-0.5,0-0.8
				c-0.1-1-0.1-1.9-0.4-2.6c-0.5-1.2-0.9-2.5-1.1-3.8l0-0.1l0.1-0.8l0.1-0.1c0,0,0,0,0,0c-0.1-1.3-0.2-2.9,0.3-4.6
				c-0.4-0.6-0.6-1.3-0.7-1.8l-0.1-0.5l0.1-0.3c0.1-0.2,0-0.5,0-0.9l0-0.2l0-0.6c-0.6-1.2-0.5-2.5-0.4-3.5c0-0.4,0-0.4-0.1-0.5
				l-0.5-0.5l0.1-0.7c0-0.2,0.1-0.4,0.1-0.5l-0.1-0.3l0-0.2l-0.3-0.7l0-0.2c0,0,0-0.1,0-0.1c-0.1-0.1-0.1-0.2-0.2-0.3
				c-0.1-0.3-0.4-0.7-0.6-1.1c-0.5-0.8-1-1.6-1.1-2.7c0,0-0.1,0-0.1,0l-0.2,0c0,0-0.1,0-0.2,0l-0.3,0l-3.4,0.1
				c-2.6,0.1-5.2,0.1-7.8,0.2c-3,0-5.9,0.1-8.8,0.1c-4.4,0-8.8,0.1-13.2,0.2c-0.4,0-0.7,0-1.1,0c-0.8,0-1.6-0.1-2.3,0.2l-0.3,0.1
				l-0.1,0l-0.4,0.1l-0.6-0.3c0,0-0.2,0-0.3,0c-0.8,0-1.5,0-2.3,0c-1,0-1.9,0-2.9,0c-1.5,0-3-0.1-4.5-0.1c-3.3-0.1-6.8-0.3-10.1,0.1
				c-0.1,0-0.2,0-0.4,0c-0.2,0.3-0.2,0.6-0.2,0.7c0.2,1.4-0.3,2.5-0.7,3.3c-0.3,0.6-0.5,1.2-0.7,2c-0.2,1.1-0.5,2-0.8,2.9
				c-0.1,0.3-0.4,0.9-0.3,1.1c0.6,1.5-0.1,2.6-0.4,3c0,0,0,0.1-0.1,0.1c0,1.5-0.5,2.8-1,3.8l-0.2,0.3c0,0.1-0.1,0.3-0.1,0.4
				c-0.1,0.5-0.1,1-0.2,1.6c-0.1,1.1-0.1,2.2-0.6,3.4l-0.1,0.3l-0.2,0.2c-0.1,0.1-0.3,0.3-0.4,0.7c-0.2,0.5-0.2,1-0.2,1.6
				c0,0.6,0,1.2-0.1,1.8c-0.1,0.5-0.3,0.9-0.5,1.3c-0.1,0.2-0.3,0.5-0.2,0.6l0,0.2c0,0.7-0.3,1.2-0.5,1.5c0,0.1-0.1,0.1-0.1,0.2
				c-0.1,0.2-0.2,0.4-0.3,0.5c-0.4,0.8-0.6,1.3-0.5,1.8c0.3,1.5,0.2,2.8-0.3,3.9c-0.3,0.6-0.3,1.2-0.4,1.9c0,0.3,0,0.5-0.1,0.8
				c-0.4,3.6-0.9,6.5-1.5,9.1l-0.1,0.3c0,0.1,0,0.3,0,0.6c0.1,0.3,0.1,0.7,0.1,1.1l-0.1,0.3l-0.2,0.6c0.2,0.7,0.4,1.6-0.1,2.5l0,0.2
				l-0.1,0.2l0,0c0,0,0.1,0.2,0.1,0.3c0.1,0.5,0.4,1.4-0.2,2.3l0,0.1c-0.1,0.3-0.2,0.6-0.3,0.8l0,0.4l-0.2,1.1
				c0.1,0.3,0.1,0.6,0,0.8c0,0.1-0.1,0.4-0.3,0.6l-0.1,0.5c0.2,0.3,0.4,0.6,0.4,1c0,0.5-0.2,1-0.6,1.5c0.2,0.6,0.2,1.1,0,1.6
				c0.3,0.3,0.6,0.6,0.7,1.1c0.2,0.8-0.2,1.6-0.8,2.4l0,0.3c0.1,0.4,0.1,0.8,0.2,1.2c0.2,1.3,0.4,2.6,0.8,3.8l0.3-0.3l0,0l0,0
				l0.1,0.1l-0.4,0.3c0,0,0,0,0,0c0.1,0.3,0.2,0.6,0.2,0.9l0.2,0.1l-0.2,0.2c0,0.1,0,0.2,0,0.3l0.3,0.5c0.3,0.5,0.6,1.1,0.8,1.7
				c0.4,0.7,0.7,1.4,1.1,2.1l0.1,0.2l0.4,1.8c0.1,0.3,0.3,0.6,0.4,0.8c0.5,1.1,1,2.1,1.8,2.7c0.4,0.3,0.8,0.9,0.8,1.5
				c0,0.1,0.3,0.3,0.5,0.4c0.5,0.3,0.7,0.7,0.9,1c0,0.1,0.1,0.1,0.1,0.2l0.2,0.3l0,0.4c0,0.7,0.5,1.3,1.2,2.1
				c0.2,0.2,0.4,0.4,0.6,0.6c0.7,0.7,1.4,1.5,1.7,2.4c0.3,0.6,0.7,1.2,1.2,1.8c0.7,0.9,1.4,1.9,1.8,3.2c0,0,0,0,0,0.1
				c0,0,0.2,0.1,0.3,0.2C271.5,208.1,272.4,208.7,272.5,209.8z"/>
			<path class="st3" d="M246.2,219.9c-0.4,0-0.8-0.1-1.2-0.3c-0.2-0.1-0.7,0-1.1,0.1l-0.2,0c-2.1,0.3-4,0.1-5.9-0.2
				c-0.4-0.1-0.8-0.1-1.3-0.2c-0.7-0.1-1.5,0-2.3,0l-0.3,0c-0.7,0.1-1.3-0.1-1.7-0.5c-0.8,0-1.7-0.1-2.6-0.6c0,0-0.1,0-0.1,0
				c-0.4-0.1-1-0.3-1.5-0.7l-0.2-0.1c-0.7,0-1.3-0.2-1.8-0.4c-0.4-0.1-0.7-0.2-0.9-0.2c-0.7,0-1.4-0.1-2.1-0.1l-0.2,0
				c-1.2,0-2.6,0-3.9-0.7c-0.1,0.1-0.2,0.3-0.2,0.3c-0.5,0.5-1.2,0.5-2-0.1c-0.3-0.2-0.7-0.5-1-0.6c-0.2-0.1-0.3-0.1-0.8,0
				c-1.8,0.4-3.4,0.1-5-0.2l-0.3-0.1c-0.5-0.1-0.9-0.2-1.2-0.1c-0.8,0.1-2,0.2-3.2-0.5c-0.1,0-0.2,0-0.3,0c-1.7,0.2-3.5,0.3-5.3-0.2
				c-0.6-0.2-1.3-0.2-2-0.2c-0.8,0-1.6,0-2.5-0.2c-0.1,0-0.2,0-0.3,0c-0.3,0-0.7-0.1-1.1-0.3c-0.9-0.4-1.9-0.3-3.1-0.1
				c-0.3,0-0.7,0.1-1,0.1c-1.6,0.2-3.1,0-4.7-0.2l-0.1,0c-0.2,0.1-0.4,0.2-0.7,0.3c-1.4,0.6-2.9,1.3-4.7,1.2c-0.2,0-0.4,0-0.6-0.1
				c-0.4-0.1-1.2-0.3-1.6-1c0,0,0,0,0-0.1l-0.8-0.6c-0.5-0.3-0.8-0.6-1-1.1c-0.2-0.6,0.1-1.2,0.3-1.5c0-0.2,0-0.4,0.1-0.6l0-0.6
				c-0.1-0.6,0-1,0.2-1.4c-0.1-0.2-0.3-0.4-0.3-0.8c-0.7-0.7-1-1.5-1.2-2.2l-0.1-0.4c-0.1-0.3-0.2-0.6-0.3-0.7c-1-1.1-1.5-2.4-2-3.5
				c-0.1-0.3-0.2-0.6-0.4-0.9l-0.1-0.1c-1.1-0.5-1.2-1.5-1.2-2.1c-0.2-0.4-0.2-0.9-0.2-1.2c0,0,0,0,0-0.1c-0.3-0.4-0.4-0.9-0.4-1.2
				c-0.1-0.4-0.1-0.8-0.1-1.2l-0.2-0.5l-0.1-1.4c-0.5-1.3-1-2.6-1.4-3.9c-0.4-1.4-0.9-3-0.8-4.9c0,0-0.1-0.1-0.2-0.2
				c-0.8-0.7-1.1-1.6-1.4-2.5l-0.1-0.3l-1.6-3.5c-1.5-1.4-2.2-3.2-2.3-5.5c0-0.1-0.1-0.2-0.3-0.4c-0.1-0.1-0.2-0.2-0.2-0.3
				c-0.5-0.6-0.9-1.1-1.1-1.9l-0.2-0.5l0-0.3c0.1-0.6,0-0.7,0-0.7l-0.4-0.3l-0.1-1.3l0.1-0.3c0-0.1,0.1-0.2,0.2-0.3
				c-0.2-0.4-0.4-0.7-0.6-1.1c-0.3-0.6-0.7-1.2-1-1.8c-0.1-0.2-0.2-0.4-0.3-0.5c-0.4-0.7-0.6-1-1-1.1l-0.8-0.2l-0.3-1.8l0-0.2
				c0-0.1,0-0.2-0.3-0.5c-0.3-0.2-0.8-0.7-0.8-1.5l-0.7-0.7c-0.6-0.7-1.3-1.3-1.9-2c-0.3-0.3-0.7-0.7-0.8-1.4c0-0.1-0.1-0.2-0.2-0.4
				c-0.3-0.6-0.6-1.4-0.7-2.2c-0.1-0.3-0.2-0.6-0.3-0.9c-0.2-0.7-0.4-1.4-0.8-2c-0.4-0.8-0.9-1.8-0.7-3.2l-0.1-0.1
				c-0.6-0.5-0.8-1.1-0.8-1.5l0,0l-0.1-1.1l0.1-0.3c0-0.1,0-0.2-0.2-0.5l-0.2-0.3l-0.3-3.3l0-0.1c0-0.3,0-0.6-0.1-1l-0.1-0.4
				l0.1-0.4c0.4-1.4,0.6-2.9,0.8-4.2c0-0.2,0.1-0.4,0.1-0.6c0.1-0.7,0.2-1.1,0-1.5l-0.3-0.6l0.3-0.6c0.2-0.4,0.3-0.7,0.3-1.2
				c0.2-1.1,0.8-1.7,1.7-1.8c0,0,0.1,0,0.1,0c0,0,0-0.1,0-0.3c0.1-0.7,0.5-1.2,0.7-1.4c0,0,0.1-0.1,0.1-0.1l0.2-0.3
				c0.5-0.6,0.7-0.9,0.7-1.2c0-0.6,0.3-1.3,0.8-1.6c0.2-0.1,0.3-0.4,0.5-0.7c0.2-0.3,0.3-0.6,0.6-0.9c0.4-0.4,0.7-0.9,1-1.5
				c0.8-1.2,1.7-2.7,3.3-3.4c1-1.9,2.9-1.9,4.1-1.9c0.3,0,0.6,0,0.9,0c2.7-0.3,5.5-0.5,8.1-0.7c1.1-0.1,2.1-0.1,3.2-0.2l3.3-0.2
				c2.4-0.2,4.7-0.4,7.1-0.5l2.2-0.2c8.1-0.7,16.2-1.3,24.3-2c3.9-0.3,7.8-0.7,11.7-1c3-0.3,5.9-0.5,8.9-0.8
				c1.4-0.1,2.2-0.2,2.9,0.4c0.7,0.6,0.7,1.5,0.7,2.9c0,0.7,0,1.4,0,2c0,0.9-0.2,1.6-0.7,2.3c-0.1,0.1-0.1,0.2-0.1,0.3
				c0,0.7-0.1,1.3-0.4,2c-0.1,0.3-0.1,0.7,0,1.1c0.2,0.7,0.5,1.7,0.1,2.9l0,0.2c0,0.6-0.1,1.1-0.1,1.7l0.1,0.2l-0.1,0
				c-0.1,0.5-0.2,1-0.4,1.6c0,0,0,0,0,0c0.4,1.5,0,2.8-0.3,4c-0.1,0.3-0.2,0.7-0.3,1c0,0.2-0.1,0.5-0.1,0.7
				c-0.1,0.7-0.3,1.5-0.6,2.2l0,1.1l-0.4,0.4l0,0.1l-0.1,1.2c0.5,0.8,0.5,1.7,0.1,2.6c-0.1,0.2-0.1,0.5-0.2,0.8
				c0,0.2-0.1,0.3-0.1,0.5l0,0.8l-0.2,0.1c0.4,0.9,0.4,1.8-0.1,2.6c0,0.4-0.1,0.8-0.3,1.1l-0.1,0.3c-1.1,2.1-0.9,4.4-0.8,6.8
				c0,0.5,0.1,1,0.1,1.5c0,0.2,0,0.3,0,0.5l0,0l0,0.3l-0.2,0.6l-0.3,0.9l0.1,0.5l0.1,0.2l0,0.2c0.1,0.3,0.1,0.6,0.1,1
				c0,0.5-0.2,1-0.3,1.3c0,0,0,0,0,0.1l0.1,0.2l0.1,0l0.1,0.4l0.6,0.9c0.2,0.1,0.4,0.3,0.5,0.5l1.3,2.3c0.3,1.2,0.2,2.3-0.2,3.4
				l-0.2,0.8l-0.6,1.8c0.1,0.4,0.1,0.8,0,1.1l0,0.9c0.1,0.6,0,1.1-0.1,1.6c0,0.5-0.2,1-0.3,1.3c0.2,0.5,0.1,1,0.1,1.4
				c0,0.1,0,0.3,0,0.4c0,0.5,0,1-0.1,1.6c-0.1,0.8-0.1,1.6,0.1,2.3c0.1,0.3,0.1,0.4,0.2,0.5c1.2,1.2,1.7,2.6,1.7,4.1
				c0.6,0.9,0.6,1.9,0.7,2.6c0,0.7,0.1,1.1,0.3,1.3c0.4,0.4,0.7,0.8,1,1.2c0.5,0.6,0.9,1.2,1.5,1.5c0.9,0.5,1.6,1.1,2.2,1.9
				c0.3,0.5,0.4,0.9,0.6,1.3c0,0.1,0.1,0.3,0.2,0.5c0.3,0.8,0.6,1.6,1,2.5c0.4,0.8,0.7,1.6,1,2.4c0.1,0.2,0.3,0.7,0.2,1.3
				c1.2,0.2,2.3,1.6,3.9,4.7l0.2,0.3l0,0.4c0,0,0,0,0,0l0.2,0.1c1.4,0.6,2.2,1.7,3,2.6c0.2,0.3,0.5,0.5,0.7,0.8
				c0.5,0.5,0.7,1.1,0.9,1.6c0.1,0.3,0.2,0.6,0.4,0.8c0.1,0.1,0.1,0.2,0.2,0.3c1.2,1,1.1,2.4,1,3.2c0,0.2,0,0.4,0,0.6
				c0,1.6-0.6,3-1.2,4.2c-0.2,0.3-0.3,0.7-0.5,1c-0.2,0.4-0.6,0.8-1,1l-0.5,0.2l-0.5-0.2c0,0-0.2,0.1-0.4,0.1
				C246.9,219.8,246.6,219.9,246.2,219.9z M244.7,217.1c0.5,0,1,0.1,1.5,0.3c0.1,0,0.3,0,0.5-0.1c0.3-0.1,0.6-0.1,1-0.2
				c0.1-0.2,0.2-0.4,0.3-0.6c0.5-1,0.9-2,0.9-3.1c0-0.3,0-0.6,0-0.9c0.1-0.9,0-1-0.2-1.1l0,0c-0.5-0.3-0.6-0.7-0.7-0.9
				c-0.2-0.4-0.4-0.8-0.5-1.2c-0.1-0.3-0.3-0.7-0.4-0.8c-0.3-0.3-0.5-0.6-0.8-0.9c-0.6-0.8-1.2-1.5-2-1.9c-0.7-0.1-1.1-0.5-1.3-0.7
				c-0.4-0.5-0.5-1.1-0.5-1.6c-1-1.9-1.6-2.7-1.8-3c-0.3,0.1-0.7,0.3-1.2,0.1c-0.5-0.1-1-0.5-1.3-1c-0.3-0.5-0.3-1-0.2-1.4
				c0.1-0.4,0.4-0.7,0.6-0.9c-0.3-0.7-0.6-1.4-0.9-2.1c-0.4-0.9-0.8-1.8-1.1-2.7c-0.1-0.2-0.1-0.4-0.2-0.6c-0.1-0.3-0.1-0.5-0.3-0.7
				c-0.3-0.4-0.7-0.8-1.2-1.1c-1.1-0.6-1.7-1.4-2.3-2.2c-0.3-0.4-0.5-0.7-0.8-1c-0.9-0.9-0.9-2-1-3c0-0.7-0.1-1.2-0.3-1.5l-0.4-0.4
				l0.1-0.6c0.1-1-0.2-1.8-0.9-2.6c-0.5-0.5-0.7-1.1-0.8-1.6c-0.3-1.1-0.2-2.1-0.1-3.1c0-0.4,0.1-0.9,0.1-1.3c0-0.2,0-0.5,0-0.7
				c0-0.2,0-0.4,0-0.4l-0.3-0.5l0.1-0.5c0.1-0.2,0.2-0.5,0.3-0.7c0.1-0.1,0.1-0.3,0.1-0.4l0-0.2l0-0.2c0.1-0.3,0.1-0.6,0-1l0-0.1
				l0-1.1l1,0l0,0l-1-0.2c0-0.1,0-0.1,0-0.1l-0.3-0.5l0.2-0.4l1-3.2c0.3-0.5,0.3-1.1,0.1-1.7l-0.1-0.2l-0.9-1.4l-1.1-1.1l-0.1-0.4
				c-0.2-0.1-0.3-0.3-0.4-0.5l0.2-0.1l-0.2-0.4l0.9-0.4l-0.5-0.1l-0.5,0l0-0.1c0,0,0,0,0-0.1l0-0.7l0.1-0.2c0.1-0.1,0.1-0.3,0.2-0.4
				c0-0.1,0.1-0.2,0.1-0.3l-0.1-0.4l0.1-0.1c0-0.1,0-0.2-0.1-0.2l0-0.2l0,0l0,0l-0.1-1.2l0.5-1.8c0-0.1,0-0.1,0-0.2
				c0-0.5-0.1-1-0.1-1.4c-0.2-2.4-0.3-4.8,0.6-7.2l-0.5-0.2c0-0.1,0.1-0.2,0.1-0.3l0.4,0.2c0.1-0.2,0.2-0.3,0.2-0.5l0.3-1.2l0.1-0.2
				c0.2-0.3,0.2-0.4,0.1-0.5c-0.5-0.9-0.5-1.9,0.1-2.6c0,0,0-0.1,0-0.2c0.1-0.4,0.2-0.9,0.4-1.4c0.1-0.2,0.1-0.2,0.1-0.3
				c0,0,0-0.1-0.2-0.2c-0.7-0.6-1-1.3-0.8-2.1l0.2-0.9l0.6-0.1c0-0.2,0.1-0.4,0.2-0.6c-0.1-0.3-0.1-0.5-0.1-0.7
				c0-0.2,0.1-0.5,0.4-0.8c0.2-0.5,0.2-1,0.3-1.5c0-0.3,0.1-0.5,0.1-0.8c0.1-0.4,0.2-0.8,0.3-1.2c0.3-1,0.5-1.9,0.3-2.8
				c-0.2-0.6,0-1.2,0.1-1.5c0.2-0.4,0.3-0.8,0.3-1.3l-1.8-0.5l2.1-1.9c0-0.3,0-0.7-0.2-1.1c-0.3-1-0.3-2,0.1-2.8
				c0.2-0.4,0.2-0.6,0.2-0.9c0-0.8,0.2-1.5,0.7-2.1c0.1-0.1,0.1-0.2,0.1-0.5c0-0.7-0.1-1.4,0-2.2c0-0.3,0-0.7,0-1
				c-0.3,0-0.6,0-0.9,0.1c-3,0.3-5.9,0.5-8.9,0.8c-3.9,0.4-7.8,0.7-11.7,1c-8.1,0.7-16.2,1.4-24.3,2l-2.2,0.2
				c-2.4,0.2-4.7,0.4-7.1,0.5l-3.3,0.2c-1.1,0.1-2.1,0.2-3.2,0.2c-2.6,0.2-5.4,0.4-8,0.7c-0.4,0-0.8,0-1.2,0c-1.3,0-1.6,0-1.9,0.8
				c-0.1,0.4-0.5,0.7-0.9,0.8c-1.1,0.4-1.7,1.4-2.4,2.5c-0.4,0.6-0.7,1.2-1.2,1.8c-0.1,0.1-0.2,0.3-0.3,0.5c-0.2,0.4-0.5,0.9-1,1.3
				c-0.1,1.2-0.7,2-1.3,2.6l-0.2,0.2c-0.1,0.1-0.2,0.2-0.3,0.3c0,0-0.1,0.1-0.1,0.1c-0.2,1.6-1.1,2.1-1.9,2.3
				c-0.1,0.4-0.1,0.7-0.3,1.1c0.3,0.9,0.1,1.8,0,2.5c0,0.2-0.1,0.3-0.1,0.5c-0.2,1.3-0.4,2.8-0.8,4.3c0.1,0.5,0.1,0.9,0.1,1.4
				l0.3,2.4c0.3,0.4,0.6,1.1,0.5,2c0.1,0.2,0.2,0.5,0.2,0.7c0.5,0.4,1,1,0.8,2.3c-0.1,0.5,0,0.9,0.4,1.6c0.5,0.8,0.7,1.7,1,2.5
				c0.1,0.3,0.2,0.6,0.3,1l0.1,0.3c0.1,0.5,0.3,1.1,0.5,1.6c0.1,0.2,0.2,0.4,0.2,0.6l0.1,0.3c0,0,0.1,0.1,0.1,0.1
				c0.7,0.8,1.3,1.4,1.9,2.1l0.7,0.7c0.4,0.2,0.6,0.6,0.7,0.8c0.1,0.2,0.1,0.4,0.1,0.7c0.9,0.8,1.1,1.8,1,2.4l0,0
				c0.9,0.5,1.4,1.3,1.7,1.9c0.1,0.1,0.2,0.3,0.3,0.4c0.4,0.6,0.8,1.2,1.1,1.9c0.3,0.5,0.6,1,0.9,1.5c0.2,0.4,0.5,1.1,0,1.8
				c0.4,0.7,0.4,1.4,0.3,1.9l0,0.1c0.1,0.4,0.3,0.7,0.6,1.1l0.2,0.2c0.4,0.4,0.9,1,0.9,2c0,1.7,0.6,2.9,1.7,3.9l0.2,0.2l0.3,0.9
				l1.5,3.2l0.1,0.4c0.2,0.6,0.4,1.1,0.7,1.4c0.6,0.6,1,1.3,0.9,2c0,1.5,0.4,2.9,0.7,4.1c0.4,1.3,0.9,2.5,1.4,3.7l0.2,0.6l0,1.2
				l0.3,0.6l0,0.3c0,0.3,0,0.6,0.1,0.9l0.1,0.3l0.2,0.1l0.1,0.5c0,0.2,0.1,0.5,0.1,0.7c0,0.2,0,0.4,0.1,0.5l0.1,0.3l0,0.3
				c0,0,0,0.1,0,0.1c0.7,0.3,0.9,0.9,1,1.2c0.2,0.4,0.3,0.7,0.4,1c0.4,1,0.8,2,1.5,2.7c0.5,0.5,0.7,1.1,0.9,1.6l0.1,0.4
				c0.2,0.7,0.4,1.1,0.7,1.3l0.8,0.5l-0.1,0.7c0,0,0,0.1,0.1,0.1c0.1,0.2,0.3,0.5,0.4,0.9l0.2,0.6l-0.3,0.5
				c-0.1,0.1-0.2,0.3-0.2,0.4l0.1,0.2l-0.1,1.5l0.1,0.3l-0.2,0.3l1.3,0.9l0,0.1c0,0,0,0,0,0l0.4,0.1c1.1,0,2.2-0.5,3.3-1
				c0.3-0.1,0.6-0.3,0.9-0.4l0.3-0.1l0.5-0.1l0.2,0c1.5,0.2,2.9,0.3,4.2,0.2c0.3,0,0.6-0.1,0.9-0.1c1.4-0.2,2.9-0.4,4.5,0.3
				c0,0,0.2,0,0.3,0c0.2,0,0.4,0,0.5,0.1c0.6,0.1,1.3,0.2,2,0.2c0.8,0,1.7,0,2.6,0.3c1.4,0.4,2.9,0.2,4.4,0.1c0.5,0,1.1-0.1,1.7,0.3
				c0.4,0.3,0.9,0.3,1.6,0.2c0.8-0.1,1.5,0,2.1,0.1l0.3,0.1c1.4,0.3,2.6,0.6,3.9,0.2c0.7-0.2,1.2-0.2,1.9,0c0.5,0.1,0.8,0.3,1.2,0.5
				c0.2-0.1,0.4-0.1,0.6-0.2c0.6-0.1,1.3-0.1,2,0.3c0.8,0.4,1.7,0.5,2.8,0.5l0.2,0c0.7,0,1.5,0,2.2,0.1c0.6,0,1.1,0.2,1.6,0.4
				c0.4,0.1,0.8,0.3,1.1,0.2l0.3,0l1.4,0.5l0.2,0.3c0,0,0.2,0.1,0.4,0.1c0.2,0,0.3,0.1,0.5,0.1l0.3,0.2c0.4,0.3,0.9,0.3,1.7,0.3l1,0
				l0.3,0.5l0.2,0c0.9-0.1,1.8-0.1,2.8,0c0.4,0.1,0.9,0.1,1.3,0.2c1.8,0.3,3.5,0.5,5.2,0.2l0.2,0
				C243.8,217.1,244.2,217.1,244.7,217.1z"/>
			<path class="st3" d="M224.6,350.2c-1.4,0-2.9,0-4.3-0.1c-0.9,0-1.7-0.1-2.6-0.1c-3.6-0.1-7.3-0.3-10.8-0.4l-0.5,0
				c-2.6-0.1-5.1-0.3-7.7-0.4c-6.1-0.3-12.5-0.6-18.7-1c-5-0.3-11.5-0.7-18.1-0.7c-3.9-0.1-7.8-0.2-11.6-0.3
				c-2.1-0.1-4.3-0.1-6.4-0.2c-1.5,0-3-0.1-4.6-0.1c-1.9,0-3.7,0-5.6-0.1c-3.2-0.1-6.5-0.2-9.7-0.2c-2.4,0-4.8-0.1-7.3-0.1
				c-7.5-0.2-15-0.3-22.4-0.5l-11.1-0.2c-0.8,0-1.6,0-2.3,0c-0.7,0-1.2-0.3-1.4-0.6c-0.6-0.6-0.5-1.3-0.5-1.7c0-1,0.1-1.9,0.2-2.7
				c0.6-5,0.8-10.1,1.1-15l0.1-1.4c0.3-5.2,0.5-10.6,0.6-16.4c0.1-3.6,0-7.4,0-11c0-3-0.1-6-0.1-9.1c0-1.6,0-3.2,0.1-4.8
				c0-2.7,0.1-5.5,0.1-8.2c0-1.4,0-2.8,0.1-4.2c0.1-2.2,0.1-4.5,0-6.7c-0.1-0.8,0.1-1.4,0.6-1.8c0.4-0.4,1-0.6,1.8-0.5
				c1.7,0.2,3.4,0.2,5-0.1c1.2-0.2,2.3-0.1,3.4,0.4c0,0,0.2,0,0.2,0l0.3,0c1.2-0.1,2.3-0.3,3.5-0.5c1.1-0.2,2,0.1,2.7,0.3
				c0.4,0.1,0.8,0.3,1.2,0.3c0.6,0.1,1.2,0.1,1.8,0.2c1.3,0.1,2.6,0.2,4,0.5c0.6,0.1,1.2,0.2,1.8,0.3c1.3,0.2,2.7,0.3,4,0.9
				c0.3,0.1,0.7,0.2,1.2,0.1c2.6-0.1,5.1,0,7.6,0.1c0.7,0,1.3,0.1,1.8,0.2l0.6,0.1c0.7,0.1,1.4-0.1,2.1-0.3c0.6-0.1,1.2-0.3,1.9-0.3
				c0.7-0.1,1.4-0.3,2.1-0.6c0.7-0.3,1.4-0.6,2.3-0.7c0.3-0.1,0.7-0.2,1.1-0.1c1.2,0.3,2.6,0,3.7-0.6c1.2-0.7,2.5-0.9,3.7-1.1
				c0.9-0.1,1.8-0.3,2.5-0.6c2-1,3.6-1.9,4.5-3.7c0.4-0.8,0.9-1.5,1.4-2.1c0.3-0.3,0.6-0.7,0.8-1c0.3-0.4,0.7-0.7,1.1-0.7
				c1.6-0.2,2.6-1.3,3.9-2.5c0.3-0.3,0.6-0.6,1-0.9c0.2-0.2,0.6-0.6,1.1-0.7c0.3-0.1,0.7-0.2,1.1-0.3c1.1-0.4,2.6-0.9,4.2,0
				c0.1,0,0.2-0.1,0.3-0.1c1-0.4,1.9-0.4,2.9-0.1c0.6,0.2,1.1,0.2,1.6,0.1c0.8-0.2,1.8-0.2,2.6,0.6c0.1,0.1,0.3,0.2,0.9,0.1
				c0.9-0.1,1.7,0,2.7,0.4c0.2,0.1,0.4,0.1,0.7,0.1c0.2,0,0.5,0,0.7,0.1c0.8,0.2,1.7,0.1,2.6,0c0.4,0,0.8-0.1,1.1-0.1
				c1.1-0.1,2.2,0.4,3.1,0.9l0.5,0.2c0.5,0.2,0.7,0.3,1,0.3c0.9,0,1.6,0.4,2.2,0.7c1.7,1,3.4,1.4,5.2,1.2c1.1-0.1,2.3,0,3.6,0.3
				c0.4,0.1,0.8,0.2,1.2,0.3c1.1,0.3,2.1,0.6,3.1,0.4c0.2,0,0.9-0.2,1.4,0.2c0.6,0.4,1.2,0.6,1.9,0.9c0.9,0.4,2,0.8,2.9,1.5
				c0.4,0.3,1.3,0.5,1.8,0.6c0.9,0.2,1.7,0.4,2.5,0.7c0.6,0.2,1.1,0.4,1.7,0.5c0.6,0.1,1.2,0.1,1.9,0.1c0.3,0,0.5,0,0.8,0
				c0.3,0,0.7-0.1,1.2,0.1c0.6,0,1.1,0.4,1.4,1c0.2,0.3,0.5,0.4,1.5,0.3l0.2,0c0.5-0.1,1.3-0.1,2,0.5c0,0,0,0,0,0
				c0.7-0.1,2.6-0.5,3.8,1.2c0,0,0.1,0.1,0.1,0.1l0.7-0.1l0.2,0c1.3,0.1,2.6,0.5,3.8,1.2c0.7,0.4,1.2,1.1,1.4,1.9
				c0.2,0.9,0.1,2-0.4,2.8l-0.1,0.1c-0.1,0.1-0.2,0.3-0.2,0.4c0.4,0.5,0.6,1.5-0.6,2.5c-1.5,1.4-3.1,2.8-4.9,4.1
				c-0.8,0.6-1.4,1.5-2,2.6c-0.4,0.7-0.9,1.3-1.4,1.8c-0.2,0.2-0.4,0.4-0.6,0.7l-0.1,0.1c-0.7,0.9-1.3,1.6-1.4,2.5
				c0,0.6-0.3,1.1-0.9,1.6l-0.1,0.1c-1.7,1.3-3.5,2.7-5.6,3.6c-0.7,0.3-1.3,0.9-1.9,1.7c-1,1.4-1.9,2.4-3,3.1
				c-0.3,0.2-0.3,0.3-0.3,0.3c-0.1,1-0.7,1.6-1,2c-0.1,0.1-0.2,0.2-0.3,0.3c-0.3,0.5-0.6,0.9-0.9,1.5c-0.3,0.5-0.6,1.1-1,1.6
				c-0.6,0.8-0.8,2-1.1,3.1c-0.1,0.3-0.1,0.5-0.2,0.7c-0.1,0.4-0.2,0.5-0.2,0.8c0.3,2,1,3.9,2.2,5.8c0.1,0.1,0.3,0.2,0.5,0.4
				c0.4,0.3,1,0.7,1.3,1.3c0.1,0.1,0.3,0.4,0.4,0.7c0.3,1.2,1.1,2,2,2.9c0.8,0.8,1.6,1.6,2.2,2.7c0.2,0.3,0.3,0.6,0.5,0.9
				c0.2,0.3,0.3,0.6,0.5,0.9c0.7,1.3,1.7,2.5,2.7,3.7c1.6,1,2.6,2.4,3.6,3.8c0.7,0.9,1.3,1.8,2.1,2.6c0.4,0.3,0.7,0.7,1.1,1.1
				c0.8,0.8,1.6,1.5,2.5,2.2c1.2,0.9,3,2.2,3.1,4.6c0,0,0.1,0,0.1,0.1c0.2,0.2,0.6,0.5,0.8,1.1c0.1,0.1,0.2,0.3,0.4,0.5
				c0.2,0.3,0.5,0.7,0.7,1.2c0,0,0,0,0,0c1.3,0.6,2.2,1.5,2.7,2.8c0.1,0.3,0.4,0.5,0.8,0.8c0.4,0.3,0.9,0.7,1.3,1.3
				c0.2,0.4,0.6,0.7,0.9,1.1c0.2,0.3,0.5,0.5,0.7,0.8c0.2,0.2,0.4,0.4,0.5,0.5c1.5,0.1,1.5,1.4,1.5,1.5c0,0.7-0.4,1.5-1.6,1.8
				c-0.3,0.1-0.6,0.2-1,0.3c-0.9,0.2-1.8,0.5-2.8,0.6C227.9,350.1,226.2,350.2,224.6,350.2z M81.5,343.1c0.6,0,1.2,0,1.8,0l11.1,0.2
				c7.5,0.1,15,0.3,22.5,0.5c2.4,0.1,4.8,0.1,7.2,0.1c3.2,0.1,6.5,0.1,9.7,0.2c1.8,0.1,3.7,0.1,5.5,0.1c1.5,0,3.1,0,4.6,0.1
				c2.1,0.1,4.3,0.1,6.4,0.2c3.8,0.1,7.7,0.3,11.6,0.3c6.6,0.1,13.2,0.5,18.2,0.8c6.2,0.4,12.6,0.7,18.7,1c2.6,0.1,5.1,0.3,7.7,0.4
				l0.5,0c3.5,0.2,7.2,0.4,10.7,0.4c0.9,0,1.8,0,2.7,0.1c2.9,0.1,5.9,0.2,8.8-0.1c0.6-0.1,1.3-0.2,1.9-0.4c0,0-0.1-0.1-0.1-0.1
				c-0.2-0.3-0.4-0.5-0.6-0.7c-0.4-0.4-0.8-0.9-1.1-1.4c-0.2-0.2-0.5-0.5-0.8-0.7c-0.5-0.4-1.2-1-1.5-1.9c-0.3-0.7-0.6-1.1-1.4-1.4
				c-0.7-0.3-1.2-0.8-1.3-1.3c0-0.2-0.2-0.4-0.4-0.7c-0.2-0.3-0.5-0.7-0.7-1.1c0,0-0.1-0.1-0.1-0.1c-0.3-0.3-0.9-0.8-0.9-1.8
				c0-1.1-0.8-1.8-2.1-2.7c-1-0.7-1.9-1.6-2.8-2.4c-0.4-0.3-0.7-0.7-1.1-1c-1-0.9-1.7-1.9-2.5-2.9c-0.9-1.3-1.8-2.5-3.1-3.3
				l-0.2-0.1l-0.2-0.2c-1.1-1.3-2.2-2.6-3-4.2c-0.2-0.3-0.3-0.6-0.5-1c-0.1-0.3-0.3-0.6-0.5-0.9c-0.4-0.8-1-1.4-1.7-2.1
				c-1-1-2.1-2.2-2.6-3.9c-0.1-0.1-0.1-0.2-0.2-0.3c-0.1-0.1-0.3-0.3-0.5-0.5c-0.4-0.3-0.8-0.6-1.2-1.1c-1.4-2.3-2.3-4.5-2.6-6.8
				c-0.1-0.8,0.1-1.5,0.3-1.9c0-0.1,0.1-0.3,0.1-0.4c0.3-1.4,0.6-2.9,1.5-4c0.3-0.5,0.6-0.9,0.9-1.4c0.3-0.6,0.7-1.1,1.1-1.7
				c0.1-0.2,0.3-0.4,0.5-0.6c0.2-0.2,0.4-0.4,0.4-0.5c0.1-1.3,1.1-2,1.4-2.2c0.8-0.5,1.6-1.3,2.3-2.4c0.8-1.2,1.9-2.1,2.9-2.6
				c1.9-0.8,3.4-2,5.1-3.3l0,0c0.2-1.6,1.1-2.8,1.9-3.7l0.1-0.1c0.2-0.3,0.4-0.5,0.7-0.8c0.4-0.4,0.8-0.9,1.1-1.3
				c0.7-1.3,1.5-2.5,2.7-3.3c1.6-1.2,3.2-2.6,4.6-3.9c-0.4-1.1,0.2-2,0.5-2.5c0.2-0.3,0.3-0.6,0.2-0.9c0-0.2-0.1-0.3-0.2-0.3
				c-0.9-0.5-1.8-0.8-2.7-0.9l-0.6,0.1c-0.8,0.2-1.5-0.1-1.9-0.7l0,0l-0.2-0.3c-0.2-0.3-0.4-0.5-1.5-0.3c-0.9,0.2-1.6,0.1-2-0.5
				c0,0-0.1,0-0.1,0l-0.2,0c-0.9,0.1-2.5,0.2-3.6-1.2l-0.2,0l-0.2-0.2c-0.1,0-0.1,0-0.2,0c-0.2,0-0.5,0-0.7,0c-0.8,0-1.7,0-2.5-0.2
				c-0.6-0.2-1.3-0.4-1.9-0.6c-0.7-0.2-1.4-0.5-2.1-0.6c-0.8-0.2-2.1-0.4-3-1.1c-0.6-0.5-1.4-0.8-2.2-1.1c-0.7-0.3-1.4-0.6-2.1-1
				c-1.5,0.2-2.9-0.1-4.1-0.4c-0.4-0.1-0.7-0.2-1-0.3c-1.1-0.2-2-0.3-2.9-0.2c-2.4,0.2-4.5-0.3-6.7-1.5c-0.4-0.2-0.7-0.4-0.9-0.4
				c-0.8,0-1.4-0.3-1.9-0.5c-0.3-0.1-0.4-0.2-0.6-0.3c-0.7-0.3-1.4-0.7-1.9-0.7c-0.3,0-0.7,0.1-1,0.1c-1.1,0.1-2.2,0.2-3.4,0
				c-0.1,0-0.3,0-0.4,0c-0.4,0-0.9-0.1-1.4-0.3c-0.5-0.2-1-0.3-1.4-0.2c-0.5,0.1-2,0.3-3.1-0.8c0,0,0,0-0.1,0c-1,0.3-2,0.3-3.1-0.1
				c-0.4-0.1-0.8-0.1-1.2,0c-0.6,0.2-1.6,0.6-2.5,0c-0.6-0.4-1.2-0.3-2.3,0.1c-0.4,0.1-0.8,0.3-1.3,0.4c-0.1,0-0.1,0.1-0.1,0.1
				c-0.3,0.3-0.6,0.6-0.9,0.8c-1.3,1.2-2.7,2.6-4.8,3c-0.2,0.3-0.5,0.7-0.7,1c-0.4,0.5-0.8,1-1.1,1.5c-1.2,2.5-3.2,3.7-5.6,4.9
				c-1.1,0.5-2.2,0.7-3.2,0.8c-1,0.1-2,0.3-2.8,0.8c-1.5,0.9-3.5,1.2-5.2,0.9c-0.2,0-0.3,0.1-0.4,0.1c-0.6,0.1-1.2,0.3-1.8,0.6
				c-0.8,0.3-1.8,0.7-2.9,0.8c-0.5,0-1,0.2-1.5,0.3c-0.9,0.2-1.9,0.5-3,0.3l-0.7-0.1c-0.5-0.1-1-0.1-1.5-0.2l-0.1,0
				c-2.4-0.1-4.9-0.2-7.4-0.1c-0.9,0-1.7-0.1-2.3-0.3c-1-0.4-2.1-0.6-3.3-0.7c-0.7-0.1-1.4-0.2-2-0.3c-1.2-0.2-2.4-0.3-3.7-0.5
				c-0.6-0.1-1.2-0.1-1.9-0.2c-0.6-0.1-1.2-0.3-1.7-0.4c-0.7-0.2-1.1-0.3-1.5-0.2c-1.2,0.2-2.4,0.4-3.6,0.5l-0.3,0
				c-0.3,0-0.9,0.1-1.5-0.2c-0.6-0.3-1.3-0.4-2-0.2c-1.7,0.3-3.4,0.4-5.3,0.2c0.1,2.3,0.1,4.5,0,6.6c0,1.3-0.1,2.7-0.1,4.1
				c0,2.8,0,5.6-0.1,8.3c0,1.6-0.1,3.2-0.1,4.7c0,3,0,6.1,0.1,9c0,3.6,0.1,7.3,0,11c-0.1,5.8-0.3,11.3-0.6,16.5l-0.1,1.4
				c-0.3,5-0.5,10.1-1.1,15.1C81.6,341.6,81.5,342.3,81.5,343.1z"/>
			<path class="st3" d="M272.4,338.5c-0.8,0-1.4-0.3-1.7-0.8c-0.6-0.4-1.1-0.9-1.5-1.6c-0.3-0.2-0.7-0.5-0.8-1.1
				c-0.1-0.6-0.5-0.9-1.1-1.5c-0.3-0.3-0.6-0.5-0.9-0.9c-0.1-0.1-0.3-0.3-0.3-0.5c-0.9-1.3-1.6-2.1-2.7-2.6
				c-0.8-0.3-1.9-1.2-2.2-2.5l0-0.1c-0.5-0.2-0.9-0.5-1.1-0.7c-0.2-0.1-0.3-0.3-0.4-0.3c-1.3-0.5-1.7-1.5-2-2.3
				c-0.1-0.1-0.1-0.3-0.2-0.4c-0.3-0.3-0.4-0.6-0.5-0.9l0,0c-0.2-0.1-0.5-0.2-0.6-0.5c-0.5-0.9-1.4-1.5-2.4-2.1
				c-0.5-0.3-1-0.7-1.4-1c-0.3-0.2-0.5-0.5-0.8-0.7c-0.5-0.4-0.9-0.8-1.3-1c-0.5-0.2-0.9-0.6-1.1-1.1c-1-0.4-1.4-1.3-1.6-1.9
				c-0.2-0.3-0.4-0.7-0.4-1.1c-0.4-0.3-0.7-0.7-1-1.1l-0.1-0.2c-0.3-0.4-0.6-0.7-0.9-1.1c-0.5-0.5-1-1.1-1.5-1.7
				c-0.4-0.6-0.7-0.9-1.3-1.2c-0.1,0-0.2-0.1-0.3-0.1c-0.6-0.2-1.6-0.7-1.8-2c-0.1-0.7-0.5-1.2-1.6-1.6c-1.3-0.6-3.1-1.6-3.7-4
				c-0.2-0.7-0.4-0.9-0.6-1l-0.3-0.1l-0.7-0.9l0-0.2l-0.2-0.1l-0.4-2.7c-0.3-1.9-0.5-3.8-0.7-5.7c-0.1-1,0.2-2,0.8-2.8l1-1.3
				c0-0.1-0.1-0.2-0.1-0.3l0-0.2l0.1-0.2c0.2-1,0.6-1.8,1-2.5c0.2-0.4,0.5-0.9,0.6-1.3c0.1-0.2,0.2-0.7,0.8-0.9
				c0.5-0.2,0.9-0.7,1.4-1.2c0.5-0.5,1-1.1,1.7-1.6c0.2-0.1,0.4-0.4,0.5-0.7c0.2-0.3,0.5-0.7,0.8-1c1.2-1.3,2.5-2.8,3.5-4.5
				c1-1.8,2.6-2.9,4-3.8c0.3-0.2,0.5-0.4,0.6-0.7c0.2-0.4,0.5-1.1,1.3-1.4c0.9-0.4,1.4-0.9,1.7-1.7c0.2-0.7,0.8-1.1,1.2-1.3
				c0.1-0.1,0.3-0.2,0.4-0.3c0.2-1.3,0.8-2.3,1.4-3.3c0.4-0.7,0.8-1.3,1-1.9l0.1-0.2c0.3-0.8,0.4-1.1,0.2-1.6
				c-0.4-1.4,0.7-3,0.9-3.1c0.5-0.7,0.6-1.5,0.6-2.5c0.1-1.8,1.4-2.1,1.9-2.2c0.9-0.2,1.8-0.8,2.7-1.6c0.8-0.7,1.6-1.2,2.6-1.5
				c0.9-0.3,1.9-0.8,2.8-1.3c0.6-0.4,1.3-0.6,2.1-0.9c0.2-0.1,0.3-0.1,0.4-0.4c0.3-0.7,0.8-1.2,1.5-1.4c0.5-0.2,1.1-0.1,1.7,0.1
				c0.5-0.2,0.9-0.2,1.3-0.2c0.2,0,0.4,0,0.5,0c0.8-0.5,1.6-0.7,2.4-0.9c0.3-0.1,0.6-0.2,0.9-0.3c2.1-0.7,4.2-1.1,6.3-1.5l1.3-0.2
				c1.5-0.3,3.2-0.3,5.1,0c1.6,0.2,3.1,0.4,4.5,1.2c0.2,0.1,0.5,0.1,0.8,0c0.4,0,0.9,0,1.5,0.1l0.5,0.1c1.4,0.3,2.7,0.6,4.1,0.7
				c1.5,0.1,3.1,0.6,4.4,1.6c0.3,0.2,0.9,0.3,1.6,0.3c1.2-0.1,2.4,0.2,3.4,0.4c0.8,0.2,1.5,0.3,2.2,0.4c0.1,0,0.2,0,0.3,0
				c0.4,0,1.2-0.1,1.9,0.4l0.2,0l0.1,0c0.5,0,1.4-0.1,2.1,0.5c0.2,0,0.5,0.1,0.7,0.3c0.4,0.1,0.7,0.4,0.9,0.8
				c0.2,0.1,0.5,0.3,0.6,0.5c0.4,0.2,0.7,0.6,0.9,0.9c1,0.8,1.5,1.9,1.9,2.9c0.2,0.4,0.3,0.8,0.5,1.1c0.2,0.4,0.4,0.8,0.6,1.2
				c0.3,0.6,0.6,1.2,0.9,1.6c1.3,1.8,2.3,3.8,3.2,6.3c0,0,0,0,0,0c1.3,0.6,1.9,1.8,2.3,2.7c0.3,0.7,0.9,1.2,1.5,1.7
				c0.4,0.3,0.7,0.6,1,1c1.9,2,3.9,4,5.4,5.5c0.4,0.4,1.1,1.4,0.1,2.6c-0.5,0.6-0.7,1.3-0.9,2.2c-0.4,2.9-2,5-3.6,6.8
				c-0.8,0.9-1.6,1.6-2.4,2c0,0-0.1,0.1-0.2,0.4c-0.5,1.4-1.3,2.6-2,3.7c-0.4,0.7-0.8,1.3-1.2,1.9c-0.3,0.6-0.8,1.1-1.2,1.5
				c-0.3,0.3-0.5,0.5-0.7,0.8c-0.4,0.6-0.3,0.9,0.2,2l0.1,0.2c0.8,1.4,1.9,2.6,3.1,3.8c0.6,0.6,1.2,1.2,1.8,1.9
				c0.5,0.5,0.9,1.1,1.3,1.7c0.7,0.9,1.3,1.8,2.1,2.4c0.8,0.6,1.4,1.5,1.8,2.2c0.4,0.6,0.8,1.2,1.3,1.6c0.8,0.7,1.6,1.4,2.4,2
				c1.5,1.3,2.8,2.5,4.5,3.4c1,0.5,3.3,1.8,3.3,4.6l0,0c0,0,0,0.1,0.1,0.2c0.5,0.6,0.7,1.4,0.6,2.1l0,0c-0.1,0.8,0,1.6,0,2.5
				c0.1,0.8,0.1,1.7,0.1,2.6c-0.1,0.6-0.1,1.2-0.1,1.9c0,1.3-0.1,2.7-0.4,4.1c-0.3,1.4-0.6,2.8-0.2,4.1c0.2,0.8-0.1,1.3-0.2,1.5
				c-0.3,0.4-0.9,0.7-1.6,0.7c-3,0-5.9,0-8.9,0.1c-4.8,0.1-9.6,0.2-14.4,0.3c-2.7,0.1-5.3,0.2-8,0.3c-3,0.1-5.9,0.2-8.9,0.3
				c-8.3,0.2-17.3,0.6-28.4,1.3c-2.2,0.1-4.3,0.3-6.5,0.5C272.6,338.5,272.5,338.5,272.4,338.5z M271.5,335.1
				c0.1,0.2,0.4,0.4,0.7,0.6l0.5,0.3c2.1-0.2,4.3-0.3,6.4-0.5c11.1-0.7,20.2-1.1,28.5-1.3c3-0.1,5.9-0.2,8.9-0.3
				c2.7-0.1,5.3-0.2,8-0.3c4.8-0.1,9.6-0.2,14.4-0.3c2.7,0,5.4-0.1,8.2-0.1c-0.2-1.5,0.1-3,0.4-4.4c0.3-1.2,0.3-2.4,0.4-3.7
				c0-0.7,0-1.3,0.1-2c0.1-0.7,0-1.4-0.1-2.2c-0.1-1-0.1-2,0-3c0,0,0-0.2-0.2-0.3c-0.4-0.5-0.6-1.1-0.6-1.7c0-0.9-0.5-1.6-2-2.4
				c-1.9-1-3.4-2.4-4.9-3.7c-0.8-0.7-1.5-1.3-2.3-1.9c-0.8-0.6-1.3-1.4-1.8-2.1c-0.4-0.6-0.8-1.2-1.3-1.6c-1.1-0.8-1.8-1.9-2.6-2.9
				c-0.4-0.5-0.8-1-1.2-1.5c-0.5-0.6-1.1-1.2-1.7-1.8c-1.3-1.3-2.6-2.6-3.6-4.3l-0.1-0.2c-0.6-1.1-1.5-2.6-0.1-4.6
				c0.3-0.5,0.7-0.8,1-1.1c0.3-0.3,0.6-0.6,0.8-0.9c0.4-0.7,0.8-1.4,1.3-2.1c0.7-1.1,1.4-2.1,1.8-3.2c0.3-0.9,0.8-1.5,1.5-1.8
				c0.6-0.3,1.1-0.7,1.6-1.4c1.6-1.9,2.7-3.5,3-5.5c0.2-1.2,0.5-2.2,1.1-3.1c-1.5-1.5-3.3-3.3-5.1-5.2c-0.3-0.3-0.6-0.6-0.9-0.8
				c-0.8-0.7-1.6-1.4-2.1-2.6c-0.4-0.9-0.7-1.3-1.2-1.5c-0.8-0.3-1.1-1.1-1.2-1.4c-0.8-2.2-1.7-4.1-2.9-5.7c-0.5-0.6-0.8-1.3-1.1-2
				c-0.2-0.4-0.3-0.7-0.5-1.1c-0.3-0.5-0.5-0.9-0.7-1.4c-0.3-0.7-0.6-1.4-1-1.8l-0.2,0l-0.3-0.6c-0.1-0.2-0.1-0.2-0.2-0.2l-0.6-0.2
				l-0.1-0.3l-0.4-0.1l-0.2-0.4l-0.2,0l-0.2-0.3c0,0-0.1,0-0.1,0l-0.4-0.1l-0.3-0.3c0,0-0.3,0-0.4,0l-0.2,0l-1.4,0l-0.3-0.4
				c-0.1,0-0.1,0-0.2,0c-0.2,0-0.4,0-0.6,0c-1,0-1.9-0.2-2.7-0.4c-0.9-0.2-1.8-0.4-2.7-0.4c-0.9,0.1-2.1,0-3.1-0.7
				c-1-0.7-2.2-1.1-3.2-1.1c-1.6-0.1-3.1-0.4-4.6-0.7l-0.5-0.1c-0.2-0.1-0.5,0-0.8,0c-0.6,0-1.3,0.1-2.1-0.3
				c-1.1-0.6-2.3-0.7-3.6-0.9c-1.7-0.3-3.2-0.3-4.4,0l-1.3,0.2c-2.1,0.4-4,0.7-5.9,1.4c-0.4,0.1-0.8,0.2-1.2,0.3
				c-0.6,0.2-1.2,0.3-1.6,0.6c-0.6,0.4-1.3,0.4-1.8,0.4c-0.2,0-0.5,0-0.6,0.1c-0.3,0.2-0.8,0.5-1.6,0c-0.1-0.1-0.2-0.1-0.2-0.1
				c-0.3,0.6-0.8,1.5-2,1.8c-0.6,0.2-1.1,0.4-1.5,0.6c-1,0.5-2.1,1.2-3.3,1.5c-0.6,0.2-1.1,0.5-1.6,0.9c-1.2,1.1-2.4,1.8-3.7,2.1
				c0,0-0.1,0-0.1,0h0c-0.1,1.2-0.2,2.5-1.2,3.8c-0.3,0.4-0.4,0.8-0.4,1c0.4,1.2,0.1,2.2-0.3,3.1l-0.1,0.2c-0.3,0.9-0.8,1.6-1.2,2.4
				c-0.5,0.9-1,1.7-1.1,2.5c-0.2,1-0.9,1.6-1.4,1.9c-0.1,0.1-0.2,0.1-0.3,0.2c-0.5,1.4-1.4,2.4-2.9,3c0,0,0,0.1-0.1,0.2
				c-0.3,0.7-0.8,1.3-1.5,1.8c-1.2,0.8-2.5,1.7-3.2,3c-1,1.8-2.4,3.3-3.6,4.7l0,0.3l-0.2,0c0,0,0,0-0.1,0.1l-0.1-0.1l-0.2,0l0.2,0.2
				c-0.1,0.1-0.3,0.3-0.4,0.6c-0.3,0.5-0.7,1-1.3,1.4c-0.4,0.2-0.8,0.7-1.2,1.1c-0.5,0.6-1.1,1.2-1.9,1.6c-0.2,0.5-0.4,0.9-0.6,1.2
				c-0.3,0.5-0.6,1-0.7,1.6c0,0.1,0.1,0.2,0.1,0.3c0.3,0.7,0.7,1.8-0.1,3.1c-0.2,0.3-0.8,1.2-1.8,1.2c0,0,0,0,0,0
				c0.2,1.9,0.4,3.7,0.7,5.6l0.2,1.7c0.2,0.2,0.3,0.5,0.3,0.7c1,0.8,1.3,1.9,1.4,2.3c0.3,1.1,0.9,1.7,2.3,2.4c1.1,0.5,2.7,1.4,3,3.5
				c0,0,0.2,0.1,0.4,0.1c0.2,0.1,0.3,0.1,0.4,0.2c1,0.5,1.6,1.1,2.2,2c0.3,0.5,0.7,0.9,1.1,1.3c0.4,0.4,0.8,0.8,1.1,1.3l0.1,0.2
				c0.2,0.3,0.4,0.5,0.5,0.6c0.5,0.2,0.8,0.6,0.9,1.1c0.1,0.2,0.1,0.5,0.1,0.7l0.1,0.2c0.2,0.5,0.3,0.6,0.3,0.7l0.6,0l0.8,0.9l0,0.3
				c0.8,0.4,1.3,0.9,1.8,1.4c0.2,0.2,0.4,0.4,0.6,0.6c0.4,0.3,0.8,0.6,1.2,0.9c1,0.6,2,1.4,2.8,2.5l0.2,0.1l0.8,0.9
				c0.1,0.1,0.1,0.3,0.2,0.4l0.1,0.2c0.2,0.3,0.3,0.6,0.5,0.9c0.3,0.6,0.4,0.8,0.6,0.9c0.5,0.2,0.9,0.5,1.2,0.8
				c0.1,0.1,0.4,0.3,0.4,0.3h0l1-0.1l0.5,1.8c0.1,0.4,0.5,0.8,0.7,0.8c2,0.8,3.1,2.4,4,3.7l0.1,0.2c0.2,0.2,0.4,0.4,0.6,0.5
				c0.7,0.6,1.5,1.3,1.9,2.6c0.1,0,0.1,0.1,0.2,0.1l0.6,0.4L271.5,335.1z M258.9,248.7l1.2,0.2c0,0,0.1-0.1,0.1-0.2L258.9,248.7z"/>
			<path class="st3" d="M414.7,340.6c-1.1,0-2.2-0.1-3.3-0.2c-0.8-0.1-1.6-0.1-2.3-0.2c-3.3-0.1-6.6-0.3-9.8-0.5
				c-3.4-0.2-7-0.4-10.5-0.5c-5.6-0.2-11.2-0.3-16.6-0.4c-0.8,0-2.1-0.3-2.3-2.3c-0.1-0.8-0.1-1.7,0.2-2.6c0-0.3,0.1-0.6,0.3-0.9
				c0.1-0.6,0.2-1.3,0.3-2c0.1-1,0.3-2,0.5-3c0.3-1,0.2-2,0.2-3c0-0.9,0-1.9,0.2-2.9c0-0.3,0-0.6,0.1-0.9c-0.4-0.7-0.6-1.5-0.7-2.3
				c-0.1-0.8-0.4-1.3-1.1-1.8l-0.2-0.1c-0.4-0.2-0.9-0.6-1.3-1.3c-0.5-0.3-0.8-0.6-1.1-0.9c-0.1-0.1-0.2-0.2-0.4-0.3
				c-0.9-0.3-1.4-1.2-1.6-1.6c-0.2-0.4-0.4-0.6-0.7-0.9c-0.5-0.5-1.1-1.1-1.4-2c-0.5-0.3-0.7-0.7-0.8-1.1c-0.6-0.5-0.9-1.2-1.1-1.8
				c-1.2-0.7-2.1-1.7-2.7-3.1c-0.3-0.3-0.5-0.7-0.5-1.3c-0.3-0.3-0.4-0.7-0.4-0.9c-1.1-0.9-2.2-1.9-2.7-3.5c0-0.1-0.2-0.2-0.3-0.3
				c-0.1-0.1-0.2-0.2-0.3-0.3c-0.1-0.1-0.1-0.1-0.2-0.2c-0.4-0.4-1.1-1-1.2-2l-0.2-0.3c-1.2-1.4-1.5-3.3-0.6-4.5
				c0.2-0.3,0.4-0.6,0.6-0.8c0.5-0.8,1-1.7,2.2-2.3c0.2-0.1,0.5-0.6,0.7-1l0.1-0.2c0.3-0.6,0.7-1.2,1-1.7c0.5-0.7,0.9-1.4,1.2-2.2
				c0.6-1.6,1.8-2.4,3.1-3.1c1.4-0.8,2.5-2.1,3.2-3.9c0.2-0.6,0.4-1.2,0.6-1.8c0.2-0.7,0.4-1.5,0.8-2.3c0-0.1-0.1-0.2-0.1-0.2
				c-0.3-0.6-0.8-1.2-1.4-1.7c-0.5-0.5-1-1.1-1.4-1.7c-0.4-0.6-0.8-1.2-1.2-1.8l-0.3-0.5c-0.4-0.2-0.8-0.7-1-1.4
				c-0.7-0.2-1.5-0.7-1.6-2.2c0-0.2-0.2-0.4-0.4-0.8c-0.2-0.2-0.3-0.5-0.5-0.7c-0.7-1.2-1.1-2.7-1.3-4.3c0-0.6-0.3-1.1-0.6-1.6
				c-1.1-2.2-1.8-4.4-2-6.7c-0.1-0.7-1.3-1.8-2.1-1.9c-1.1-0.2-2.1-0.6-3-1l-0.4-0.1c-0.1,0-0.2-0.1-0.3-0.1
				c-0.9,0.8-1.8,0.3-1.9,0.2c-0.3-0.2-0.8-0.8-0.6-1.8c0.5-1.9,2.2-3.4,4.1-3.6c2.4-0.3,5-0.2,7.6,0c0.3,0,0.7,0.1,1.1,0.4
				c0.8,0.6,1.8,0.8,2.8,0.9c1.5,0.2,2.8,0.7,4.2,1.1c0.6,0.2,1.3,0.4,1.9,0.6c0.4,0.1,0.9,0.2,1.5,0.2c0.4,0,0.7,0.1,1.1,0.1
				c1.3,0.2,2.5,0.3,3.8,0.4l1,0.1c0.5,0,1.1,0.1,1.6,0.1c1.8,0.2,3.6,0.3,5.2-0.1c1-0.3,1.9-0.4,2.9-0.5c0.8-0.1,1.6-0.2,2.4-0.4
				c0.6-0.1,1.2-0.3,1.9-0.6c1.2-0.5,2.5-0.8,3.8-1.1c1.4-0.3,2.7-0.5,4.1-0.7l1.5-0.2c0.2,0,0.4,0,0.6,0l0.2,0
				c0.7-0.6,1.5-0.6,2-0.7l0.2,0c0.4,0,0.9-0.1,1.4-0.3c0.7-0.2,1.5-0.4,2.4-0.4l0.4-0.2c0.7-0.4,1.5-0.6,2.4-0.7
				c0.9-0.5,2-0.7,3.2-0.6c0.6,0,0.8,0,0.8-0.1c1.2-0.7,2.4-0.5,2.9-0.4c0.5,0.1,0.9,0.2,1.4,0.3c1.7,0.3,3.4,0.6,5,0.6
				c0.8,0,1.4,0.2,2.1,0.7c0.3,0.2,0.7,0.4,1.2,0.3h0c0.8-0.1,1.3,0.1,1.8,0.5c0.6,0.6,0.6,1.3,0.6,1.9c-0.1,2.2-0.4,4.3-0.7,6.4
				c-0.1,1.1-0.3,2.2-0.4,3.3c0,0.2,0,0.4,0,0.6c0,0.6-0.1,1.2-0.3,1.8l0,0.4c-0.1,2.5-0.5,5-0.8,7.4c-0.1,0.8-0.2,1.6-0.3,2.5
				c-0.5,4-0.9,8.2-1.3,12.1c-0.2,2-0.4,4-0.6,5.9c-0.1,1-0.2,2-0.3,3l-0.2,2l-0.3,3.4c-0.2,2.8-0.5,5.6-0.7,8.4
				c-0.2,2.8-0.5,5.7-0.8,8.5l-0.4,4.3l-2.2,27.8c0,0.7-0.4,1.8-2.1,1.8C415.2,340.6,414.9,340.6,414.7,340.6z M372.4,336.4
				c5.4,0.1,10.9,0.2,16.5,0.4c3.5,0.1,7.1,0.3,10.6,0.5c3.2,0.2,6.5,0.4,9.7,0.5c0.8,0,1.6,0.1,2.5,0.2c1.1,0.1,2.2,0.2,3.3,0.2
				l0.2-3.1l2.4-28.5c0.3-2.8,0.5-5.6,0.8-8.5c0.2-2.8,0.5-5.6,0.7-8.4l0.5-5.5c0.1-1,0.2-2,0.3-3c0.2-2,0.4-3.9,0.6-5.9
				c0.4-4,0.8-8.1,1.3-12.2c0.1-0.8,0.2-1.6,0.3-2.5c0.3-2.4,0.7-4.9,0.8-7.3l0.1-1c0.1-0.3,0.2-0.7,0.2-1.2c0-0.2,0-0.5,0.1-0.7
				c0.1-1.1,0.3-2.3,0.4-3.4c0.3-2,0.5-4,0.6-6c-0.9,0-1.8-0.3-2.5-0.8c-0.2-0.2-0.4-0.2-0.7-0.2c-1.9,0-3.7-0.4-5.4-0.7
				c-0.5-0.1-0.9-0.2-1.4-0.2c-0.6-0.1-0.9-0.1-1.3,0.1c-0.7,0.4-1.6,0.4-2.2,0.4c-0.8,0-1.5,0.1-2.1,0.4l-0.2,0.1l-0.3,0
				c-0.7,0.1-1.3,0.2-1.7,0.5l-0.2,0.1l-1,0.4l-0.3,0c-0.6-0.1-1.2,0.1-1.9,0.3c-0.5,0.1-1.1,0.3-1.7,0.3l-0.3,0
				c-0.2,0-0.5,0-0.5,0.1l-0.3,0.5l-1.5,0.1l-1.6,0.2c-1.3,0.2-2.7,0.4-4,0.7c-1.2,0.3-2.4,0.6-3.5,1c-0.8,0.3-1.6,0.5-2.2,0.7
				c-0.9,0.2-1.8,0.3-2.7,0.5c-0.9,0.1-1.8,0.2-2.6,0.5c-2.1,0.5-4.1,0.4-6.1,0.2c-0.5,0-1-0.1-1.5-0.1l-1-0.1
				c-1.3-0.1-2.7-0.2-4.1-0.4c-0.3-0.1-0.6-0.1-1-0.1c-0.6-0.1-1.2-0.1-1.9-0.3c-0.7-0.2-1.4-0.4-2-0.7c-1.3-0.4-2.5-0.8-3.7-1
				c-1.2-0.2-2.5-0.5-3.7-1.3c0,0-0.1,0-0.1,0c-2.4-0.3-4.8-0.3-7.1,0c-0.4,0-0.8,0.2-1.1,0.4c0.1,0,0.3,0.1,0.4,0.1l0.4,0.1
				c0.9,0.4,1.7,0.7,2.6,0.9c1.8,0.4,3.9,2.2,4.1,4.1c0.2,2,0.8,3.9,1.7,5.8c0.4,0.7,0.7,1.5,0.8,2.5c0.1,1.2,0.4,2.3,1,3.2
				c0.1,0.2,0.2,0.3,0.3,0.5c0.4,0.5,0.9,1.1,0.9,2.1c0.8,0.2,1.3,1,1.5,1.6l0.3,0.1l0.8,1.1c0.4,0.6,0.8,1.2,1.3,1.9
				c0.3,0.5,0.7,0.9,1.2,1.4c0.6,0.6,1.3,1.4,1.8,2.3c0.2,0.4,0.6,1.2,0.2,2.2c-0.3,0.7-0.5,1.4-0.7,2.1c-0.2,0.7-0.4,1.4-0.7,2
				c-0.9,2.4-2.4,4.1-4.3,5.2c-1,0.5-1.7,1-2,1.8c-0.4,1-0.9,1.8-1.4,2.6c-0.3,0.5-0.7,1-0.9,1.5l-0.1,0.2c-0.3,0.7-0.8,1.6-1.8,2.1
				c-0.5,0.2-0.8,0.7-1.2,1.4c-0.2,0.4-0.4,0.7-0.7,1.1c-0.1,0.1,0,0.9,0.5,1.4l0.1,0.2l0.7,1.1l0,0.4c0,0.1,0.2,0.3,0.4,0.4
				c0.1,0.1,0.2,0.2,0.3,0.3c0.1,0.1,0.1,0.1,0.2,0.2c0.3,0.3,0.7,0.7,1,1.3c0.4,1,1.2,1.8,2.2,2.6l0.4,0.3l0.1,0.5
				c0,0.1,0,0.2,0.1,0.3c0,0,0,0,0,0l0.2,0.1l0.4,1.2l0,0l0.1,0.1l0.1,0.2c0.4,1.1,1.1,1.9,2.1,2.3l0.3,0.2l0.2,0.4l0,0
				c0.2,0.2,0.4,0.4,0.5,0.7c0.2,0.3,0.3,0.6,0.5,1c0.1,0.1,0.1,0.3,0.2,0.4c0.1,0.1,0.2,0.1,0.2,0.2L365,308l0.1,0.2l0.4,0.2
				l0.2,0.8c0.1,0.4,0.4,0.7,0.8,1.1c0.4,0.4,0.8,0.8,1.1,1.4l0.1,0.1c0.1,0.1,0.2,0.4,0.3,0.5l0.6,0.1l0.2,0.3
				c0.2,0.2,0.3,0.3,0.5,0.5c0.3,0.3,0.6,0.5,0.8,0.6l0.2,0.1l0.6,0.3l0,0.7c0,0,0.2,0.1,0.3,0.2c0.1,0.1,0.2,0.1,0.3,0.2
				c1.2,0.8,1.9,2,2.1,3.5c0.1,0.7,0.3,1.3,0.6,1.7l0.2,0.4l-0.1,1.1l-0.2,0.3l0,0.2l0,0.1c-0.2,0.8-0.2,1.7-0.1,2.6
				c0,1.2,0,2.4-0.3,3.7c-0.2,0.8-0.4,1.7-0.5,2.7c-0.1,0.8-0.2,1.7-0.4,2.5l-0.1,0.5l-0.2,0.2C372.3,335.2,372.4,335.8,372.4,336.4
				C372.4,336.4,372.4,336.4,372.4,336.4z M346.9,243.4l1.2,0.3c0,0,0-0.1,0-0.2L346.9,243.4z M424.7,240.9c0,0,0.1,0,0.1,0
				l-0.3-1.2L424.7,240.9z"/>
			<path class="st3" d="M89.9,250.2c-0.6,0-1-0.1-1.4-0.4c-0.7-0.6-0.8-1.4-0.9-2.8c-0.1-1.3-0.2-2.5-0.3-3.8c-0.1-1-0.2-2-0.3-3
				c0-0.3,0-0.5,0-0.7c-0.1-2-0.1-4.2-0.1-6.1c-0.7-5-1.2-10.1-1.7-15.1c-0.4-4.2-0.9-8.6-1.4-12.9c-0.5-4-0.9-8.1-1.3-12.1
				c-0.2-1.8-0.3-3.5-0.5-5.3c-0.1-0.4,0-0.7,0-0.9c-0.3-1.2-0.4-2.5-0.4-3.6c0-0.3,0-0.7,0-1l0-0.1c-0.4-1.3-0.5-2.7-0.6-4
				c0-0.5-0.1-1-0.1-1.4c-0.1-1.1-0.2-2.3-0.3-3.4c-0.1-1.2-0.2-2.5-0.3-3.7c-0.6-5-1.2-10.1-1.7-15l-0.5-5.3
				c-0.5-4.7-1-9.6-1.4-14.4l-0.1-1.1c-0.1-1-0.2-2.1-0.2-3.2c0,0,0-0.1,0-0.1l0-2.5l1.2,0.9c0.3-0.1,0.5-0.1,0.7-0.1l5.4-0.5
				c2.6-0.2,5.2-0.5,7.8-0.7l1.6-0.2c4.4-0.4,8.8-0.8,13.3-1.2c4.4-0.4,8.7-0.9,13.1-1.3l8.1-0.8c2.5-0.2,5-0.5,7.6-0.7l0.3,0
				c0.5-0.1,1.1-0.1,1.7,0c0.4-0.1,0.8-0.1,1.2,0.1l0.3,0c0,0,0.1,0,0.1,0c0.4-0.1,1-0.2,1.7,0l0.8-0.1l0.1,0.7l1.9,1.4l-1.9,0.3
				c-0.4,1.2-1.4,1.6-2,1.8c-0.1,0-0.2,0.1-0.3,0.1c-0.5,1-1.2,2-2,3.1c-0.6,0.8-1.2,1.6-1.4,2.7c-0.1,0.9-0.8,1.6-1,1.9l-0.2,0.2
				c-0.6,0.6-1.2,1.1-1.3,1.8c-0.2,0.9-1,1.6-2,1.7c-0.1,0-0.1,0-0.1,0c0,0-0.1,0.1-0.1,0.6c0,1.4-0.1,2.8-0.2,4.1
				c-0.1,1-0.2,2-0.2,3c0,2.6,0.3,4.7,1.1,6.4c0.4,0.8,0.5,1.7,0.7,2.5c0,0.2,0.1,0.4,0.1,0.6c0.2,0.9,0.7,1.8,1.1,2.8l0.2,0.3
				c0.1,0.3,0.2,0.5,0.3,0.8c0,0.1,0.1,0.3,0.1,0.4c0.1,0.2,0.2,0.4,0.3,0.6c0.4,0.9,0.8,1.6,1.4,2.1c0.7,0.6,1.1,1.4,1.5,2
				c0.1,0.3,0.3,0.6,0.5,0.8c0.8,1.2,1.5,2.3,2.1,3.6c0.4,0.9,1.1,1.9,2.2,2.9c0.3,0.3,0.5,0.5,0.6,0.8c0.2,0.3,0.3,0.4,0.4,0.5
				c0.8,0.2,1.2,1.1,1.1,1.8c-0.1,0.5,0.1,1,0.4,1.7c0.2,0.4,0.3,0.7,0.4,1.2c0,0,0,0,0.1,0.1l0.1,0.1c0.7,0.8,1.6,1.8,1.4,3.3
				c0,0.1,0.1,0.2,0.3,0.6c0.7,1,1,2.2,0.8,3.5c-0.1,0.5,0.2,0.9,0.6,1.6c0.5,0.8,0.9,1.6,1.1,2.3c0.3,1.2,0.7,2.1,1.5,2.6
				c1.1,0.7,1.2,1.8,1.3,2.5c0,0.3,0.1,0.5,0.1,0.7c0.1,0.2,0.1,0.4,0.2,0.6c0,0.1,0.1,0.3,0.1,0.4c0.5,0.8,0.6,1.7,0,2.4
				c-0.1,0.1,0,0.2,0,0.3c0.9,1.9,1,3.8,1,5.7l0,0.2c0,0.4,0,1,0.2,1.1c0.8,0.9,1.2,2,1.5,2.9c0.1,0.3,0.2,0.6,0.3,0.9
				c0.7,1.8,1.5,3.2,2.4,4.5c0.5,0.7,0.8,1.5,1.1,2.3c0.1,0.2,0.2,0.5,0.3,0.7c0.8,1.9,0.7,3.8,0.4,5.5c0.3,0.3,0.6,0.6,0.8,0.8
				c0.1,0.1,0.2,0.3,0.3,0.4c1.3,0.2,1.6,1.2,1.5,1.7c0,0.3-0.2,1.3-1.5,1.5c0,0-0.2,0.1-0.3,0.2c-0.2,0.2-0.5,0.4-0.9,0.6
				c-0.6,0.7-1.3,1-1.9,1.3c-0.3,0.2-0.7,0.3-0.9,0.5c-1,0.9-1.6,1.9-1.9,2.9l-0.3,0.9l-0.3,0l-0.2,1l-0.3,0.2l0,0.1l-0.2,0.3
				c-1.3,1.8-2.9,3.1-5.2,4.4c-1,0.5-2,0.9-3,1.3c-0.8,0.3-1.5,0.6-2.2,0.9l-0.1,0.1c-1.1,0.9-2.4,1.2-3.5,1.5
				c-0.6,0.2-1.1,0.3-1.6,0.5c-2,0.8-4.1,1.5-6.1,2.2l-1,0.4c-1.6,0.5-3.3,0.7-5.2,0.6c-0.7-0.1-1.4,0.1-2.2,0.2
				c-0.7,0.1-1.4,0.2-2.1,0.2c-0.8,0-1.7,0.1-2.5,0.3c-0.6,0.1-1.1,0.2-1.7,0.2c-1.1,0.1-2.3,0-3.6-0.2c-1.8-0.4-3.8-0.2-5.5,0
				c-0.2,0-0.3,0-0.5,0c-0.8,0.4-1.7,0.6-2.6,0.5c-2-0.2-4.1-0.2-6.5,0.2c-0.6,0.1-1.2,0-1.6-0.1c-0.3-0.1-0.6-0.1-0.9-0.1
				c-1.3,0.3-2.7,0.4-4,0.6l-1,0.1C90.8,250.1,90.3,250.2,89.9,250.2z M84.5,188.1c0.2,1.6,0.3,3.3,0.5,4.9c0.4,3.9,0.8,8,1.3,12
				c0.6,4.3,1,8.7,1.4,13c0.5,4.9,1,10.1,1.7,15.1l0,0.1l0,0.1c0,1.9-0.1,4,0.1,6.1l0,0.1l0,0.1c0,0.1,0,0.2,0,0.3l0,0.1
				c0.1,1,0.2,2,0.3,3c0.1,1.2,0.2,2.5,0.3,3.7c0,0.4,0.1,0.7,0.1,1c0.2,0,0.6-0.1,0.9-0.1l1.1-0.1c1.3-0.2,2.5-0.3,3.8-0.5
				c0.7-0.1,1.3,0,1.7,0c0.3,0.1,0.6,0.1,0.9,0.1c2.6-0.4,4.9-0.5,7.1-0.2c0.5,0.1,0.9,0,1.3-0.3l0.3-0.2l0.6,0c0,0,0.1,0,0.1,0
				c0.1,0,0.2,0,0.2,0c1.9-0.2,4.1-0.4,6.3,0.1c1,0.2,2,0.3,2.9,0.2c0.5-0.1,1-0.1,1.6-0.2c0.9-0.1,1.9-0.3,2.9-0.3
				c0.6,0,1.1-0.1,1.8-0.2c0.9-0.1,1.8-0.3,2.8-0.2c1.5,0.1,2.9,0,4.2-0.5l1.1-0.4c2-0.7,4-1.3,5.9-2.1c0.7-0.3,1.3-0.5,2-0.6
				c1.1-0.3,2-0.5,2.7-1.2l0.3-0.2l0.3-0.1c0.8-0.4,1.5-0.7,2.3-0.9c0.9-0.4,1.8-0.7,2.7-1.2c1.8-1,3.2-2,4.2-3.4
				c0-0.1,0.1-0.2,0.1-0.3c-0.4-0.6-0.4-1.1-0.2-1.5c0.2-0.5,0.6-1.2,1.8-1.2c0.5-1.1,1.2-2.1,2.2-3c0.5-0.5,1.1-0.7,1.6-0.9
				c0.6-0.2,0.9-0.4,1-0.7l0.3-0.6l0.7-0.1c0,0,0.1,0,0.1-0.1c-0.1-0.1-0.2-0.3-0.3-0.4c-0.1-0.1-0.3-0.3-0.3-0.4
				c-0.2,0-1.3-0.4-1-2c0.3-1.6,0.5-3.1-0.1-4.5c-0.1-0.3-0.2-0.5-0.3-0.8c-0.3-0.7-0.5-1.3-0.8-1.8c-1-1.4-1.8-3-2.6-5
				c-0.1-0.3-0.3-0.7-0.4-1c-0.3-0.8-0.5-1.5-1-2.1c-0.7-0.8-0.8-1.9-0.8-2.7l0-0.3c0-1.7-0.1-3.2-0.8-4.7c-0.4-0.9-0.4-1.8,0-2.6
				c-0.2-0.4-0.3-0.7-0.4-1c0-0.1-0.1-0.2-0.1-0.3c-0.2-0.4-0.2-0.9-0.3-1.2c-0.1-0.6-0.1-0.8-0.3-0.9c-1.5-1.1-2.1-2.6-2.4-4
				c-0.1-0.5-0.3-1-0.7-1.5c-0.5-0.9-1.2-1.9-1-3.3c0.1-0.7,0-1.3-0.3-1.7c-0.5-0.7-0.9-1.4-0.8-2.2c0.1-0.4-0.1-0.6-0.7-1.3
				l-0.1-0.1c-0.3-0.3-0.6-0.6-0.7-1.1c-0.1-0.3-0.2-0.6-0.4-1c-0.3-0.7-0.6-1.5-0.6-2.4c-0.5-0.3-0.8-0.8-1.1-1.1
				c-0.1-0.1-0.2-0.3-0.3-0.4c-1.3-1.3-2.2-2.5-2.8-3.7c-0.5-1.1-1.2-2.2-1.9-3.2c-0.3-0.4-0.4-0.7-0.6-1.1c-0.3-0.5-0.5-1-0.9-1.3
				c-1.1-0.9-1.6-2-2.1-3l-0.3-0.5c-0.2-0.3-0.2-0.6-0.3-0.8c0-0.1-0.1-0.3-0.1-0.4l-0.2-0.3c-0.5-1.1-1.1-2.2-1.3-3.4
				c-0.1-0.2-0.1-0.5-0.1-0.7c-0.1-0.7-0.3-1.4-0.5-2c-0.9-2.1-1.4-4.5-1.4-7.5c0-1.1,0.1-2.1,0.2-3.1c0.1-1.3,0.2-2.6,0.2-3.8
				c-0.1-2.4,1.4-3,2.2-3.1c0.4-1.3,1.2-2.2,2-2.9l0.2-0.2c0.2-0.2,0.3-0.4,0.3-0.5c0.2-1.7,1.1-2.9,1.9-3.9c0.8-1,1.4-1.9,1.8-2.9
				l0.1-0.3l0.2-0.1l-0.1,0l-0.6,0l-0.3-0.1c-0.2-0.1-0.5,0-0.8,0c-0.1,0-0.3,0-0.4,0c-2.5,0.2-5,0.5-7.5,0.7l-8.1,0.8
				c-4.4,0.4-8.7,0.9-13.1,1.3c-4.4,0.4-8.9,0.8-13.3,1.2l-1.6,0.2c-2.6,0.2-5.2,0.5-7.8,0.7l-4.4,0.4c0,0.2,0.1,0.4,0.1,0.5
				l-0.6,0.1c0,0.1,0,0.1,0,0.2l0.6-0.1l0.1,0.5l-0.6,0.1c0,0.3,0.1,0.7,0.1,1c0,0.4,0.1,0.8,0.1,1.2c0.4,4.8,0.9,9.6,1.4,14.3
				l0,0.4l1,0l0,0.6c0,0.5,0,0.9,0,1.4c0,0.5,0,1-0.1,1.5l-0.1,0.4l-0.4,0.3l-0.1-0.1l0.1,0.8c0.5,4.9,1,10,1.7,14.9
				c0.2,1.3,0.3,2.6,0.4,3.8c0.1,1.1,0.2,2.2,0.3,3.3c0.1,0.5,0.1,1,0.1,1.5c0.1,1.3,0.2,2.5,0.6,3.6l0.1,0.5c0,0.3,0,0.7,0,1
				c0.1,1.3,0.1,2.4,0.5,3.5l0.4,1.1L84.5,188.1z"/>
		</g>
	</g>
</g>
<g id="Hexagone">
	<path class="st4" d="M245.5,0L0,141.7v283.5l245.5,141.7L491,425.2V141.7L245.5,0z M474.2,415.5l-228.7,132l-228.7-132V151.4
		l228.7-132l228.7,132V415.5z"/>
</g>
<g id="Text">
	<text transform="matrix(1 0 0 1 103.5399 407.0137)"><tspan x="0" y="0" class="st2 st5 st6">rjd</tspan><tspan x="81.5" y="0" class="st1 st5 st6">3</tspan><tspan x="123.3" y="0" class="st2 st5 st6">bench</tspan></text>
	<g>
		<text transform="matrix(0.866 -0.5 0.5 0.866 249.544 534.809)" class="st3 st7 st8">github.com/rjdverse/rjd3bench</text>
	</g>
</g>
</svg>
