<?xml version="1.0" encoding="utf-8"?>
<!-- Generator: Adobe Illustrator 19.1.1, SVG Export Plug-In . SVG Version: 6.00 Build 0)  -->
<svg version="1.1" xmlns="http://www.w3.org/2000/svg" xmlns:xlink="http://www.w3.org/1999/xlink" x="0px" y="0px"
	 viewBox="0 0 491 566.9" style="enable-background:new 0 0 491 566.9;" xml:space="preserve">
<style type="text/css">
	.st0{fill:#048196;}
	.st1{fill:#173944;}
	.st2{fill:#FFFFFF;}
	.st3{fill:#A4DCE2;}
	.st4{fill:#F8BCCE;}
</style>
<g id="Background">
	<polygon class="st0" points="245.5,547.6 16.8,415.5 16.8,151.4 245.5,19.4 474.2,151.4 474.2,415.5 	"/>
</g>
<g id="Map">
</g>
<g id="Calque_5">
	<g>
		<g>
			<path class="st2" d="M404.7,221.1c-0.1-1.9-0.2-3.9-0.1-5.8c0.3-4.9,0.7-9.9,0.8-14.8c0.2-8.3,0.7-16.7,1.2-25
				c0.4-6,0.8-12,1.3-18.1c0.3-3.9,0.5-7.9,1.1-11.8c0.5-3,0.9-6,1.3-9c0.2-0.8-0.5-0.7-0.8-0.7c-2.9-0.3-5.8-0.6-8.7-0.9
				c-5.3-0.5-10.5-1.1-15.8-1.6c-4.7-0.4-9.5-1-14.2-1.4c-4.7-0.5-9.4-1-14.1-1.5c-5.6-0.6-8.9-3.2-12.2-1.3
				c-0.3,0.1-0.5,0.3-0.6,0.4c-1.3,1.1-2.6,2.2-4.3,2.4c0.3,1.5,0.8,2.9,0.7,4.4c0,0,0,0,0.1,0.1c0,0.3,0,0.7,0,1
				c0,0.9-0.3,1.7,0,2.6c0.8,0.1,0.4,0.5,0.2,0.9c-0.2,1.2-0.3,2.4,0,3.5c0.1,0.3,0,0.6-0.1,0.9c-0.7,2-0.7,4.1-0.4,6.1
				c0.4,2.3,0.7,4.6,0.2,7c0.1,2.2,1.6,3.7,2.6,5.5c0.4,0.7,1,1.1,1.4,1.8c0.1,0.1,0.1,0.1,0.3,0.1c0.2,0,0.4,0.1,0.5,0.3l0,0
				c0.5,0.1,0.8,0.3,0.8,0.8l0,0c0.3,0.2,0.7,0.3,0.6,0.8c0.1,0.1,0.1,0.1,0.2,0.2c0.2,0.1,0.4,0.3,0.3,0.6
				c-0.1,0.8-0.2,1.6-0.5,2.3c-0.4,1.5-0.5,3-0.1,4.6c0.3,1.2,0.5,2.6,0.6,3.8c0.1,1.9-0.1,3.8,0,5.6c0,0.8-0.6,1.3-0.5,2
				c0.1,1.2-0.1,2.3-0.5,3.3c-1.1,2.7-2,5.5-3,8.2c-0.4,1-0.2,2.2-0.7,3.2c0.2,1.5-0.7,2.9-0.2,4.3c0.1,0.2-0.1,0.5-0.2,0.7
				c-0.6,0.7-0.6,1.6-0.6,2.5c-0.1,1-0.1,1.9-0.4,2.8c-0.2,0.6-0.3,1.2,0,1.8c0.1,0.4,0.1,0.8,0,1.3c-0.3,1.1,0.6,2.6,1.6,2.7
				c1.7,0.2,2.9,1.4,4,2.5c0.6,0.6,1.2,1.1,2,1.4c0.7,0.3,1.4,0.4,2,0.9c1.3,1,2.6,2.1,3.9,3.1c1.1,0.8,1.9,2,3.5,2.1
				c1.5,0.1,2.9,0.4,4.3-0.1c1.7-0.5,3.4-0.1,5.1-0.7c1.1-0.4,2.3-0.5,3.4-0.9c0.1,0,0.1,0,0.1-0.1c0.1-0.2,0.3-0.2,0.5-0.2
				c0.1-0.1,0.2-0.1,0.3-0.2c0.2-0.3,0.4-0.4,0.8-0.2c0.2-0.1,0.4-0.1,0.6-0.2c0.9-0.6,1.9-0.6,3-0.3c0.1-0.1,0.3-0.1,0.4-0.2
				c0.5-0.1,1-0.3,1.6-0.3c0.2-0.1,0.3-0.2,0.5-0.3c0.3-0.4,0.8-0.2,1.2-0.2c0.1,0,0.2,0,0.3,0c1.4-0.6,3-0.6,4.4-1.1
				c1.3-0.5,2.6-0.6,3.9-1.1c0.6-0.3,1.4-0.3,2-0.4c1,0,2-0.4,2.9-0.6c0.2,0,0.2-0.2,0.4-0.3c0.8-0.4,1.7-0.4,1.7-0.1
				c0,0.1-0.3,0.3-0.3,0.5c0,0.2,0.3,0.3,0.6,0.3c1.3,0.2,2.7,0.7,4,0.5c0.7-0.1,1.3,0.2,1.9,0.4c1,0.4,1.9,0.5,3,0.3
				C404.7,222.1,404.7,221.6,404.7,221.1z"/>
			<path class="st2" d="M331.8,160.8c-0.4-0.6-0.5-1.3-0.4-2c0.1-1.1-0.1-2.1-0.6-3c-0.1-0.3-0.2-0.6-0.2-0.9c0.1-1.4-0.4-2.7-0.4-4
				c0-1.1-0.1-2.2,0.1-3.3c0.2-0.7,0-1.3-0.5-1.8c-0.6-0.7-1.3-1.3-2.1-1.7c-0.9-0.5-1.9-0.8-2.7-1.7c-0.6-0.7-1.3-1.5-2-2.2
				c-0.6-0.5-1-1.5-0.9-2.4c0.1-0.7,0.1-1.4,0.1-2.1c-0.1-1.2-0.1-2.5-0.5-3.5c-0.5-1-0.7-2-0.9-3.1c0-0.1,0-0.2,0-0.3
				c0.2-0.2,0.1-0.5,0.1-0.7c-0.1-1.3-0.1-2.6,0.3-3.8c0.1-0.2,0-0.5-0.2-0.8c-0.3-0.4-0.4-1-0.6-1.5c0.2-0.5,0.1-1,0-1.4
				c0-0.2,0-0.4,0-0.6c0-0.1-0.1-0.2-0.1-0.4c-0.4-0.9-0.4-1.8-0.3-2.8c0-0.5,0-0.9-0.4-1.3c0.1-0.4,0.2-0.7,0-1.1
				c0.1-0.2,0.1-0.5-0.1-0.7c0-0.1-0.1-0.2-0.1-0.3c0-0.3-0.2-0.5-0.3-0.8c-0.4-1.1-1.4-2-1.4-3.2c-0.1-1.1-0.7-1-1.3-1
				c-0.2,0-0.3,0-0.5,0c-3.4,0.1-6.9,0.2-10.3,0.2c-6.8,0.1-13.5,0.1-20.3,0.3c-1.1,0-2.3-0.2-3.4,0.2c0,0-0.1,0-0.1,0
				c-0.1,0-0.1,0-0.2,0.1c-0.4-0.3-0.8-0.2-1.2-0.2c-1.5,0-2.9,0-4.4,0c-4.5,0-9.1-0.5-13.6,0c-0.4,0-0.8-0.1-1,0.4
				c-0.4,0.5-0.6,1-0.5,1.6c0.1,0.8-0.2,1.6-0.5,2.3c-0.4,0.7-0.6,1.4-0.7,2.2c-0.2,0.8-0.4,1.7-0.7,2.5c-0.2,0.6-0.5,1.3-0.3,1.9
				c0.3,0.7,0.1,1.2-0.3,1.7c-0.1,0.2-0.3,0.4-0.3,0.6c0,1.2-0.4,2.2-0.8,3.2c-0.2,0.3-0.2,0.6-0.3,0.9c-0.2,1.4-0.1,2.9-0.6,4.3
				c-0.4,0.3-0.6,0.7-0.7,1.2c-0.4,1.1-0.1,2.2-0.3,3.3c-0.1,0.7-0.8,1.3-0.7,2.1c0,0.5-0.4,0.8-0.5,1.1c-0.4,0.9-1,1.8-0.8,2.9
				c0.2,1,0.2,2-0.2,2.9c-0.4,0.9-0.4,1.9-0.5,2.8c-0.3,2.8-0.7,5.5-1.3,8.2c-0.4,0.7,0,1.4,0,2c-0.1,0.3-0.2,0.6-0.3,0.8
				c0.2,0.7,0.4,1.4-0.1,2.1c0,0.1,0,0.2,0.1,0.3c-0.2,0.7,0.6,1.3,0,2c-0.1,0.1-0.1,0.2-0.2,0.3c0,0.3-0.1,0.5-0.4,0.6
				c0,0.2,0,0.5,0,0.7c-0.1,0.4-0.1,0.9-0.2,1.3c0.2,0.2,0.1,0.4-0.1,0.6c0,0.2-0.1,0.5-0.1,0.7c-0.2,0.2-0.3,0.4-0.2,0.7
				c0.6,0.3,0.9,0.7,0.2,1.2c-0.3,0.2-0.2,0.6-0.1,0.9c0.2,0.5,0.1,0.9-0.3,1.2c0,0.1,0,0.3,0,0.4c1.3,0.7,1.3,0.8,0.2,2.4
				c0,0.2,0,0.5,0,0.7c0.3,1.7,0.4,3.4,1,5.1c0.2,0.6-0.1,1.2,0.4,1.7c0,0.1,0.1,0.2,0.1,0.3c0.7,1.2,1.1,2.5,1.9,3.6
				c0.1,0.5,0.2,1.1,0.4,1.6c0.7,1.3,1.2,2.8,2.4,3.8c0.2,0.1,0.3,0.4,0.3,0.5c0,0.7,0.5,1,1,1.3c0.3,0.2,0.4,0.5,0.6,0.8
				c0.1,1.1,0.7,1.9,1.3,2.6c0.7,0.8,1.6,1.6,1.9,2.5c0.7,1.7,2.4,2.8,2.7,4.7c0,0.1,0.2,0.1,0.3,0.2c0.5,0.5,1.5,0.6,1.1,1.6
				c0,0.1,0.1,0.2,0.2,0.3c0.9,0.4,1.4,1.2,2,1.9c0.5,0.5,1,0.7,1.7,0.6c1.9-0.4,3.7-0.9,5.6-0.7c0.4,0.1,0.8,0,1.1-0.3
				c1.2-0.8,2.7-0.8,4.1-1.5c1.9-0.9,3.3-2.4,5-3.5c0.7-0.2,1.3-0.4,2-0.6c0.1,0,0.1,0,0.2,0c0.2,0.1,0.4,0,0.5-0.2
				c0.2-0.1,0.4-0.2,0.6-0.2c0.2,0.1,0.4,0,0.5-0.2c0.1,0,0.3-0.1,0.4-0.1c0.5-0.1,1.1,0.3,1.5-0.3c0,0,0.1,0,0.1-0.1
				c1.7-0.2,3.5-0.2,5.1,0.4l0,0c0.7,0.6,1.5,0.2,2.3,0.2c-0.1,0-0.2-0.1-0.3-0.1c0.1,0,0.2,0.1,0.3,0.1c0.1,0,0.1,0,0.2,0
				c0.4,0.4,0.8,0.6,1.4,0.6c-0.1-0.2-0.2-0.3-0.4-0.3c0.1,0.1,0.3,0.2,0.4,0.3c0.1,0,0.1,0,0.2,0c0.2,0,0.3,0.1,0.5,0.1
				c0.8,0,1.5,0.5,2.4,0.3c1.3,0.8,2.7,1.1,4.2,1.2c0.1,0,0.2,0.1,0.4,0.1c0.2,0.3,0.5,0.3,0.8,0.4c1.2,0.2,2.4,0.5,3.4,1.1
				c0.7,0.4,1.1,0.3,1.4-0.5c0.2-0.6,0.5-1.2,1-1.6c1-1,1.7-2.2,2.8-3.1c0.1-0.1,0.1-0.1,0.2-0.2c0.6-0.3,1.2-0.5,1.5-1.1
				c0.1,0,0.1,0,0.1-0.1c0.8-0.3,1.7-0.4,2.4-1l0,0c1.1-0.3,2.1-1,3.1-1.6c0.1,0,0.2,0,0.4-0.1c1.5,0.1,2.8-0.5,4.1-0.9
				c0.2-0.2,0.2-0.4,0.3-0.6c0.4-0.1,0.7-0.4,0.6-0.8c-0.3-1,0-1.9,0-2.9c0-0.1,0.1-0.2,0.1-0.3c0.1-0.2,0.4-0.4,0.2-0.5
				c-0.6-0.6-0.4-1.4-0.9-2c0.2-0.6,0.2-1.2-0.2-1.7c-0.2-0.3-0.2-0.7-0.2-1.1c0.1-0.7,0-1.4-0.2-2.1c-0.1-0.4-0.1-0.8,0-1.2
				c0.2-0.5,0.2-0.9-0.1-1.5c-0.2-0.5-0.3-1.2-0.2-1.8c0.2-1,0.6-2,0.8-3c0.2-0.1,0.2-0.3,0.2-0.5c0-0.1,0.1-0.2,0.1-0.4
				c0.4-0.5,0.1-1,0-1.5c0.1-0.5,0.5-0.9,0.6-1.4c0.8-2.8,1.4-5.6,1.6-8.5C332,161.8,332.1,161.3,331.8,160.8z M251.7,179
				c0,0-0.1-0.1-0.1-0.1c0,0,0,0,0.1-0.1c0,0,0,0,0,0.1C251.6,179,251.6,179,251.7,179z M251.6,178.8
				C251.6,178.8,251.6,178.8,251.6,178.8C251.6,178.8,251.6,178.8,251.6,178.8z M298.1,200.1c-0.1,0-0.3,0-0.4,0
				C297.8,200,297.9,200,298.1,200.1c0.1,0,0.2,0,0.3,0.1C298.3,200.1,298.2,200.1,298.1,200.1z"/>
			<path class="st2" d="M245.5,204.5c-0.1-0.1-0.1-0.3-0.2-0.4c-0.4-0.7-0.6-1.5-1.1-2.1c-0.9-1-1.7-2.3-3-2.9
				c-0.8-0.1-0.9-0.6-0.8-1.2c-1.6-3.2-2.4-3.8-2.9-3.7c-0.2,0.1-0.5,0.3-0.8,0.2c-0.4-0.1-0.7-0.5-0.6-0.8c0.1-0.3,0.5-0.2,0.6-0.6
				c0.1-0.3,0-0.6,0-0.8c-0.6-1.5-1.4-3.1-1.9-4.5c-0.2-0.7-0.2-0.9-0.5-1.4c-0.4-0.6-0.9-1-1.5-1.4c-1.2-0.6-1.7-1.8-2.6-2.7
				c-1.1-1.1-0.1-2.9-1.2-4.1c0.2-1.3-0.3-2.4-1.2-3.4c-0.3-0.3-0.4-0.6-0.5-1c-0.3-1.3,0-2.5,0-3.8c0-0.6,0.2-1.1-0.1-1.6
				c0.1-0.5,0.4-0.8,0.4-1.3c0.1-0.4,0.1-0.9,0.1-1.3c0-0.3,0-0.7,0-1c0,0-0.1,0-0.2-0.1c0.1,0,0.1,0.1,0.2,0.1
				c0.1-0.3,0.1-0.6-0.1-0.9c0.2-0.7,0.4-1.3,0.7-2c0.1-0.3,0.1-0.5,0.2-0.8c0.4-0.8,0.4-1.6,0.2-2.4c0-0.1-0.1-0.2-0.1-0.3
				c-0.3-0.5-0.6-1.1-1-1.6c0,0-0.1-0.1-0.1-0.1c-0.3-0.3-0.5-0.5-0.8-0.8c0-0.2-0.1-0.4-0.1-0.5c-0.2-0.1-0.3-0.1-0.4-0.3
				c0.1,0.1,0.2,0.2,0.4,0.3c-0.1-0.2-0.2-0.5-0.4-0.7c0,0,0,0.1,0,0.1c0,0,0-0.1,0-0.1c0-0.2,0-0.4,0-0.6c0.1-0.4,0.4-0.7,0.3-1.2
				c0.1-0.3,0-0.5-0.1-0.7l0-0.1c0,0,0-0.1,0-0.1c0-0.3-0.1-0.6-0.1-0.9c0.1-0.5,0.3-0.9,0.4-1.4l0-0.1l0-0.1c0-0.2,0-0.3,0-0.5
				c-0.1-2.8-0.6-5.6,0.7-8.2c0-0.1,0.1-0.2,0.1-0.3c0.2-0.1,0.2-0.3,0.2-0.5c0-0.1,0-0.2,0.1-0.4c0.3-0.5,0.5-1,0.1-1.7
				c-0.2-0.4-0.3-0.9,0.1-1.2c0,0,0.1,0,0.1-0.1c0.1-0.5,0.2-1,0.4-1.5c0.3-0.7,0.2-1.3-0.4-1.8c-0.2-0.2-0.4-0.4-0.4-0.8
				c0.3,0,0.3,0.3,0.6,0.3c0-0.3,0.1-0.6,0.1-0.9c0-0.3,0.1-0.6,0.3-0.8c0-0.2,0-0.4,0-0.5c-0.2-0.2-0.1-0.3,0.1-0.4
				c0.4-0.8,0.4-1.7,0.6-2.6c0.3-1.4,0.9-2.7,0.5-4.2c-0.1-0.2,0-0.4,0.1-0.6c0.4-1,0.4-2.1,0.5-3.2c0.3-0.7,0.1-1.4-0.1-2.1
				c-0.2-0.6-0.2-1.2,0-1.8c0.2-0.4,0.3-0.9,0.3-1.3c0-0.4,0.1-0.8,0.4-1.1c0.3-0.4,0.4-0.8,0.4-1.3c0-0.6,0-1.3,0-1.9
				c0-2.1,0-2.2-2.1-2c-6.3,0.6-12.7,1.2-19,1.7c-8.1,0.7-16.3,1.4-24.4,2c-3.2,0.3-6.4,0.5-9.6,0.7c-3.5,0.3-6.9,0.5-10.4,0.8
				c-1.4,0.1-3.1-0.5-3.9,1.4c0,0-0.1,0.1-0.2,0.1c-2,0.7-2.6,2.8-3.9,4.3c-0.4,0.5-0.6,1.3-1.2,1.7c-0.1,0.1-0.2,0.3-0.2,0.5
				c0,0.9-0.6,1.5-1.1,2.2c-0.2,0.3-0.5,0.5-0.5,0.8c-0.1,0.8-0.4,1.3-1.2,1.3c-0.3,0-0.5,0.3-0.5,0.6c0,0.5-0.2,1-0.4,1.5
				c0.4,0.9,0.1,1.7,0,2.6c-0.2,1.4-0.4,2.8-0.8,4.1c0.1,0.4,0.2,0.9,0.1,1.3c0.1,0.9,0.2,1.8,0.3,2.6c0.3,0.4,0.5,0.9,0.4,1.5
				c0,0.1,0,0.2,0,0.4c0.2,0.2,0.2,0.3,0.1,0.5c0,0.2,0.1,0.4,0.3,0.5c0.6,0.2,0.6,0.7,0.5,1.1c-0.1,0.8,0.1,1.5,0.5,2.2
				c0.5,0.9,0.8,2,1.1,3c0.1,0.8,0.5,1.6,0.8,2.3c0,0.3,0.2,0.6,0.4,0.8c0.8,0.9,1.6,1.7,2.4,2.6l0,0.1c0.3,0.1,0.3,0.3,0.2,0.6
				c0,0.2,0,0.4,0.2,0.5c0.5,0.4,0.9,0.9,0.8,1.5c0,0.3,0.1,0.5,0.1,0.8c1,0.3,1.4,1.2,1.9,2c0.6,1,1.2,2.1,1.8,3.1
				c0.3,0.5-0.2,0.6-0.3,0.9c0,0.1,0,0.3,0,0.4c0.5,0.4,0.5,1,0.4,1.7c0,0.1,0.1,0.2,0.1,0.3c0.1,0.5,0.4,0.9,0.8,1.3
				c0.3,0.4,0.7,0.7,0.7,1.3c0,1.7,0.6,3.2,1.9,4.4c0.1,0.2,0.1,0.4,0.2,0.6c0.4,0.9,0.9,1.9,1.3,2.8c0,0.1,0.1,0.2,0.1,0.4
				c0.2,0.7,0.5,1.3,1,1.8c0.3,0.3,0.5,0.7,0.5,1c0,1.4,0.3,2.8,0.7,4.1c0.4,1.3,0.9,2.6,1.4,3.8c0,0.4,0,0.8,0,1.1
				c0.1,0.2,0.2,0.4,0.2,0.5c0,0.4,0,0.9,0.1,1.3c-0.1,0.3,0.1,0.5,0.3,0.7c0.1,0.5,0,1,0.2,1.5c0,0.5,0,1,0.6,1.2
				c0.3,0.1,0.3,0.4,0.5,0.6c0.5,1.3,0.9,2.6,1.9,3.7c0.3,0.3,0.4,0.8,0.6,1.2c0.2,0.7,0.4,1.5,1.1,2c0,0.1,0.1,0.1,0.1,0.1
				c-0.1,0.5,0.4,0.8,0.5,1.2c-0.2,0.4-0.5,0.7-0.4,1.2c0,0.2,0,0.4,0,0.6c0,0.1,0,0.2,0,0.4c-0.1,0.2-0.1,0.4-0.1,0.6
				c-0.2,0.4-0.6,0.8,0.1,1.2c0.4,0.3,0.7,0.5,1.1,0.8c0,0.1,0,0.1,0.1,0.2c0.2,0.4,0.5,0.5,0.9,0.5c0,0,0.1,0.1,0.2,0
				c1.7,0.1,3.2-0.7,4.7-1.3c0.1,0,0.3,0,0.4,0c1.4,0.2,2.8,0.3,4.2,0.2c1.5-0.2,2.9-0.6,4.4,0.1c0.3,0.1,0.7,0.1,1,0.2
				c1.4,0.3,2.8,0.1,4.2,0.4c1.5,0.4,3,0.3,4.5,0.1c0.3,0,0.6-0.1,0.9,0.1c0.7,0.4,1.5,0.5,2.3,0.3c0.5-0.1,1,0,1.5,0.1
				c1.4,0.3,2.9,0.6,4.4,0.3c0.6-0.1,0.8-0.1,1.2,0c1,0.2,1.6,1,1.7,0.9c0.1-0.1-0.1-0.3,0-0.4c0.1-0.1,0.2-0.2,0.4-0.2
				c0.4-0.1,0.8-0.1,1.2,0.1c1,0.6,2.2,0.6,3.3,0.6c0.7,0,1.3,0,2,0.1c0.9,0,1.7,0.6,2.7,0.5c0.2,0.1,0.5,0.2,0.7,0.3
				c0.3,0.5,0.9,0.5,1.3,0.6l0,0c0.7,0.5,1.6,0.5,2.5,0.5c0.2,0.4,0.5,0.5,0.9,0.5c0.9-0.1,1.7-0.1,2.6,0c2.1,0.3,4.2,0.7,6.3,0.4
				c0.6-0.1,1.3-0.3,1.9,0c0.8,0.5,1.6-0.3,2.4,0c0.1,0,0.3-0.2,0.3-0.3c0.6-1.4,1.4-2.7,1.4-4.3
				C246.2,206.3,246.6,205.2,245.5,204.5z M226.6,141.5c0,0,0-0.1,0.1-0.1C226.6,141.4,226.6,141.5,226.6,141.5z M229.7,120.4
				L229.7,120.4L229.7,120.4L229.7,120.4z"/>
			<path class="st2" d="M230.6,330.3c-0.5-0.1-0.8-0.5-1.1-0.8c-0.5-0.6-1.1-1.1-1.5-1.8c-0.6-0.8-1.6-1.2-2-2.2c-0.4-1-1-1.6-1.9-2
				c-0.2-0.1-0.5-0.3-0.6-0.4c-0.2-0.7-0.8-1.2-1-1.8c-0.2-0.5-0.9-0.7-0.9-1.3c0-1.7-1.3-2.7-2.4-3.4c-1.3-0.9-2.3-2-3.5-3.1
				c-1.9-1.8-3-4.4-5.3-5.8c0,0,0,0-0.1-0.1c-1-1.1-2-2.3-2.7-3.6c-0.3-0.6-0.6-1.1-0.9-1.7c-1.1-2-3.4-3.1-3.9-5.5
				c0-0.1-0.2-0.2-0.2-0.3c-0.3-0.7-1.2-0.9-1.6-1.6c-1.1-1.8-1.9-3.7-2.2-5.8c-0.1-0.7,0.2-1.2,0.4-1.7c0.3-1.1,0.5-2.4,1.2-3.3
				c0.7-0.9,1.1-1.9,1.8-2.8c0.4-0.5,1-0.9,1-1.6c0-0.6,0.4-0.9,0.8-1.2c1-0.7,1.8-1.6,2.5-2.5c0.6-0.9,1.4-1.6,2.2-2
				c1.9-0.8,3.5-2.1,5.1-3.3c0.2-0.2,0.3-0.3,0.4-0.6c0.1-1.3,0.9-2.1,1.6-3.1c0.6-0.7,1.2-1.3,1.7-2.1c0.6-1,1.2-2,2.1-2.7
				c1.5-1.1,3-2.4,4.4-3.7c0.3-0.3,0.6-0.5,0.4-0.9c-0.4-0.7-0.1-1.1,0.3-1.7c0.6-0.9,0.3-2.2-0.5-2.7c-1-0.5-2-0.9-3.1-1
				c-0.2,0-0.5,0.1-0.7,0.1c-0.3,0.1-0.6,0-0.7-0.3c0-0.1,0-0.1-0.1-0.1c-0.6-1-1.6-0.9-2.5-0.8c-0.3,0.1-0.6,0.2-0.8-0.1
				c-0.3-0.5-0.8-0.4-1.3-0.4c-0.9,0.1-1.9,0.1-2.5-0.9c-0.1-0.3-0.3-0.3-0.6-0.3c-0.2-0.2-0.5-0.1-0.8-0.1c-0.9,0-1.9,0.1-2.7-0.1
				c-1.3-0.3-2.5-0.9-3.7-1.1c-0.8-0.1-1.6-0.3-2.2-0.8c-1.3-1.1-3-1.3-4.4-2.2c-0.1-0.1-0.3,0-0.4,0c-1.5,0.3-3-0.3-4.4-0.6
				c-1-0.2-2-0.3-3-0.2c-2,0.2-3.8-0.3-5.5-1.3c-0.4-0.3-0.9-0.5-1.4-0.5c-0.5,0-0.9-0.2-1.4-0.4c-0.9-0.4-1.9-1-2.8-0.9
				c-1.3,0.1-2.5,0.4-3.8,0.1c-0.5-0.1-1,0-1.5-0.2c-0.6-0.2-1.2-0.4-1.9-0.3c-0.6,0.1-1.3,0.1-1.8-0.4c-0.3-0.3-0.8-0.4-1.2-0.2
				c-0.7,0.2-1.4,0.2-2.2-0.1c-0.6-0.2-1.2-0.2-1.9,0.1c-0.4,0.2-0.9,0.4-1.2,0.1c-1.5-1-2.9,0.1-4.3,0.3c-0.2,0-0.3,0.2-0.4,0.3
				c-1.5,1.4-2.9,3-5.1,3.4c-0.1,0-0.2,0.1-0.2,0.2c-0.6,0.9-1.5,1.7-2,2.7c-0.9,2-2.7,3-4.6,3.9c-1.8,0.9-3.8,0.5-5.6,1.5
				c-1.1,0.7-2.7,1-4.2,0.6c-0.2,0-0.4,0.1-0.6,0.1c-1.4,0.2-2.7,1.1-4.2,1.2c-1.3,0.1-2.6,0.7-3.9,0.6c-0.7-0.1-1.4-0.2-2.1-0.2
				c-2.3-0.1-4.7-0.2-7-0.1c-0.5,0-1.1,0-1.6-0.2c-1.7-0.7-3.4-0.7-5.2-1c-1.7-0.3-3.5-0.4-5.2-0.6c-0.5,0-0.9-0.2-1.3-0.3
				c-0.6-0.2-1.3-0.4-2-0.2c-1.2,0.2-2.3,0.3-3.5,0.5c-0.3,0-0.5,0.1-0.8-0.1c-0.8-0.3-1.6-0.4-2.5-0.3c-1.6,0.3-3.3,0.3-4.9,0.1
				c-0.7-0.1-1,0.2-0.9,0.9c0.3,3.4-0.1,6.8,0,10.1c0,4-0.1,8-0.1,12c-0.1,6.1,0.2,12.3,0.1,18.4c-0.1,5.1-0.3,10.1-0.5,15.2
				c-0.3,5.1-0.5,10.1-1.1,15.2c-0.1,0.8-0.1,1.6-0.2,2.4c0,0.4,0,0.9,0.7,0.9c1.2,0,2.3,0.1,3.5,0.1c9.9,0.2,19.7,0.4,29.6,0.6
				c5.2,0.1,10.4,0.2,15.6,0.3c3.1,0.1,6.2,0.1,9.3,0.2c5.5,0.2,11.1,0.4,16.6,0.5c5.6,0.1,11.1,0.4,16.7,0.7
				c8.1,0.5,16.2,0.9,24.3,1.3c3.5,0.2,6.9,0.4,10.4,0.4c3.6,0.1,7.1,0.4,10.7-0.1c1.1-0.1,2.2-0.5,3.4-0.8c0.3-0.1,0.6-0.2,0.6-0.5
				C231.1,330.2,230.8,330.3,230.6,330.3z"/>
			<path class="st2" d="M337.4,303.7c0-0.4-0.1-0.8-0.4-1.1c-0.2-0.3-0.3-0.5-0.3-0.8c0-1.7-1.3-2.6-2.4-3.2
				c-2.5-1.3-4.3-3.4-6.5-5.1c-1.2-0.9-1.7-2.5-2.9-3.4c-1.3-1.1-2.2-2.6-3.3-3.9c-1.6-1.8-3.5-3.3-4.7-5.4c-0.5-1-1.1-1.9-0.2-3.2
				c0.5-0.7,1.3-1.2,1.7-2c0.9-1.7,2.2-3.2,2.9-5.1c0.1-0.4,0.4-0.8,0.8-1c0.8-0.4,1.4-0.9,1.9-1.6c1.4-1.7,2.7-3.4,3-5.7
				c0.1-1,0.4-1.9,1-2.6c0.2-0.3,0.3-0.5,0-0.8c-1.7-1.7-3.3-3.4-5-5.1c-0.9-0.9-2-1.6-2.5-2.8c-0.4-0.8-0.8-1.6-1.7-2
				c-0.2-0.1-0.3-0.3-0.4-0.6c-0.7-2-1.6-3.8-2.8-5.5c-0.6-0.8-1-1.8-1.5-2.7c-0.7-1.2-0.9-2.6-2.1-3.5c0,0,0,0,0,0
				c-0.2-0.3-0.4-0.6-0.8-0.7c-0.1-0.3-0.3-0.4-0.6-0.5c-0.1-0.3-0.2-0.5-0.6-0.5c-0.2-0.2-0.4-0.2-0.6-0.3c-0.4-0.5-1-0.4-1.6-0.4
				c-0.2,0-0.4,0-0.6,0c-0.4-0.6-1-0.3-1.5-0.3c-1.7,0-3.3-0.8-5.1-0.7c-0.7,0-1.5,0-2.2-0.4c-1.1-0.7-2.4-1.2-3.5-1.2
				c-1.6-0.1-3-0.4-4.5-0.8c-0.8-0.2-1.7,0.2-2.4-0.2c-1.2-0.6-2.5-0.8-3.8-1c-1.5-0.2-2.9-0.3-4.3,0c-2.3,0.4-4.6,0.8-6.8,1.5
				c-0.9,0.3-2,0.4-2.8,1c-0.7,0.4-1.6,0-2.3,0.5c0,0-0.1,0-0.2-0.1c-0.7-0.4-1.5-0.2-1.8,0.5c-0.2,0.5-0.5,0.9-1.1,1
				c-0.6,0.2-1.1,0.4-1.7,0.7c-0.9,0.5-1.8,1-2.8,1.3c-0.8,0.2-1.3,0.6-1.9,1.1c-0.8,0.8-1.9,1.4-3,1.7c-0.6,0.2-0.9,0.3-0.9,1
				c-0.1,1-0.1,2-0.8,2.9c-0.4,0.5-0.8,1.3-0.6,1.9c0.3,0.9,0,1.5-0.3,2.4c-0.6,1.7-1.9,2.9-2.2,4.7c-0.2,0.9-1.2,1-1.4,1.6
				c-0.4,1.2-1.1,1.8-2.2,2.2c-0.2,0.1-0.4,0.4-0.6,0.7c-0.2,0.5-0.5,0.8-0.9,1.1c-1.3,0.9-2.5,1.7-3.3,3.1c-0.9,1.6-2.1,3-3.4,4.4
				c0,0.2,0,0.4-0.1,0.6c0-0.2,0-0.4,0.1-0.6c-0.6,0.5-0.8,1.3-1.5,1.7c-1.2,0.7-1.7,2.1-3,2.6c0,0-0.1,0.1-0.1,0.2
				c-0.4,1.1-1.2,2.1-1.4,3.3c0.2,0.8,0.9,1.5,0.3,2.5c-0.5,0.8-0.9,0.8-1.3,0c-0.4,0.5-0.6,1.2-0.5,1.8c0.3,2.4,0.6,4.8,0.9,7.2
				c0.2,0.2,0.3,0.4,0.2,0.7c0.1,0.1,0.1,0.2,0.2,0.2c0.7,0.4,1,1,1.2,1.7c0.4,1.5,1.5,2.3,2.8,2.9c1,0.5,1.9,1.1,2.1,2.3
				c0.1,0.7,0.9,0.9,1.4,1.1c0.7,0.4,1.2,0.8,1.6,1.5c0.6,0.9,1.5,1.6,2.1,2.5c0.3,0.4,0.6,0.8,1,1c0.3,0.2,0.4,0.4,0.2,0.8
				c0,0.2,0.1,0.3,0.2,0.4c0.2,0.7,0.5,1.4,1.5,1.4l0,0.1c-0.1,0.4,0.2,0.7,0.4,0.8c0.9,0.4,1.5,1.2,2.3,1.7c1.3,1,2.8,1.7,3.7,3.2
				c0,0.1,0.2,0.1,0.3,0.1c0.1,0.2,0.3,0.3,0.4,0.5c0.1,0.2,0,0.5,0.3,0.6c0.5,0.8,0.6,1.8,1.6,2.2c0.7,0.3,1.1,1.1,1.9,1.1l0,0
				c0.1,0.3,0.2,0.5,0.2,0.8l0,0c0.2,0.7,0.8,1.3,1.3,1.5c1.5,0.6,2.3,1.8,3.2,3c0,0.1,0,0.1,0.1,0.1c0.8,0.9,2,1.4,2.2,2.8
				c0,0.2,0.3,0.3,0.5,0.4c0,0,0,0.1,0,0.1c0.3,0.6,0.7,1,1.3,1.3l0,0c0.1,0.5,0.5,0.4,0.9,0.4c2-0.2,4-0.3,6-0.4
				c8.7-0.5,17.5-1,26.2-1.2c5.2-0.1,10.3-0.3,15.5-0.5c4.4-0.1,8.8-0.2,13.2-0.3c2.7,0,5.5-0.1,8.2-0.1c0.4,0,0.7-0.1,0.6-0.6
				c-0.4-1.5-0.2-2.9,0.2-4.4c0.4-1.8,0.3-3.6,0.4-5.4C337.6,306.9,337.2,305.3,337.4,303.7z"/>
			<path class="st2" d="M407.1,231.4c-0.7,0.1-1.3-0.1-1.9-0.5c-0.4-0.3-0.8-0.4-1.3-0.4c-2.1,0-4.1-0.5-6.1-0.8
				c-0.6-0.1-1.3-0.2-1.9,0.2c-0.4,0.2-0.9,0.2-1.4,0.2c-0.9,0-1.8,0.1-2.5,0.5c-0.7,0.1-1.4,0.2-2.1,0.6c-0.2,0.1-0.5,0.2-0.7,0.3
				c-1.2-0.1-2.3,0.5-3.5,0.6c-0.6,0-1.2,0-1.6,0.6c-0.2,0-0.4,0-0.6,0l0,0c-0.2,0-0.3,0-0.5,0c-1.7,0.3-3.4,0.5-5.1,0.9
				c-1.1,0.2-2.3,0.6-3.4,1c-0.6,0.2-1.3,0.4-1.9,0.6c-1.6,0.4-3.3,0.4-4.8,0.8c-2.2,0.6-4.5,0.1-6.7,0c-1.5-0.1-3.1-0.2-4.6-0.4
				c-0.8-0.1-1.7-0.2-2.5-0.4c-1.8-0.5-3.6-1.3-5.5-1.6c-1.1-0.2-2.1-0.4-3.1-1.1c-0.1-0.1-0.3-0.1-0.5-0.1c-2.2-0.3-4.5-0.3-6.7,0
				c-1.3,0.1-2.5,1.1-2.8,2.4c0,0.2-0.1,0.4,0.1,0.5c0.1,0.1,0.3,0,0.4-0.1c0.5-0.4,0.9-0.3,1.4-0.1c1,0.4,1.9,0.8,2.9,1
				c1.2,0.2,2.8,1.6,2.9,2.8c0.2,2,0.8,3.9,1.7,5.7c0.3,0.6,0.6,1.2,0.6,1.9c0.1,1.2,0.4,2.4,1,3.5c0.4,0.6,1,1.1,1,1.9
				c0,0.4,0.1,1,0.8,1c0.3,0,0.5,0.4,0.6,0.7c0.1,0.3,0.3,0.6,0.6,0.7c0.5,0.8,1.1,1.6,1.6,2.4c0.8,1.2,2,2,2.6,3.3
				c0.2,0.4,0.3,0.7,0.2,1c-0.5,1.3-0.8,2.6-1.3,3.9c-0.7,1.7-1.8,3.2-3.5,4.2c-0.9,0.5-1.9,1.1-2.3,2.3c-0.5,1.4-1.5,2.4-2.1,3.7
				c-0.3,0.6-0.6,1.3-1.2,1.6c-1.1,0.5-1.4,1.7-2.1,2.5c-0.5,0.7-0.3,1.9,0.5,2.8c0.1,0.2,0.3,0.4,0.4,0.6c-0.1,0.8,0.5,1.1,0.9,1.6
				c0.3,0.3,0.7,0.5,0.8,1c0.5,1.3,1.4,2.1,2.4,2.9l0.1,0c0.1,0.3,0.1,0.7,0.4,0.9c0,0.2,0.1,0.3,0.1,0.5c0,0.2-0.1,0.5,0.2,0.6l0,0
				c0.5,1.3,1.3,2.2,2.5,2.8l0,0c0.1,0.7,0.4,1.4,1,1.8c-0.2-0.4-0.3-0.8-0.5-1.2c-0.1-0.1-0.2-0.3-0.3-0.4c0.1,0.1,0.2,0.3,0.3,0.4
				c0.2,0.4,0.4,0.8,0.5,1.2c0,0.1,0.1,0.2,0.1,0.3c0.1,0.1,0.3,0.1,0.4,0.2c-0.1-0.1-0.2-0.2-0.4-0.2c-0.1,0.4,0.3,0.5,0.5,0.6
				c0,0.1,0.1,0.2,0.1,0.3c0.3,1.1,1.3,1.5,1.8,2.5c0.2,0.4,0.5,1,1.1,1.1l0,0c0.6,0.5,1,1.1,1.8,1.4l0,0c0,0.7,0.6,0.9,1,1.2
				c0.8,0.6,1.3,1.3,1.4,2.4c0.1,0.7,0.3,1.5,0.8,2.1c0,0.1,0,0.2,0,0.3c-0.1,0.2-0.2,0.5-0.1,0.7c-0.4,1.9,0.1,3.8-0.4,5.7
				c-0.4,1.5-0.5,3.2-0.9,4.8c-0.1,0.1-0.2,0.3-0.2,0.4l0,0c-0.2,0.7-0.2,1.4-0.1,2.1c0,0.5,0.1,1.1,1,1.1
				c5.1,0.1,10.2,0.2,15.3,0.4c6.2,0.2,12.5,0.7,18.7,0.9c1.9,0.1,3.8,0.4,5.7,0.3c0.5,0,0.8-0.1,0.8-0.6c0.1-1.1,0.2-2.2,0.2-3.3
				c0.4-5,0.8-9.9,1.2-14.9c0-0.2,0.1-0.5,0.1-0.7c0.2-2.2,0.4-4.4,0.5-6.6c0-0.1,0-0.2,0-0.4v0c0.3-3.8,0.7-7.6,1-11.4
				c0.3-3.6,0.6-7.3,0.9-10.9c0-0.2,0-0.4,0-0.5c0.2-1.4,0.3-2.7,0.4-4.1c0.6-5.6,1-11.1,1.8-16.7c0.4-3,0.9-6,1-9.1
				c0-0.2,0-0.4,0.1-0.5c0.3-0.7,0.2-1.4,0.3-2.1c0.3-3,0.8-5.9,1-8.9C408,231.7,407.9,231.3,407.1,231.4z"/>
			<path class="st2" d="M164.3,219.2c-0.9-0.1-1.1-1.3-2-1.5c-0.2,0-0.1-0.3-0.1-0.5c0.3-1.6,0.5-3.2-0.2-4.8
				c-0.4-0.9-0.7-1.8-1.2-2.6c-0.9-1.4-1.7-2.8-2.3-4.4c-0.4-1.1-0.7-2.3-1.5-3.2c-0.4-0.5-0.4-1.1-0.4-1.8c0-1.7-0.1-3.4-0.8-5
				c-0.2-0.4-0.3-1,0-1.4c0.2-0.3,0.2-0.6,0-0.9c-0.2-0.3-0.3-0.8-0.4-1.1c-0.3-0.8-0.1-1.8-1-2.4c-1.1-0.7-1.5-1.9-1.8-3.1
				c-0.2-0.6-0.5-1.2-0.8-1.7c-0.4-0.7-0.9-1.4-0.7-2.3c0.1-0.8,0-1.7-0.5-2.4c-0.3-0.4-0.6-0.9-0.5-1.2c0.2-1-0.4-1.6-1-2.2
				c-0.1-0.2-0.3-0.3-0.4-0.5c-0.3-1.1-1-2-0.9-3.2c0-0.1-0.1-0.4-0.2-0.4c-0.8-0.2-1-1-1.5-1.4c-0.9-0.9-1.8-1.9-2.3-3
				c-0.5-1.1-1.2-2.2-1.9-3.1c-0.5-0.8-0.9-1.8-1.6-2.4c-1-0.8-1.4-1.8-1.9-2.9c-0.2-0.4-0.2-0.8-0.4-1.1c-0.5-1-1-2.1-1.3-3.1
				c-0.2-0.9-0.3-1.8-0.7-2.7c-0.9-2.1-1.2-4.3-1.1-6.4c0-2.1,0.4-4.3,0.3-6.5c0-0.7,0.1-1.6,1.1-1.7c0.4-0.1,0.8-0.4,0.9-0.7
				c0.3-1.1,1-1.7,1.7-2.4c0.3-0.3,0.6-0.7,0.6-1.1c0.2-1.2,0.8-2.2,1.5-3.1c0.7-0.9,1.4-1.9,1.8-2.9c0.6-0.5,1.7-0.4,1.9-1.4
				c0-0.2,0-0.3-0.1-0.5c-0.3,0.1-0.7,0.1-1,0.1c0.3,0.1,0.7,0,1-0.1c-0.4-0.3-0.9-0.1-1.3,0c-0.2,0-0.5,0-0.7,0
				c-0.2-0.2-0.4-0.2-0.6,0c-0.1,0-0.2,0-0.3,0c-0.6-0.3-1.1-0.1-1.7-0.1c-2.5,0.2-5.1,0.5-7.6,0.7c-6.3,0.6-12.5,1.3-18.8,1.9
				c-4.6,0.4-9.2,0.9-13.7,1.3c-4,0.4-8.1,0.7-12.1,1.1c-0.3,0-0.7-0.1-0.7,0.5c0.4,0.3,0.6,0.8,0.6,1.2c-0.1-0.5-0.2-0.9-0.6-1.2
				c0,1.3,0.2,2.6,0.3,3.9c0.4,5,0.9,10,1.5,14.9c0.6,5.6,1.1,11.3,1.8,16.9c0.3,2.2,0.3,4.4,0.6,6.6c0.2,1.6,0.2,3.3,0.7,4.9
				c0,0.1,0,0.1,0,0.2c0.1,1.5,0,3,0.6,4.5c-0.3,0.1-0.2,0.4-0.1,0.6c0.6,5.3,1,10.6,1.7,15.9c1.1,8.6,1.7,17.3,2.9,25.9
				c0,1.9-0.1,3.8,0.1,5.7c0,0.2-0.1,0.4-0.1,0.5c0.2,2.1,0.4,4.2,0.6,6.2c0.2,2.1,0.2,2.1,2.2,1.8c1.5-0.2,3-0.3,4.5-0.6
				c0.8-0.2,1.5,0.2,2.4,0.1c2.1-0.3,4.2-0.4,6.3-0.2c0.7,0.1,1.4-0.1,2-0.5l0,0c0.2,0,0.4,0,0.6,0c1.8-0.2,3.6-0.4,5.4,0
				c1,0.2,2,0.3,3,0.2c1.3-0.1,2.6-0.4,4-0.4c1.4,0,2.7-0.5,4.1-0.3c1.5,0.1,2.9,0,4.3-0.5c2.2-0.7,4.4-1.4,6.5-2.3
				c1.5-0.6,3.3-0.7,4.6-1.8c0,0,0.1,0,0.2-0.1c1.5-0.7,3.2-1.2,4.7-2c1.7-0.9,3.2-2.1,4.4-3.7c0-0.3,0.2-0.5,0.5-0.7
				c0-0.1,0.1-0.2,0.1-0.3c-0.3-0.2-0.8-0.3-0.7-0.7c0.2-0.7,0.8-0.3,1.3-0.3c0.4-1.3,1.1-2.3,2.1-3.2c0.8-0.7,2-0.7,2.6-1.8
				c0.6-0.1,1-0.7,1.6-0.8c0.2,0,0.4-0.1,0.5-0.4C164.8,219.3,164.5,219.2,164.3,219.2z M89.7,151.5L89.7,151.5
				C89.7,151.5,89.7,151.5,89.7,151.5c0.2-1,0-2,0-3C89.7,149.5,89.9,150.5,89.7,151.5z M87.9,133.1c0-0.2,0-0.3-0.1-0.5
				C87.9,132.7,87.9,132.9,87.9,133.1z"/>
		</g>
	</g>
	<g>
		<path class="st0" d="M374.2,205.4c-0.2,3-2.8,5.2-5.8,5c-2.9-0.2-5.1-2.8-4.9-5.8c0.2-3,2.8-5.2,5.8-5
			C372.2,199.8,374.4,202.4,374.2,205.4z"/>
		<ellipse class="st0" cx="282.9" cy="158.4" rx="5.4" ry="5.4"/>
		
			<ellipse transform="matrix(0.9959 -9.070457e-002 9.070457e-002 0.9959 -10.5786 19.3861)" class="st0" cx="208" cy="126.1" rx="5.4" ry="5.4"/>
		
			<ellipse transform="matrix(0.9959 -9.070457e-002 9.070457e-002 0.9959 -16.3144 18.327)" class="st0" cx="193.5" cy="188.7" rx="5.4" ry="5.4"/>
		<path class="st0" d="M115.6,193.5c0.3,3-1.8,5.6-4.8,5.9c-2.9,0.3-5.6-1.9-5.9-4.9c-0.3-3,1.8-5.6,4.8-5.9
			C112.7,188.4,115.3,190.6,115.6,193.5z"/>
		<path class="st0" d="M136.7,285.8c-0.1,3-2.6,5.3-5.6,5.2c-3-0.1-5.2-2.7-5.1-5.6c0.1-3,2.6-5.3,5.6-5.2
			C134.5,280.3,136.8,282.8,136.7,285.8z"/>
		<ellipse class="st0" cx="280.6" cy="273.4" rx="5.4" ry="5.4"/>
		<path class="st0" d="M376.6,270.1c-0.2,3-2.7,5.2-5.7,5.1c-3-0.2-5.2-2.7-5-5.7c0.2-3,2.7-5.2,5.7-5.1S376.7,267.1,376.6,270.1z"
			/>
		<g>
			<path class="st0" d="M408.4,149.5l-12.6,4.5l-0.5,0.2l-27.6,50.3l-0.8,22.9c0.1,0,0.3-0.1,0.4-0.1c0.7-0.2,1.5-0.4,2.2-0.6
				l0.8-21.5l26.8-48.9l11-3.9C408.3,151.4,408.3,150.4,408.4,149.5z"/>
			<path class="st0" d="M366.4,228.1l0.9-23.8l0.1-0.1l27.7-50.5l14.1-5l-0.1,0.9c-0.1,0.9-0.2,1.9-0.2,2.8l0,0.4l-11.2,4L371,205.3
				l-0.8,21.8l-0.8,0.2c-0.6,0.1-1.2,0.3-1.8,0.5c-0.1,0-0.3,0.1-0.4,0.1L366.4,228.1z M368.4,204.6l-0.8,21.9
				c0.5-0.1,0.9-0.2,1.4-0.3l0.8-21.2l0.1-0.1l26.9-49.1l10.9-3.9c0-0.5,0.1-1,0.1-1.5l-11.9,4.2L368.4,204.6z"/>
		</g>
		<g>
			<path class="st0" d="M284.1,158.3l-0.1-0.6l-29.4-20.4c-0.1,0.2-0.3,0.4-0.4,0.6c-0.3,0.6-0.6,1.1-0.7,1.7l28.1,19.4l4,42.1
				c0.6-0.2,1.2-0.4,1.8-0.5c0.1,0,0.1,0,0.2,0c0.2,0.1,0.3,0,0.5-0.1L284.1,158.3z"/>
			<path class="st0" d="M285.1,202l-4.1-42.5L252.9,140l0.1-0.4c0.1-0.5,0.3-1,0.6-1.4c0.1-0.2,0.1-0.3,0.2-0.5
				c0.1-0.2,0.2-0.3,0.3-0.5c0-0.1,0.1-0.1,0.1-0.2l0.3-0.6l30.2,20.9l4.2,43.4l-0.2,0.2c-0.3,0.3-0.6,0.3-0.9,0.3h0L285.1,202z
				 M254.3,139.5l27.9,19.3l4,41.6l1.3-0.4l-4-42l-28.6-19.8c0,0,0,0,0,0c-0.1,0.2-0.1,0.3-0.2,0.5
				C254.5,139,254.4,139.2,254.3,139.5z"/>
		</g>
		<g>
			<path class="st0" d="M207.1,123.9l-14.2,64.3l-10.1,19.2c1-0.3,2-0.7,3-1.2c0.1,0,0.3,0,0.4,0c0.1,0,0.1,0,0.2,0l8.9-17l0.1-0.2
				l1.8-8.4c0,0,0,0,0,0c0,0,0,0,0,0l11.7-52.9l19.1,10.8c0-0.2-0.1-0.4-0.2-0.5c-0.2-0.4-0.3-0.9,0.1-1.2c0,0,0.1,0,0.1-0.1
				c0.1-0.3,0.1-0.7,0.2-1L207.1,123.9z M196.6,180.5c0.1-0.1,0.1-0.1,0.1-0.2l0,0C196.7,180.3,196.7,180.4,196.6,180.5z"/>
			<path class="st0" d="M181.7,208.4l10.7-20.4l14.3-65l22.2,12.5l-0.1,0.4c0,0.2-0.1,0.3-0.1,0.5c0,0.2-0.1,0.3-0.1,0.5l-0.1,0.3
				l-0.2,0.1c-0.1,0.1-0.1,0.2,0,0.4c0.1,0.3,0.2,0.5,0.3,0.8l0.2,1.2l-19.5-11l-13.4,60.6l-0.1,0.2l-9.1,17.4l-0.6,0l-0.1,0
				c-0.2,0.1-0.5,0.2-0.7,0.3c-0.7,0.3-1.5,0.6-2.3,0.9L181.7,208.4z M207.5,124.8l-14.1,63.7l-9.4,17.9c0.2-0.1,0.5-0.2,0.7-0.3
				c0.3-0.1,0.5-0.2,0.8-0.3l0.4-0.1l8.8-16.8l1.9-8.4l-0.2-0.2l0.3,0l11.8-53.3l18.6,10.5c0-0.3,0.2-0.7,0.4-0.9
				c0-0.1,0-0.2,0.1-0.3c0,0,0-0.1,0-0.1L207.5,124.8z"/>
		</g>
		<g>
			<path class="st0" d="M111.4,193.4l-0.1-0.2l-19.9-19.8c0,0,0,0.1,0,0.1c0.2,1.3,0.2,2.7,0.5,4l17.3,17.2l19.2,43.7
				c0.9,0,1.8-0.2,2.7-0.3L111.4,193.4z"/>
			<path class="st0" d="M128,239l-0.2-0.4L108.7,195l-17.3-17.2l0-0.2c-0.2-0.9-0.3-1.8-0.3-2.7c0-0.4-0.1-0.9-0.1-1.3l-0.2-1.7
				l1.2,1.1l20,19.9l20.1,45.6l-0.8,0.1c-0.4,0-0.8,0.1-1.1,0.1c-0.5,0.1-1,0.2-1.5,0.2L128,239z M92.4,177.2l17.3,17.2l19.1,43.3
				c0.3,0,0.7-0.1,1-0.1c0.1,0,0.3,0,0.4-0.1l-19.4-44L92.1,175C92.2,175.8,92.3,176.5,92.4,177.2z"/>
		</g>
		<g>
			<path class="st0" d="M124,254.8c-0.9,0-1.8-0.1-2.7-0.1l9.4,34l34.7-48.8c-0.1,0-0.3,0.1-0.4,0.1c-0.4,0.2-0.9,0.4-1.2,0.1
				c-0.5-0.3-0.9-0.4-1.4-0.4l-30.6,43.1L124,254.8z"/>
			<path class="st0" d="M130.5,290.1l-10-35.9h0.8c0.9,0,1.8,0,2.7,0.1l0.4,0l7.5,27.2l30-42.3l0.3,0c0.6,0,1.2,0.2,1.7,0.5
				c0.1,0.1,0.5-0.1,0.7-0.2c0.2-0.1,0.4-0.1,0.5-0.2l1.6-0.4L130.5,290.1z M122.1,255.4l8.9,32l33-46.5c-0.2,0-0.4-0.1-0.6-0.2
				c-0.3-0.2-0.5-0.3-0.8-0.3l-31.1,43.8l-8-28.8C123.1,255.4,122.6,255.4,122.1,255.4z"/>
		</g>
		<g>
			<path class="st0" d="M322,269.3c0.8-0.4,1.4-0.9,1.9-1.6c0.1-0.1,0.2-0.2,0.3-0.3l-42.2,4.8l-4.1-42.5c-0.8,0.2-1.7,0.3-2.5,0.5
				l4.3,44.8l41.6-4.7c0,0,0,0,0-0.1C321.4,269.9,321.6,269.5,322,269.3z"/>
			<path class="st0" d="M279.1,275.8l-4.4-46l0.5-0.1c0.8-0.2,1.7-0.4,2.6-0.5l0.6-0.1l4.1,42.5l43.1-4.9l-1.2,1.4
				c-0.7,0.8-1.4,1.4-2.1,1.7c-0.2,0.1-0.3,0.3-0.5,0.7l-0.1,0.3l-0.4,0.1L279.1,275.8z M275.9,230.7l4.2,43.7l40.7-4.6
				c0.2-0.5,0.6-0.9,0.9-1l0,0c0.3-0.1,0.6-0.3,0.8-0.5l-41.2,4.7l-4.1-42.4C276.8,230.6,276.4,230.6,275.9,230.7z"/>
		</g>
		<g>
			<path class="st0" d="M373.1,235c-0.1,0-0.3,0.1-0.4,0.1c-0.7,0.2-1.4,0.3-2.1,0.4l-0.6,33.1l-21.8,1.1c-0.5,0.4-1,0.9-1.3,1.6
				c-0.1,0.4-0.3,0.7-0.5,1.1l26.1-1.3L373.1,235z"/>
			<path class="st0" d="M345.3,273l0.5-1c0.2-0.4,0.4-0.7,0.5-1c0.3-0.7,0.8-1.3,1.5-1.9l0.1-0.1l0.2,0l21.2-1.1l0.6-33.1l0.5-0.1
				c0.7-0.1,1.4-0.2,2.1-0.4l1.2-0.3l-0.6,37.4L345.3,273z M348.4,270.3c-0.5,0.4-0.8,0.8-0.9,1.2c0,0.1-0.1,0.1-0.1,0.2l24.5-1.2
				l0.6-34.8c-0.5,0.1-0.9,0.2-1.4,0.2l-0.6,33.2L348.4,270.3z"/>
		</g>
	</g>
	<g>
		<g>
			<path class="st3" d="M360.5,229.3c-0.6,0-1.2-0.1-1.8-0.1c-0.3,0-0.5-0.1-0.8-0.1c-1.6-0.1-2.6-1-3.4-1.8
				c-0.2-0.2-0.5-0.4-0.7-0.6c-0.8-0.7-1.7-1.3-2.5-2c-0.5-0.4-0.9-0.7-1.4-1.1c-0.2-0.2-0.6-0.3-1.1-0.5c-0.2-0.1-0.4-0.1-0.6-0.2
				c-0.9-0.3-1.7-0.9-2.4-1.7c-1-1-1.9-2-3.3-2.2c-0.8-0.1-1.5-0.6-2-1.3c-0.6-0.8-0.8-1.9-0.6-2.8c0.1-0.3,0-0.5,0-0.6
				c-0.3-0.9-0.2-1.8,0-2.5c0.2-0.8,0.3-1.7,0.3-2.6l0-0.2c0-0.8,0.1-1.9,0.8-2.8c-0.2-1-0.1-1.9,0.1-2.7c0.1-0.6,0.2-1.1,0.2-1.6
				l0-0.3l0.1-0.3c0.2-0.4,0.2-0.9,0.3-1.4c0.1-0.5,0.1-1.1,0.4-1.7c0.3-0.9,0.6-1.8,1-2.7c0.6-1.8,1.3-3.7,2-5.5
				c0.4-0.9,0.5-1.8,0.5-2.8c-0.1-0.6,0.2-1.2,0.3-1.6c0.1-0.2,0.2-0.4,0.2-0.5c0-0.8,0-1.6,0-2.5c0-1.1,0.1-2.1,0-3.1
				c-0.1-1.1-0.3-2.4-0.6-3.6c-0.4-1.8-0.4-3.5,0.1-5.2c0.1-0.5,0.2-1,0.3-1.5c0-0.1,0-0.3,0.1-0.4l-0.5-0.5l0-0.2L345,168l-0.3-0.6
				l-0.1,0l-0.4-0.3c-0.4-0.1-0.7-0.3-0.9-0.7c-0.1-0.2-0.3-0.4-0.6-0.7c-0.3-0.3-0.6-0.6-0.9-1.1c-0.2-0.4-0.5-0.8-0.7-1.1
				c-0.9-1.3-1.9-2.9-2.1-4.9l0-0.1l0-0.1c0.4-2.2,0.1-4.4-0.3-6.6c-0.4-2.4-0.2-4.7,0.4-6.6c0.1-0.2,0.1-0.2,0-0.3
				c-0.4-1.4-0.2-2.8,0-4l-0.1-0.3c-0.3-0.9-0.2-1.7-0.2-2.3c0-0.2,0.1-0.5,0.1-0.7c0-0.2,0-0.4,0-0.6l0,0l0-0.5
				c0.1-1.1-0.2-2.2-0.5-3.3c0.3-0.7,0.5-1.4,0.8-2.1c0.2,0,0.5-0.1,0.9-0.2c1.8-0.7,2.1-2.5,3.5-2.7c0.3,0,0.5,0.1,0.7,0.1
				c2.9,0.3,5.7,0.6,8.6,0.9l6.7,0.7c3.7,0.4,7.3,0.8,11,1.1c1.5,0.1,2.9,0.3,4.4,0.5c3.2,0.3,6.5,0.7,9.8,1c3.5,0.3,7,0.7,10.4,1
				c1.8,0.2,3.6,0.4,5.4,0.6c1.3,0.1,2.5,0.2,3.8,0.4c1.6,0.2,3.3,0.3,4.9,0.5c0.4,0,1.1,0,1.6,0.6c0.2,0.3,0.4,0.8,0.2,1.5
				l-0.4,2.7c-0.3,2.1-0.6,4.2-0.9,6.3c-0.5,3-0.7,6.1-0.9,9.2c-0.1,0.8-0.1,1.7-0.2,2.5c-0.5,6.9-0.9,12.6-1.3,18
				c-0.6,9.6-1,17.5-1.2,24.9c-0.1,5-0.5,9.9-0.8,14.9c-0.1,1.8,0,3.6,0.1,5.6c0,0.7,0,1.3-0.2,1.9l-0.2,0.6l-0.6,0.1
				c-1.2,0.2-2.4,0.1-3.6-0.3c-0.5-0.2-1-0.4-1.3-0.3c-1.2,0.2-2.3-0.1-3.3-0.3c-0.7-0.2-0.9-0.1-1.1-0.2c-0.7-0.3-0.8-0.7-1.3-0.7
				c-0.2,0-0.2,0.1-0.7,0.3c-0.3,0.1-0.6,0.1-0.9,0.2c-0.7,0.2-1.4,0.4-2.2,0.4c-0.6,0-1.2,0.1-1.6,0.3c-0.7,0.3-1.4,0.5-2.1,0.6
				c-0.6,0.1-1.2,0.3-1.8,0.5c-0.8,0.3-1.6,0.5-2.4,0.6c-0.7,0.1-1.4,0.2-2,0.5l-0.3,0.1l-0.6-0.1c-0.1,0-0.2,0-0.4,0c0,0,0,0,0,0
				l-0.9,0.5l-0.4,0c-0.2,0-0.5,0.1-0.9,0.2l-0.9,0.3l-0.3-0.1c-0.9-0.2-1.6-0.2-2.1,0.2l-0.2,0.1l-1,0.4l0,0l-0.6,0.4l-0.2,0
				c-0.1,0.1-0.3,0.2-0.5,0.2c-0.5,0.1-1,0.3-1.6,0.4c-0.6,0.1-1.2,0.3-1.7,0.4c-1,0.3-2,0.4-2.9,0.4c-0.8,0-1.5,0.1-2.2,0.3
				C361.9,229.2,361.2,229.3,360.5,229.3z M343.5,202.1c0,0.7-0.1,1.4-0.2,1.9c-0.1,0.7-0.3,1.3-0.1,1.9c0.2,0.6-0.1,1.3-0.4,1.7
				c-0.3,0.4-0.3,0.8-0.4,1.6l0,0.2c-0.1,0.9-0.1,2-0.4,3c-0.1,0.5-0.2,0.8-0.1,1.1c0.2,0.6,0.2,1.2,0.1,1.9c-0.1,0.3,0,0.7,0.2,1
				c0.2,0.2,0.3,0.3,0.4,0.3c2.2,0.3,3.6,1.7,4.7,2.8c0.5,0.6,1,0.9,1.6,1.1c0.2,0.1,0.3,0.1,0.5,0.2c0.6,0.2,1.2,0.4,1.8,0.8
				c0.5,0.4,0.9,0.8,1.4,1.1c0.8,0.7,1.6,1.3,2.5,2c0.3,0.2,0.6,0.5,0.9,0.7c0.8,0.7,1.3,1.1,2,1.2c0.3,0,0.6,0,0.9,0.1
				c1.1,0.1,2.1,0.2,3-0.1c1-0.3,1.9-0.3,2.8-0.4c0.8,0,1.6-0.1,2.3-0.3c0.7-0.2,1.3-0.4,1.9-0.5c0.4-0.1,0.9-0.2,1.3-0.3
				c0.2-0.2,0.4-0.3,0.8-0.4c0.4-0.4,0.9-0.5,1.4-0.5l0.1,0c1.2-0.7,2.4-0.6,3.4-0.5l0.4-0.1c0.4-0.1,0.9-0.3,1.4-0.3l0,0
				c0.6-0.6,1.4-0.5,1.8-0.4c0.1,0,0.1,0,0.2,0l0.1,0c0.8-0.3,1.5-0.4,2.2-0.6c0.7-0.1,1.3-0.2,1.9-0.5c0.7-0.3,1.4-0.5,2.1-0.6
				c0.6-0.1,1.2-0.3,1.8-0.5c0.6-0.2,1.2-0.3,1.7-0.4c0.4-0.3,4-2.3,6.4-0.7c0.2,0.2,0.5,0.4,0.7,0.6c0.1,0,0.2,0.1,0.4,0.1
				c0.9,0.2,1.7,0.4,2.5,0.3c0.9-0.1,1.7,0.2,2.4,0.4c0.6,0.2,1.1,0.3,1.6,0.3c0,0,0,0,0,0c0-0.1,0-0.2,0-0.3c-0.1-2.1-0.2-4-0.1-6
				c0.3-5,0.6-9.8,0.8-14.8c0.2-7.4,0.6-15.4,1.2-25c0.3-5.5,0.7-11.2,1.3-18.1c0.1-0.8,0.1-1.7,0.2-2.5c0.2-3.1,0.4-6.2,0.9-9.4
				c0.3-2.1,0.6-4.2,0.9-6.3l0.3-2.2c-1.5-0.2-3.1-0.3-4.7-0.5c-1.3-0.1-2.5-0.2-3.8-0.4c-1.8-0.2-3.6-0.4-5.4-0.6
				c-3.4-0.4-6.9-0.7-10.4-1c-3.3-0.3-6.6-0.6-9.8-1c-1.5-0.2-2.9-0.3-4.4-0.5c-3.7-0.4-7.3-0.8-11-1.1l-6.7-0.7
				c-2.7-0.3-5.5-0.6-8.2-0.8l-0.1,0.1c-1.1,1-2.3,1.9-3.7,2.4c0.2,1,0.5,2.1,0.4,3.2l0,0.1l0,0.7c0,0.2,0,0.4,0,0.7
				c0,0.3,0,0.6-0.1,0.9c0,0.3-0.1,0.6-0.1,0.9c0.2,0.1,0.4,0.3,0.5,0.6c0.3,0.7,0,1.2-0.2,1.5c-0.1,0.9-0.2,1.9,0,2.9
				c0.1,0.5,0.1,1-0.1,1.6c-0.5,1.6-0.6,3.5-0.3,5.5c0.4,2.3,0.7,4.7,0.3,7.2c0.1,1.3,0.9,2.4,1.7,3.6c0.3,0.4,0.5,0.8,0.8,1.2
				c0.1,0.2,0.4,0.5,0.6,0.7c0.2,0.2,0.4,0.4,0.6,0.7c0.3,0.1,0.6,0.2,0.8,0.4c0.5,0.2,0.9,0.6,1.1,1c0.4,0.3,0.6,0.6,0.7,1
				c0.4,0.4,0.6,0.9,0.6,1.5c-0.1,0.3-0.1,0.5-0.1,0.8c-0.1,0.6-0.2,1.2-0.4,1.7c-0.4,1.3-0.4,2.6-0.1,4c0.3,1.4,0.5,2.8,0.6,4
				c0.1,1.1,0,2.2,0,3.3c0,0.8,0,1.6,0,2.4c0,0.6-0.2,1.1-0.3,1.5c-0.1,0.2-0.2,0.4-0.2,0.5c0.1,1.3-0.1,2.6-0.6,3.9
				c-0.7,1.7-1.4,3.6-2,5.3c-0.3,0.9-0.6,1.9-1,2.8c-0.1,0.4-0.2,0.8-0.2,1.2C343.8,200.8,343.7,201.4,343.5,202.1z M409.1,136.5
				l1.1,0l-1.1-0.2C409.1,136.4,409.1,136.5,409.1,136.5z"/>
			<path class="st3" d="M269.2,208.3c-0.8,0-1.6-0.3-2.2-1c-0.1-0.1-0.3-0.3-0.4-0.5c-0.4-0.5-0.8-1-1.3-1.2
				c-0.5-0.3-0.9-0.9-0.8-1.5c0,0-0.1,0-0.1-0.1c-0.2-0.1-0.5-0.3-0.7-0.5c-0.2-0.1-0.5-0.4-0.6-0.9c-0.1-0.8-0.7-1.5-1.3-2.4
				c-0.5-0.6-1-1.3-1.3-2.1c-0.2-0.5-0.7-1-1.2-1.5c-0.2-0.2-0.4-0.4-0.6-0.6c-0.7-0.8-1.4-1.7-1.6-3c0,0,0-0.1-0.1-0.1
				c0-0.1-0.1-0.2-0.1-0.2c-0.5-0.3-1.3-0.9-1.4-2c-1.1-0.9-1.7-2.2-2.3-3.3c-0.1-0.3-0.3-0.6-0.4-0.8l-0.1-0.3l-0.3-1.4
				c-0.5-0.7-0.8-1.4-1.1-2.1c-0.2-0.5-0.4-0.9-0.7-1.4l-0.1-0.2c-0.4-0.6-0.5-1.2-0.5-1.6c0-0.1,0-0.3,0-0.3
				c-0.5-1.4-0.7-2.8-0.9-4.1c-0.1-0.4-0.1-0.8-0.2-1.1l0-1.2l0.2-0.3c0.1-0.2,0.3-0.4,0.4-0.7c-0.1,0-0.1-0.1-0.2-0.1l-0.6-0.3
				l0-1.6l0.4-0.3c0,0,0,0,0,0c-0.3-0.8-0.1-1.4,0.1-1.8l-0.2-0.1l0-0.6c0-0.4,0.1-0.8,0.3-1.2l0.1-1l0.1,0l0.2-1.1l-0.1-1.3
				l0.4-0.3l0.3-0.7c0-0.1,0-0.2-0.1-0.2c-0.1-0.3-0.2-0.7-0.2-1.2l-0.1-0.6l0.3-0.4c0.1-0.1,0.1-0.3-0.1-0.9l-0.1-0.5l0.3-0.9
				c0-0.1,0-0.2-0.1-0.4c-0.1-0.5-0.2-1.2,0.1-1.9c0.5-2.3,0.9-4.8,1.3-7.9c0-0.2,0-0.4,0.1-0.6c0.1-0.8,0.1-1.6,0.5-2.5
				c0.3-0.6,0.3-1.3,0.1-2.2c-0.2-1.3,0.3-2.3,0.7-3.1c0.1-0.1,0.1-0.3,0.2-0.4c0.1-0.2,0.2-0.4,0.3-0.5c0-0.1,0.1-0.1,0.1-0.2
				c0-0.8,0.3-1.3,0.5-1.7c0.1-0.2,0.2-0.4,0.2-0.5c0.1-0.4,0.1-0.8,0.1-1.3c0-0.7,0-1.4,0.3-2.2c0.1-0.4,0.4-1,0.8-1.5
				c0.2-0.6,0.3-1.4,0.3-2.1c0-0.5,0.1-1.1,0.2-1.7c0.1-0.3,0.1-0.8,0.4-1.2c0.4-0.8,0.7-1.7,0.7-2.6c0-0.5,0.3-1,0.4-1.2
				c0.3-0.4,0.2-0.4,0.2-0.6c-0.4-1-0.1-2,0.2-2.7c0.3-0.7,0.5-1.4,0.6-2.3c0.2-0.9,0.5-1.7,0.9-2.5c0.3-0.7,0.5-1.1,0.4-1.6
				c-0.1-0.8,0.1-1.7,0.6-2.4c0.5-0.9,1.4-0.9,1.8-0.9c0,0,0,0,0.1,0c0,0,0,0,0.1,0c3.2-0.4,6.5-0.2,9.6-0.1
				c1.4,0.1,2.7,0.1,4.1,0.1c0.9,0,1.7,0,2.6,0c0.7,0,1.3,0,2,0c0.3,0,0.7,0,1.1,0.1l0.1,0l0.1,0c0.9-0.2,1.7-0.2,2.5-0.2
				c0.3,0,0.6,0,0.9,0c4-0.1,8.1-0.1,12.1-0.2c2.7,0,5.4-0.1,8.1-0.1c2.4,0,4.8-0.1,7.1-0.2l3.3-0.1c0.1,0,0.3,0,0.4,0l0.1,0
				c0.6,0,2.2,0.1,2.3,2.1c0,0.5,0.3,1,0.7,1.5c0.3,0.4,0.5,0.9,0.7,1.4c0,0,0,0.1,0.1,0.1c0.1,0.2,0.2,0.4,0.3,0.8
				c0.2,0.3,0.3,0.7,0.3,1.2c0.1,0.3,0,0.6,0,0.8c0.3,0.6,0.3,1.2,0.3,1.7c-0.1,0.8-0.1,1.6,0.2,2.2l0.2,0.7l0,0.7
				c0.1,0.4,0.2,1,0,1.6c0.1,0.3,0.2,0.6,0.3,0.8c0.4,0.6,0.5,1.3,0.3,1.9c-0.4,1.1-0.4,2.3-0.3,3.3c0,0.2,0.1,0.7-0.1,1.2
				c0.1,0.9,0.4,1.8,0.8,2.7c0.5,1,0.5,2.2,0.6,3.2c0,0.2,0,0.5,0,0.7c0.1,0.8,0,1.6-0.1,2.3c-0.1,0.5,0.2,1.1,0.5,1.4
				c0.7,0.6,1.2,1.3,1.8,1.9l0.3,0.4c0.5,0.5,1.1,0.8,1.8,1.2l0.5,0.2c1.1,0.5,1.9,1.3,2.5,1.9c0.8,0.8,1,1.8,0.8,2.8
				c-0.1,0.6-0.1,1.3-0.1,2c0,0.4,0,0.7,0,1.1c0,0.6,0.1,1.2,0.2,1.8c0.1,0.7,0.2,1.5,0.2,2.3c0,0.1,0,0.2,0.1,0.4
				c0.6,1.3,0.8,2.4,0.6,3.6c-0.1,0.6,0,1,0.2,1.3l0,0c0.5,0.7,0.4,1.4,0.4,2l0,0.2c-0.1,2.7-0.6,5.5-1.6,8.8
				c-0.1,0.4-0.3,0.7-0.4,0.9c0,0.1-0.1,0.1-0.1,0.2c0.1,0.4,0.3,1.2-0.2,1.9l0,0c0,0.4-0.2,0.7-0.3,0.9c-0.1,0.2-0.1,0.4-0.2,0.6
				c-0.2,0.7-0.4,1.3-0.5,2c-0.1,0.4,0,0.8,0.1,1.1c0.4,0.8,0.4,1.5,0.1,2.3c0,0.1,0,0.2,0,0.5c0.2,0.8,0.4,1.6,0.2,2.6
				c0,0.1,0,0.2,0,0.2c0.6,0.8,0.6,1.6,0.5,2.2c0.2,0.3,0.2,0.7,0.3,0.9c0,0.2,0.1,0.4,0.2,0.5c0.1,0.1,0.7,0.9,0,1.8
				c0,0.3,0,0.6-0.1,0.9c-0.1,0.5-0.1,1,0,1.4c0.2,0.7-0.1,1.5-0.8,1.9c-0.1,0.2-0.3,0.5-0.5,0.7l-0.1,0.1l-0.5,0.2
				c-1.3,0.5-2.6,1-4.1,0.9l-0.1,0c-0.3,0.1-0.5,0.3-0.7,0.4c-0.6,0.4-1.3,0.8-2.2,1.1c-0.6,0.5-1.3,0.7-1.8,0.8
				c-0.2,0-0.3,0.1-0.5,0.1c-0.5,0.6-1.1,0.9-1.6,1.1v0l-0.2,0.2c-0.6,0.5-1.1,1.1-1.6,1.7c-0.4,0.4-0.7,0.9-1.1,1.3
				c-0.3,0.3-0.5,0.7-0.7,1.2c-0.3,0.7-0.7,1.2-1.3,1.4c-0.6,0.2-1.2,0.1-1.9-0.3c-0.8-0.5-1.7-0.8-3-1c-0.3,0-0.8-0.1-1.2-0.5
				c-1.7-0.1-3-0.5-4.2-1.1c-0.5,0-0.9-0.1-1.3-0.2c-0.3-0.1-0.5-0.1-0.7-0.1l-0.2,0l-0.7-0.2c-0.6,0-1.2-0.2-1.7-0.5
				c-0.1,0-0.2,0-0.3,0c-0.6,0.1-1.5,0.2-2.3-0.4c-1.4-0.5-2.8-0.5-4.1-0.3c-0.6,0.5-1.4,0.5-1.7,0.4c-0.1,0-0.1,0-0.2,0l-0.1,0
				c-0.3,0.2-0.6,0.3-0.9,0.3l-0.1,0.1c-0.4,0.3-0.9,0.4-1.2,0.3l-1.6,0.5c-0.6,0.4-1.2,0.8-1.8,1.3c-1,0.8-2,1.5-3.2,2.1
				c-0.7,0.3-1.4,0.5-2,0.7c-0.7,0.2-1.4,0.4-1.9,0.7c-0.6,0.4-1.2,0.5-1.9,0.4c-1.5-0.2-2.9,0.1-4.4,0.5l-0.8,0.2
				C269.6,208.3,269.4,208.3,269.2,208.3z M266.9,203.9c0.6,0.4,1.1,1,1.5,1.5c0.1,0.1,0.2,0.3,0.4,0.4c0.2,0.2,0.4,0.3,0.6,0.2
				l0.8-0.2c1.7-0.4,3.4-0.7,5.2-0.5c0.2,0,0.3,0,0.4-0.1c0.8-0.6,1.7-0.8,2.6-1c0.6-0.2,1.1-0.3,1.6-0.5c1-0.5,1.9-1.2,2.8-1.9
				c0.7-0.5,1.4-1.1,2.1-1.5l0.3-0.1l3.6-1.1l0,0l0.6-0.2c0.4-0.1,0.8-0.1,1,0c0,0,0,0,0,0l0.1-0.3l0.7-0.1c1.7-0.2,3.7-0.3,5.7,0.5
				l0.4,0.2l0,0.1c0.1,0,0.2,0,0.3,0l0-0.3c0.2,0,0.4,0,0.6,0c0,0,0,0,0,0c0.1,0,0.3,0,0.4,0.1l0,0.1c0.1,0,0.1,0,0.1,0l0.1-0.1
				c0,0,0.1,0,0.1,0l0.2,0l0.5,0.3c0.2,0.2,0.3,0.2,0.6,0.2l0,0.1l0.2-0.3c0.2,0.1,0.3,0.2,0.4,0.3l0.3,0.1c0.5,0,0.9,0.1,1.3,0.2
				c0.3,0.1,0.6,0.2,0.8,0.1l0.4-0.1l0.3,0.2c1,0.6,2.2,0.9,3.7,1l0.5,0.1l0.6,0.1l0.1,0.3c1.1,0.2,2.4,0.5,3.6,1.2
				c0.3-0.7,0.7-1.3,1.1-1.8c0.3-0.4,0.7-0.8,1-1.1c0.5-0.7,1.1-1.4,1.8-2l0.3-0.3l0.2-0.1c0.6-0.3,0.9-0.4,1.1-0.7l0.3-0.4l0.4-0.1
				c0.3-0.1,0.6-0.2,0.9-0.3c0.5-0.1,0.9-0.3,1.2-0.5l0.2-0.2l0.3-0.1c0.6-0.1,1.2-0.5,1.8-0.9c0.3-0.2,0.7-0.4,1-0.6l0.2-0.1
				l0.7-0.1l0.1,0c1.1,0,2.1-0.3,3.3-0.7l0.1-0.5l0.3-0.1c-0.1-0.6,0-1.2,0-1.7c0-0.3,0.1-0.6,0.1-0.9l0-0.2l0.2-0.5
				c-0.1-0.3-0.2-0.6-0.3-0.9c0-0.2-0.1-0.4-0.1-0.5l-0.4-0.5l0.2-0.6c0.1-0.5,0.1-0.6,0-0.7c-0.4-0.5-0.5-1.2-0.4-2
				c0.1-0.4,0-0.9-0.2-1.6c-0.1-0.5-0.2-1.1,0-1.8c0.1-0.3,0.1-0.4,0-0.6c-0.3-0.7-0.4-1.6-0.3-2.5c0.1-0.8,0.4-1.5,0.6-2.3
				c0.1-0.3,0.2-0.6,0.3-0.9l0.4-1.1c0-0.1,0-0.2-0.1-0.2c0-0.1-0.1-0.3-0.1-0.4l0-0.2l0-0.2c0.1-0.5,0.3-0.8,0.5-1.1
				c0.1-0.1,0.2-0.3,0.2-0.4c0.9-3.1,1.4-5.7,1.5-8.3l0-0.3c0-0.2,0-0.5,0-0.6c-0.7-1-0.7-2.1-0.6-2.8c0.1-0.8-0.1-1.6-0.5-2.5
				c-0.2-0.5-0.3-0.9-0.3-1.4c0-0.6-0.1-1.2-0.2-1.8c-0.1-0.7-0.2-1.4-0.2-2.2c0-0.3,0-0.6,0-1c0-0.8,0-1.7,0.2-2.5
				c0.1-0.3,0-0.5-0.2-0.7c-0.5-0.5-1.1-1.1-1.8-1.4l-0.5-0.2c-0.8-0.4-1.8-0.8-2.6-1.8l-0.4-0.4c-0.5-0.6-1-1.2-1.5-1.7
				c-0.9-0.8-1.4-2.1-1.3-3.4c0.1-0.6,0.1-1.2,0.1-1.9c0-0.2,0-0.5,0-0.7c0-0.9-0.1-1.8-0.4-2.4c-0.5-1.1-0.8-2.3-1-3.5l0-0.1
				l0.1-0.8l0.1-0.1c0,0,0,0,0,0c-0.1-1.2-0.2-2.7,0.3-4.2c-0.4-0.6-0.5-1.2-0.6-1.7l-0.1-0.5l0.1-0.3c0.1-0.2,0-0.5,0-0.9l0-0.2
				l0-0.5c-0.5-1.1-0.4-2.3-0.4-3.2c0-0.4,0-0.4-0.1-0.4l-0.4-0.4l0.1-0.6c0-0.2,0.1-0.4,0.1-0.5l-0.1-0.3l0-0.2l-0.3-0.7l0-0.1
				c0,0,0,0,0-0.1c-0.1-0.1-0.1-0.2-0.1-0.3c-0.1-0.3-0.3-0.7-0.5-1c-0.4-0.7-0.9-1.5-1-2.5c0,0-0.1,0-0.1,0l-0.2,0c0,0-0.1,0-0.1,0
				l-0.2,0l-3.2,0.1c-2.4,0.1-4.8,0.1-7.2,0.2c-2.7,0-5.4,0.1-8.2,0.1c-4,0-8.1,0.1-12.1,0.2c-0.3,0-0.7,0-1,0c-0.8,0-1.5,0-2.1,0.1
				l-0.3,0.1l0,0l-0.3,0.1l-0.5-0.3c0,0-0.2,0-0.3,0c-0.7,0-1.4,0-2.1,0c-0.9,0-1.8,0-2.6,0c-1.4,0-2.8-0.1-4.2-0.1
				c-3.1-0.1-6.2-0.2-9.3,0.1c-0.1,0-0.2,0-0.3,0c-0.2,0.3-0.2,0.5-0.2,0.7c0.2,1.2-0.3,2.3-0.7,3c-0.3,0.5-0.5,1.1-0.6,1.8
				c-0.2,1.1-0.4,1.9-0.7,2.7c-0.1,0.3-0.3,0.8-0.3,1c0.6,1.3-0.1,2.4-0.3,2.8c0,0,0,0.1-0.1,0.1c0,1.4-0.5,2.5-0.9,3.5l-0.1,0.2
				c0,0-0.1,0.3-0.1,0.3c-0.1,0.5-0.1,0.9-0.1,1.4c-0.1,1-0.1,2-0.6,3.1l-0.1,0.3l-0.2,0.2c-0.1,0.1-0.2,0.3-0.4,0.6
				c-0.1,0.4-0.1,0.9-0.1,1.5c0,0.5,0,1.1-0.1,1.7c-0.1,0.5-0.3,0.8-0.5,1.2c-0.1,0.2-0.2,0.4-0.2,0.5l0,0.1c0,0.6-0.3,1.1-0.5,1.4
				c0,0.1-0.1,0.1-0.1,0.2c-0.1,0.2-0.2,0.3-0.2,0.5c-0.3,0.7-0.6,1.2-0.5,1.7c0.3,1.4,0.2,2.6-0.3,3.6c-0.2,0.5-0.3,1.1-0.3,1.7
				c0,0.2,0,0.5-0.1,0.7c-0.4,3.3-0.8,6-1.3,8.3l-0.1,0.3c0,0.1,0,0.3,0,0.5c0.1,0.3,0.1,0.6,0.1,1l-0.1,0.3l-0.2,0.5
				c0.2,0.6,0.3,1.5-0.1,2.3l0,0.1l0,0.2l0,0c0,0,0.1,0.1,0.1,0.2c0.1,0.5,0.4,1.3-0.2,2.1l0,0.1c0,0.3-0.2,0.5-0.3,0.7l0,0.4
				l-0.2,1.1c0.1,0.3,0.1,0.6,0,0.7c0,0.1-0.1,0.3-0.2,0.5l0,0.5c0.2,0.2,0.3,0.5,0.4,0.9c0,0.5-0.1,0.9-0.6,1.4
				c0.2,0.5,0.2,1,0,1.4c0.3,0.2,0.6,0.6,0.7,1c0.2,0.8-0.2,1.4-0.7,2.2l0,0.3c0.1,0.4,0.1,0.7,0.2,1.1c0.2,1.2,0.3,2.4,0.7,3.5
				l0.3-0.2l0,0l0,0l0.1,0.1l-0.3,0.2c0,0,0,0,0,0c0.1,0.3,0.1,0.6,0.2,0.8l0.2,0.1l-0.2,0.2c0,0.1,0,0.2,0,0.3l0.3,0.5
				c0.3,0.5,0.5,1,0.8,1.5c0.3,0.7,0.6,1.3,1,1.9l0.1,0.2l0.4,1.7c0.1,0.3,0.3,0.5,0.4,0.8c0.5,1,0.9,1.9,1.7,2.5
				c0.4,0.3,0.8,0.8,0.8,1.4c0,0.1,0.3,0.3,0.5,0.4c0.4,0.3,0.7,0.7,0.8,0.9c0,0.1,0.1,0.1,0.1,0.2l0.2,0.3l0,0.3
				c0,0.7,0.4,1.2,1.1,2c0.2,0.2,0.3,0.4,0.5,0.6c0.6,0.7,1.3,1.4,1.6,2.2c0.2,0.6,0.6,1.1,1.1,1.6c0.6,0.8,1.3,1.8,1.6,3
				c0,0,0,0,0,0c0,0,0.2,0.1,0.2,0.2C266,202.3,266.8,202.8,266.9,203.9z"/>
			<path class="st3" d="M242.6,213.2c-0.3,0-0.7-0.1-1.1-0.3c-0.2-0.1-0.6,0-1,0.1l-0.2,0c-1.9,0.3-3.7,0.1-5.5-0.2
				c-0.4-0.1-0.8-0.1-1.2-0.2c-0.7-0.1-1.4,0-2.1,0l-0.3,0c-0.6,0.1-1.2-0.1-1.6-0.5c-0.7,0-1.6-0.1-2.4-0.6c0,0-0.1,0-0.1,0
				c-0.4-0.1-0.9-0.2-1.4-0.7l-0.2-0.1c-0.7,0-1.2-0.2-1.7-0.3c-0.3-0.1-0.6-0.2-0.9-0.2c-0.7,0-1.3-0.1-2-0.1l-0.2,0
				c-1.1,0-2.4,0-3.6-0.7c-0.1,0.1-0.2,0.2-0.2,0.3c-0.5,0.5-1.1,0.5-1.9-0.1c-0.3-0.2-0.6-0.5-1-0.5c-0.2,0-0.3-0.1-0.7,0
				c-1.7,0.4-3.2,0.1-4.6-0.2l-0.3-0.1c-0.4-0.1-0.8-0.2-1.1-0.1c-0.8,0.1-1.9,0.2-3-0.4c-0.1,0-0.2,0-0.2,0
				c-1.6,0.2-3.2,0.3-4.9-0.1c-0.5-0.1-1.2-0.2-1.8-0.2c-0.7,0-1.5,0-2.3-0.2c-0.1,0-0.2,0-0.2,0c-0.3,0-0.6-0.1-1-0.3
				c-0.8-0.4-1.8-0.3-2.9-0.1c-0.3,0-0.6,0.1-0.9,0.1c-1.5,0.2-2.9,0-4.3-0.1l-0.1,0c-0.2,0.1-0.4,0.2-0.6,0.3
				c-1.3,0.6-2.7,1.2-4.3,1.1c-0.2,0-0.4,0-0.5-0.1c-0.4-0.1-1.1-0.3-1.5-1c0,0,0,0,0-0.1l-0.8-0.5c-0.5-0.2-0.8-0.6-0.9-1
				c-0.2-0.6,0.1-1.1,0.2-1.4c0-0.2,0-0.4,0.1-0.6l0-0.6c-0.1-0.5,0-1,0.2-1.3c-0.1-0.2-0.2-0.4-0.3-0.7c-0.7-0.6-0.9-1.4-1.1-2.1
				l-0.1-0.4c-0.1-0.3-0.2-0.5-0.3-0.6c-0.9-1-1.4-2.2-1.8-3.2c-0.1-0.3-0.2-0.5-0.3-0.8l0-0.1c-1-0.5-1.1-1.4-1.1-1.9
				c-0.1-0.4-0.2-0.8-0.2-1.1c0,0,0,0,0-0.1c-0.3-0.4-0.4-0.8-0.4-1.1c-0.1-0.4-0.1-0.8-0.1-1.1l-0.2-0.5l-0.1-1.3
				c-0.5-1.2-0.9-2.4-1.3-3.6c-0.4-1.3-0.8-2.8-0.8-4.5c0,0,0-0.1-0.2-0.2c-0.7-0.7-1.1-1.5-1.3-2.3l-0.1-0.3l-1.5-3.2
				c-1.3-1.3-2.1-3-2.1-5c0-0.1-0.1-0.2-0.3-0.4c-0.1-0.1-0.2-0.2-0.2-0.3c-0.4-0.5-0.8-1-1-1.8l-0.2-0.5l0-0.3c0.1-0.6,0-0.6,0-0.6
				l-0.4-0.3l-0.1-1.2l0.1-0.2c0-0.1,0.1-0.2,0.1-0.3c-0.2-0.3-0.4-0.7-0.6-1c-0.3-0.5-0.6-1.1-1-1.6c-0.1-0.2-0.2-0.3-0.3-0.5
				c-0.4-0.7-0.6-0.9-0.9-1l-0.7-0.2l-0.3-1.7l0-0.2c0-0.1,0-0.2-0.3-0.4c-0.3-0.2-0.7-0.6-0.7-1.4l-0.6-0.7
				c-0.6-0.6-1.2-1.2-1.7-1.9c-0.3-0.3-0.6-0.7-0.7-1.3c0-0.1-0.1-0.2-0.1-0.3c-0.3-0.6-0.5-1.2-0.7-2c-0.1-0.3-0.2-0.6-0.3-0.9
				c-0.2-0.7-0.4-1.3-0.7-1.8c-0.4-0.7-0.9-1.7-0.7-3l-0.1-0.1c-0.6-0.4-0.7-1-0.7-1.4l0,0l-0.1-1l0.1-0.3c0-0.1,0-0.1-0.2-0.5
				l-0.2-0.2l-0.3-3.1l0-0.1c0-0.3,0-0.6-0.1-0.9l-0.1-0.3l0.1-0.3c0.4-1.3,0.6-2.7,0.7-3.9c0-0.2,0.1-0.4,0.1-0.5
				c0.1-0.6,0.2-1,0-1.4l-0.3-0.5l0.3-0.5c0.2-0.3,0.3-0.7,0.3-1.1c0.1-1,0.8-1.6,1.6-1.6c0,0,0.1,0,0.1,0c0,0,0-0.1,0-0.3
				c0.1-0.7,0.4-1.1,0.7-1.3c0,0,0.1-0.1,0.1-0.1l0.2-0.2c0.5-0.5,0.6-0.8,0.6-1.1c0-0.6,0.3-1.2,0.7-1.5c0.2-0.1,0.3-0.4,0.5-0.7
				c0.1-0.3,0.3-0.6,0.6-0.9c0.3-0.4,0.6-0.9,0.9-1.4c0.7-1.1,1.5-2.4,3.1-3.1c0.9-1.8,2.7-1.7,3.8-1.7c0.3,0,0.6,0,0.8,0
				c2.5-0.3,5-0.4,7.5-0.6c1-0.1,2-0.1,2.9-0.2l3-0.2c2.2-0.2,4.3-0.3,6.5-0.5l2-0.2c7.5-0.6,14.9-1.2,22.4-1.9
				c3.6-0.3,7.2-0.6,10.8-1c2.7-0.2,5.5-0.5,8.2-0.7c1.2-0.1,2.1-0.2,2.7,0.4c0.6,0.6,0.6,1.4,0.6,2.7c0,0.6,0,1.3,0,1.9
				c0,0.8-0.2,1.5-0.7,2.1c-0.1,0.1-0.1,0.2-0.1,0.3c0,0.6-0.1,1.2-0.4,1.8c-0.1,0.3-0.1,0.6,0,1c0.2,0.6,0.4,1.6,0.1,2.6l0,0.2
				c0,0.5-0.1,1-0.1,1.6l0.1,0.2l-0.1,0c-0.1,0.5-0.2,1-0.4,1.5c0,0,0,0,0,0c0.3,1.4,0,2.6-0.3,3.7c-0.1,0.3-0.2,0.6-0.2,0.9
				c0,0.2-0.1,0.4-0.1,0.7c-0.1,0.7-0.2,1.3-0.5,2l0,1l-0.3,0.4l0,0.1l-0.1,1.1c0.5,0.7,0.5,1.6,0.1,2.4c-0.1,0.2-0.1,0.5-0.2,0.8
				c0,0.1,0,0.3-0.1,0.4l0,0.7l-0.2,0.1c0.4,0.8,0.3,1.6-0.1,2.4c0,0.4-0.1,0.7-0.3,1l-0.1,0.2c-1,1.9-0.8,4-0.7,6.3
				c0,0.5,0.1,0.9,0.1,1.4c0,0.1,0,0.3,0,0.4l0,0l0,0.3l-0.2,0.5l-0.2,0.9l0.1,0.5l0.1,0.2l0,0.2c0.1,0.3,0.1,0.6,0.1,0.9
				c0,0.5-0.2,0.9-0.3,1.2c0,0,0,0,0,0.1l0.1,0.2l0.1,0l0.1,0.4l0.5,0.8c0.2,0.1,0.3,0.3,0.4,0.5l1.2,2.1c0.3,1.1,0.2,2.1-0.2,3.1
				l-0.2,0.7l-0.6,1.7c0.1,0.4,0.1,0.8,0,1l0,0.8c0.1,0.5,0,1-0.1,1.4c0,0.5-0.2,0.9-0.3,1.2c0.1,0.5,0.1,0.9,0.1,1.3
				c0,0.1,0,0.2,0,0.4c0,0.5,0,1-0.1,1.4c-0.1,0.7-0.1,1.5,0.1,2.1c0.1,0.3,0.1,0.4,0.2,0.5c1.1,1.1,1.6,2.4,1.5,3.8
				c0.5,0.8,0.6,1.7,0.6,2.4c0,0.6,0.1,1,0.3,1.2c0.4,0.4,0.7,0.8,0.9,1.1c0.4,0.6,0.8,1.1,1.4,1.4c0.8,0.4,1.5,1,2,1.8
				c0.3,0.5,0.4,0.8,0.5,1.2c0,0.1,0.1,0.3,0.1,0.5c0.2,0.7,0.6,1.5,1,2.3c0.3,0.7,0.7,1.5,1,2.2c0.1,0.2,0.2,0.7,0.1,1.2
				c1.1,0.2,2.1,1.5,3.6,4.4l0.1,0.3l0,0.3c0,0,0,0,0,0l0.2,0.1c1.3,0.6,2.1,1.6,2.8,2.4c0.2,0.3,0.4,0.5,0.6,0.7
				c0.4,0.5,0.6,1,0.8,1.5c0.1,0.3,0.2,0.6,0.3,0.7c0.1,0.1,0.1,0.2,0.2,0.3c1.1,0.9,1,2.2,1,3c0,0.2,0,0.4,0,0.6
				c0,1.5-0.6,2.7-1.1,3.8c-0.1,0.3-0.3,0.6-0.4,1c-0.2,0.4-0.5,0.8-0.9,0.9l-0.5,0.2l-0.5-0.2c0,0-0.2,0.1-0.4,0.1
				C243.3,213.1,243,213.2,242.6,213.2z M241.3,210.5c0.4,0,0.9,0.1,1.3,0.3c0.1,0,0.3,0,0.4-0.1c0.2-0.1,0.5-0.1,0.9-0.1
				c0.1-0.2,0.2-0.3,0.2-0.5c0.4-1,0.9-1.9,0.9-2.9c0-0.3,0-0.5,0-0.8c0.1-0.9,0-0.9-0.2-1l0,0c-0.4-0.3-0.5-0.7-0.6-0.9
				c-0.2-0.4-0.4-0.7-0.5-1.1c-0.1-0.3-0.2-0.6-0.4-0.8c-0.2-0.3-0.5-0.5-0.7-0.8c-0.6-0.7-1.1-1.4-1.8-1.7c-0.6-0.1-1-0.4-1.2-0.7
				c-0.4-0.5-0.5-1-0.5-1.4c-0.9-1.8-1.4-2.5-1.7-2.7c-0.3,0.1-0.7,0.2-1.1,0.1c-0.5-0.1-1-0.5-1.2-0.9c-0.2-0.4-0.3-0.9-0.2-1.3
				c0.1-0.4,0.4-0.6,0.6-0.8c-0.2-0.6-0.5-1.3-0.8-1.9c-0.4-0.8-0.8-1.7-1-2.5c-0.1-0.2-0.1-0.4-0.2-0.5c-0.1-0.3-0.1-0.4-0.2-0.6
				c-0.2-0.4-0.6-0.7-1.1-1c-1-0.5-1.6-1.3-2.1-2c-0.3-0.3-0.5-0.6-0.7-0.9c-0.8-0.8-0.9-1.9-0.9-2.7c0-0.7-0.1-1.1-0.3-1.4
				l-0.4-0.4l0.1-0.6c0.1-0.9-0.1-1.7-0.9-2.4c-0.4-0.5-0.6-1-0.8-1.5c-0.3-1-0.2-2-0.1-2.8c0-0.4,0.1-0.8,0-1.2c0-0.2,0-0.4,0-0.7
				c0-0.1,0-0.3,0-0.4l-0.3-0.4l0.1-0.5c0.1-0.2,0.1-0.4,0.2-0.6c0.1-0.1,0.1-0.3,0.1-0.3l0-0.2l0-0.2c0.1-0.3,0.1-0.5,0-0.9l0-0.1
				l0-1l1,0l0,0l-1-0.2c0-0.1,0-0.1,0-0.1l-0.3-0.4l0.2-0.4l0.9-2.9c0.3-0.5,0.3-1,0.1-1.6l-0.1-0.2l-0.8-1.3l-1-1l-0.1-0.4
				c-0.2-0.1-0.3-0.3-0.4-0.4l0.2-0.1l-0.2-0.4l0.8-0.4l-0.4-0.1l-0.5,0l0-0.1c0,0,0,0,0-0.1l0-0.6l0.1-0.2c0-0.1,0.1-0.3,0.2-0.4
				c0-0.1,0.1-0.2,0.1-0.3l0-0.3l0.1-0.1c0-0.1,0-0.1,0-0.2l0-0.2l0,0l0,0L225,151l0.5-1.6c0-0.1,0-0.1,0-0.2c0-0.4,0-0.9-0.1-1.3
				c-0.1-2.2-0.3-4.4,0.6-6.6l-0.4-0.2c0-0.1,0.1-0.2,0.1-0.3l0.4,0.2c0.1-0.2,0.1-0.3,0.2-0.5l0.3-1.1l0.1-0.2
				c0.2-0.3,0.2-0.3,0.1-0.5c-0.5-0.8-0.4-1.7,0.1-2.4c0,0,0-0.1,0-0.1c0.1-0.4,0.1-0.9,0.4-1.3c0.1-0.1,0.1-0.2,0.1-0.2
				c0,0,0-0.1-0.2-0.2c-0.6-0.5-0.9-1.2-0.7-1.9l0.2-0.8l0.6-0.1c0-0.2,0.1-0.4,0.2-0.6c-0.1-0.2-0.1-0.5-0.1-0.6
				c0-0.2,0.1-0.5,0.3-0.7c0.1-0.4,0.2-0.9,0.3-1.4c0-0.2,0.1-0.5,0.1-0.7c0.1-0.4,0.2-0.7,0.3-1.1c0.3-0.9,0.5-1.8,0.3-2.6
				c-0.2-0.5,0-1.1,0.1-1.4c0.1-0.4,0.2-0.8,0.3-1.2c0.1-0.7,0.2-1.5,0.3-2.2c0-0.3,0-0.6-0.2-1c-0.3-0.9-0.3-1.8,0.1-2.6
				c0.1-0.3,0.2-0.6,0.2-0.8c0-0.7,0.2-1.4,0.6-1.9c0.1-0.1,0.1-0.2,0.1-0.5c0-0.7,0-1.3,0-2c0-0.3,0-0.6,0-0.9
				c-0.2,0-0.6,0-0.8,0.1c-2.7,0.2-5.5,0.5-8.2,0.7c-3.6,0.3-7.2,0.7-10.8,1c-7.5,0.6-14.9,1.2-22.4,1.9l-2,0.2
				c-2.2,0.2-4.4,0.3-6.5,0.5l-3,0.2c-1,0.1-2,0.1-2.9,0.2c-2.4,0.2-5,0.3-7.4,0.6c-0.4,0-0.7,0-1.1,0c-1.2,0-1.5,0-1.8,0.7
				c-0.1,0.4-0.4,0.6-0.8,0.8c-1,0.4-1.6,1.3-2.2,2.3c-0.3,0.5-0.7,1.1-1.1,1.6c-0.1,0.1-0.2,0.3-0.3,0.5c-0.2,0.4-0.5,0.8-0.9,1.2
				c-0.1,1.1-0.7,1.8-1.2,2.4l-0.2,0.2c-0.1,0.1-0.2,0.2-0.2,0.3c0,0-0.1,0.1-0.1,0.1c-0.2,1.5-1.1,2-1.7,2.2c0,0.3-0.1,0.7-0.3,1
				c0.2,0.8,0.1,1.6,0,2.3c0,0.1-0.1,0.3-0.1,0.4c-0.1,1.2-0.3,2.6-0.7,4c0.1,0.4,0.1,0.9,0.1,1.3l0.2,2.2c0.2,0.4,0.6,1,0.4,1.9
				c0.1,0.2,0.2,0.4,0.2,0.7c0.4,0.3,0.9,1,0.7,2.1c-0.1,0.5,0,0.9,0.4,1.5c0.4,0.7,0.7,1.5,0.9,2.3c0.1,0.3,0.2,0.6,0.3,0.9
				l0.1,0.2c0.1,0.5,0.3,1,0.5,1.5c0.1,0.2,0.2,0.3,0.2,0.5l0.1,0.3c0,0,0.1,0.1,0.1,0.1c0.6,0.7,1.2,1.3,1.8,1.9l0.6,0.6
				c0.4,0.2,0.5,0.5,0.6,0.7c0.1,0.2,0.1,0.4,0.1,0.6c0.9,0.8,1,1.6,0.9,2.2l0,0c0.8,0.5,1.2,1.2,1.6,1.8c0.1,0.1,0.2,0.3,0.2,0.4
				c0.4,0.6,0.7,1.1,1,1.7c0.3,0.5,0.5,0.9,0.8,1.4c0.2,0.4,0.5,1,0,1.7c0.4,0.6,0.4,1.3,0.3,1.7l0,0.1c0.1,0.4,0.3,0.6,0.6,1
				l0.2,0.2c0.3,0.4,0.8,0.9,0.8,1.8c0,1.5,0.5,2.7,1.6,3.6l0.2,0.2l0.3,0.9l1.4,2.9l0.1,0.4c0.2,0.5,0.4,1,0.7,1.3
				c0.6,0.5,0.9,1.2,0.9,1.9c0,1.4,0.3,2.7,0.7,3.8c0.4,1.2,0.8,2.3,1.3,3.4l0.2,0.5l0,1.1l0.3,0.6l0,0.3c0,0.3,0,0.6,0.1,0.9
				l0.1,0.2l0.2,0.1l0.1,0.4c0,0.2,0.1,0.4,0.1,0.7c0,0.2,0,0.4,0.1,0.5l0.1,0.3l0,0.3c0,0,0,0.1,0,0.1c0.6,0.3,0.8,0.9,0.9,1.1
				c0.2,0.4,0.3,0.7,0.4,1c0.4,0.9,0.7,1.8,1.3,2.5c0.5,0.5,0.6,1,0.8,1.5l0.1,0.4c0.2,0.6,0.3,1,0.6,1.2l0.7,0.5l-0.1,0.6
				c0,0,0,0,0.1,0.1c0.1,0.2,0.3,0.4,0.4,0.8l0.1,0.5l-0.3,0.4c-0.1,0.1-0.2,0.3-0.2,0.3l0.1,0.2l-0.1,1.4l0.1,0.3l-0.2,0.3l1.2,0.9
				l0,0.1c0,0,0,0,0,0l0.4,0.1c1,0,2-0.4,3.1-0.9c0.3-0.1,0.5-0.2,0.8-0.3l0.3-0.1l0.5-0.1l0.2,0c1.4,0.2,2.6,0.3,3.9,0.2
				c0.3,0,0.5-0.1,0.8-0.1c1.3-0.2,2.7-0.4,4.2,0.3c0,0,0.2,0,0.3,0c0.2,0,0.3,0,0.5,0.1c0.6,0.1,1.2,0.1,1.8,0.2
				c0.8,0,1.6,0,2.4,0.2c1.3,0.3,2.7,0.2,4.1,0.1c0.4,0,1-0.1,1.6,0.2c0.4,0.2,0.8,0.3,1.5,0.2c0.7-0.1,1.4,0,1.9,0.1l0.3,0.1
				c1.2,0.3,2.4,0.5,3.6,0.2c0.6-0.2,1.1-0.2,1.8,0c0.4,0.1,0.8,0.3,1.1,0.4c0.2-0.1,0.3-0.1,0.6-0.2c0.5-0.1,1.2-0.1,1.9,0.3
				c0.7,0.4,1.6,0.4,2.6,0.4l0.2,0c0.7,0,1.4,0,2,0.1c0.6,0,1,0.2,1.5,0.3c0.4,0.1,0.7,0.3,1,0.2l0.3,0l1.3,0.5l0.2,0.3
				c0,0,0.2,0.1,0.3,0.1c0.1,0,0.3,0.1,0.4,0.1l0.3,0.2c0.4,0.3,0.8,0.3,1.6,0.3l0.9,0l0.2,0.5l0.2,0c0.8-0.1,1.7-0.1,2.6,0
				c0.4,0.1,0.8,0.1,1.2,0.2c1.7,0.2,3.2,0.5,4.8,0.2l0.2,0C240.5,210.6,240.9,210.5,241.3,210.5z"/>
			<path class="st3" d="M222.8,333.2c-1.3,0-2.6,0-3.9-0.1c-0.8,0-1.6-0.1-2.4-0.1c-3.3-0.1-6.7-0.2-9.9-0.4l-0.5,0
				c-2.4-0.1-4.7-0.2-7.1-0.4c-5.7-0.3-11.5-0.6-17.2-0.9c-4.6-0.3-10.6-0.6-16.7-0.7c-3.6-0.1-7.2-0.2-10.7-0.3
				c-2-0.1-3.9-0.1-5.9-0.2c-1.4,0-2.8-0.1-4.2-0.1c-1.7,0-3.4,0-5.1-0.1c-3-0.1-6-0.1-8.9-0.2c-2.2,0-4.5-0.1-6.7-0.1
				c-6.9-0.2-13.8-0.3-20.7-0.4L92.6,329c-0.7,0-1.4,0-2.1,0c-0.7,0-1.1-0.3-1.3-0.5c-0.5-0.5-0.5-1.2-0.5-1.5
				c0-0.9,0.1-1.8,0.2-2.5c0.5-4.6,0.8-9.3,1-13.8l0.1-1.3c0.3-4.8,0.4-9.8,0.5-15.2c0.1-3.4,0-6.8,0-10.1c0-2.7-0.1-5.6,0-8.3
				c0-1.5,0-2.9,0.1-4.4c0-2.5,0.1-5.1,0.1-7.6c0-1.3,0-2.6,0.1-3.8c0.1-2,0.1-4.2,0-6.2c-0.1-0.7,0.1-1.2,0.5-1.6
				c0.4-0.4,1-0.5,1.7-0.5c1.6,0.2,3.1,0.1,4.6-0.1c1.1-0.2,2.1-0.1,3.1,0.4c0,0,0.2,0,0.2,0l0.3,0c1.1-0.1,2.1-0.3,3.2-0.4
				c1-0.2,1.9,0.1,2.5,0.3c0.4,0.1,0.7,0.2,1.1,0.3c0.5,0.1,1.1,0.1,1.6,0.2c1.2,0.1,2.4,0.2,3.7,0.5c0.6,0.1,1.1,0.2,1.7,0.2
				c1.2,0.1,2.5,0.3,3.7,0.8c0.2,0.1,0.6,0.1,1.1,0.1c2.3-0.1,4.7,0,7,0.1c0.7,0,1.2,0.1,1.7,0.2l0.6,0.1c0.6,0.1,1.3-0.1,2-0.3
				c0.6-0.1,1.1-0.3,1.7-0.3c0.6,0,1.3-0.3,2-0.6c0.7-0.3,1.3-0.5,2.1-0.7c0.3-0.1,0.6-0.2,1-0.1c1.1,0.2,2.4,0,3.4-0.5
				c1.1-0.7,2.3-0.8,3.4-1c0.8-0.1,1.6-0.2,2.3-0.6c1.9-0.9,3.4-1.7,4.1-3.4c0.4-0.8,0.9-1.4,1.3-1.9c0.3-0.3,0.5-0.6,0.7-0.9
				c0.2-0.4,0.6-0.6,1-0.7c1.4-0.2,2.4-1.2,3.6-2.3c0.3-0.3,0.6-0.6,0.9-0.8c0.2-0.2,0.5-0.5,1-0.6c0.3-0.1,0.7-0.2,1-0.3
				c1-0.4,2.4-0.8,3.9,0c0.1,0,0.2-0.1,0.3-0.1c0.9-0.4,1.8-0.4,2.7-0.1c0.6,0.2,1,0.2,1.5,0.1c0.7-0.2,1.7-0.2,2.4,0.5
				c0.1,0.1,0.2,0.2,0.8,0.1c0.8-0.1,1.6,0,2.5,0.3c0.2,0.1,0.4,0.1,0.6,0.1c0.2,0,0.4,0,0.7,0.1c0.8,0.1,1.6,0.1,2.4,0
				c0.4,0,0.7-0.1,1.1-0.1c1-0.1,2,0.4,2.9,0.8l0.5,0.2c0.4,0.2,0.7,0.3,0.9,0.3c0.8,0,1.5,0.4,2,0.7c1.5,0.9,3.1,1.3,4.8,1.1
				c1-0.1,2.1,0,3.4,0.3c0.4,0.1,0.7,0.2,1.1,0.3c1,0.3,1.9,0.5,2.8,0.3c0.2,0,0.8-0.2,1.3,0.2c0.5,0.4,1.1,0.6,1.8,0.8
				c0.9,0.3,1.8,0.7,2.7,1.4c0.4,0.3,1.2,0.5,1.7,0.5c0.8,0.2,1.6,0.4,2.3,0.6c0.5,0.2,1,0.3,1.5,0.5c0.5,0.1,1.1,0.1,1.8,0.1
				c0.2,0,0.5,0,0.7,0c0.2,0,0.6-0.1,1.1,0.1c0.6,0,1.1,0.4,1.3,0.9c0.2,0.3,0.4,0.3,1.3,0.2l0.1,0c0.4,0,1.2-0.1,1.9,0.5
				c0,0,0,0,0,0c0.7-0.1,2.4-0.4,3.5,1.1c0,0,0.1,0.1,0.1,0.1l0.6-0.1l0.1,0c1.2,0.1,2.4,0.5,3.5,1.1c0.6,0.3,1.1,1,1.3,1.8
				c0.2,0.9,0.1,1.8-0.4,2.5l-0.1,0.1c-0.1,0.1-0.2,0.3-0.2,0.4c0.4,0.5,0.5,1.3-0.5,2.3c-1.4,1.3-2.9,2.6-4.5,3.8
				c-0.7,0.5-1.3,1.4-1.8,2.4c-0.4,0.6-0.9,1.2-1.3,1.6c-0.2,0.2-0.4,0.4-0.5,0.6l-0.1,0.1c-0.7,0.8-1.2,1.5-1.3,2.3
				c0,0.6-0.3,1.1-0.8,1.4l-0.1,0.1c-1.6,1.2-3.2,2.5-5.2,3.3c-0.6,0.3-1.2,0.8-1.8,1.6c-0.9,1.3-1.8,2.2-2.8,2.8
				c-0.3,0.2-0.3,0.2-0.3,0.3c-0.1,0.9-0.6,1.5-1,1.9c-0.1,0.1-0.2,0.2-0.3,0.3c-0.3,0.4-0.6,0.9-0.9,1.4c-0.3,0.5-0.6,1-0.9,1.5
				c-0.5,0.7-0.8,1.8-1,2.8c-0.1,0.3-0.1,0.5-0.2,0.7c-0.1,0.3-0.2,0.5-0.1,0.7c0.3,1.8,0.9,3.6,2.1,5.4c0.1,0.1,0.3,0.2,0.4,0.3
				c0.4,0.3,0.9,0.6,1.2,1.2c0.1,0.1,0.3,0.3,0.3,0.6c0.2,1.1,1,1.8,1.9,2.7c0.7,0.7,1.5,1.5,2,2.5c0.1,0.3,0.3,0.6,0.4,0.9
				c0.1,0.3,0.3,0.6,0.4,0.8c0.6,1.2,1.5,2.3,2.5,3.4c1.4,0.9,2.4,2.3,3.3,3.5c0.6,0.9,1.2,1.7,2,2.4c0.3,0.3,0.7,0.6,1,1
				c0.8,0.7,1.5,1.4,2.3,2c1.1,0.8,2.8,2,2.9,4.2c0,0,0,0,0.1,0.1c0.2,0.2,0.6,0.5,0.8,1c0.1,0.1,0.2,0.3,0.3,0.5
				c0.2,0.3,0.5,0.7,0.7,1.1c0,0,0,0,0,0c1.2,0.6,2,1.4,2.5,2.6c0.1,0.2,0.4,0.5,0.7,0.8c0.4,0.3,0.8,0.7,1.2,1.2
				c0.2,0.3,0.5,0.6,0.8,1c0.2,0.2,0.4,0.5,0.6,0.7c0.2,0.2,0.3,0.4,0.4,0.4c1.4,0.1,1.4,1.3,1.4,1.4c0,0.6-0.4,1.4-1.4,1.6
				c-0.3,0.1-0.6,0.2-0.9,0.2c-0.8,0.2-1.7,0.5-2.6,0.6C225.8,333.1,224.3,333.2,222.8,333.2z M91,326.6c0.6,0,1.1,0,1.7,0l10.2,0.2
				c6.9,0.1,13.8,0.3,20.7,0.4c2.2,0.1,4.4,0.1,6.7,0.1c2.9,0,6,0.1,9,0.2c1.7,0.1,3.4,0.1,5.1,0.1c1.4,0,2.8,0,4.2,0.1
				c2,0.1,3.9,0.1,5.9,0.2c3.5,0.1,7.1,0.2,10.7,0.3c6.1,0.1,12.2,0.4,16.8,0.7c5.7,0.3,11.6,0.6,17.2,0.9c2.4,0.1,4.7,0.2,7.1,0.4
				l0.5,0c3.2,0.2,6.6,0.3,9.9,0.4c0.8,0,1.6,0,2.4,0.1c2.7,0.1,5.4,0.2,8.1-0.1c0.6-0.1,1.2-0.2,1.8-0.4c0,0-0.1-0.1-0.1-0.1
				c-0.2-0.3-0.4-0.5-0.6-0.7c-0.4-0.4-0.7-0.8-1-1.3c-0.1-0.2-0.4-0.4-0.7-0.7c-0.5-0.4-1.1-0.9-1.4-1.7c-0.2-0.6-0.6-1-1.3-1.3
				c-0.7-0.3-1.1-0.7-1.2-1.2c0-0.2-0.2-0.4-0.4-0.6c-0.2-0.3-0.5-0.6-0.6-1c0,0-0.1,0-0.1-0.1c-0.3-0.3-0.9-0.8-0.9-1.7
				c0-1-0.8-1.7-1.9-2.5c-1-0.7-1.8-1.5-2.6-2.2c-0.3-0.3-0.7-0.6-1-0.9c-0.9-0.8-1.6-1.8-2.3-2.7c-0.9-1.2-1.7-2.3-2.8-3l-0.2-0.1
				l-0.1-0.2c-1-1.2-2-2.4-2.8-3.8c-0.2-0.3-0.3-0.6-0.4-0.9c-0.1-0.3-0.3-0.6-0.4-0.8c-0.4-0.7-1-1.3-1.6-1.9c-0.9-0.9-2-2-2.4-3.6
				c-0.1-0.1-0.1-0.2-0.2-0.3c-0.1-0.1-0.3-0.3-0.5-0.4c-0.3-0.2-0.8-0.5-1.1-1c-1.3-2.1-2.1-4.2-2.4-6.3c-0.1-0.8,0.1-1.3,0.2-1.8
				c0-0.1,0.1-0.3,0.1-0.4c0.3-1.3,0.6-2.6,1.4-3.7c0.3-0.4,0.6-0.9,0.8-1.3c0.3-0.5,0.6-1,1-1.5c0.1-0.2,0.3-0.3,0.4-0.5
				c0.2-0.2,0.4-0.4,0.4-0.5c0.1-1.2,1-1.8,1.3-2c0.8-0.5,1.4-1.2,2.2-2.2c0.8-1.1,1.7-1.9,2.7-2.4c1.7-0.7,3.2-1.9,4.7-3.1l0,0
				c0.2-1.5,1-2.5,1.8-3.5l0.1-0.1c0.2-0.2,0.4-0.5,0.6-0.7c0.4-0.4,0.7-0.8,1-1.2c0.7-1.2,1.4-2.3,2.5-3.1c1.5-1.1,2.9-2.4,4.2-3.6
				c-0.4-1,0.1-1.9,0.4-2.3c0.2-0.3,0.2-0.6,0.2-0.8c0-0.2-0.1-0.3-0.2-0.3c-0.8-0.4-1.6-0.7-2.5-0.8l-0.6,0.1
				c-0.7,0.1-1.3-0.1-1.8-0.6l0,0l-0.2-0.3c-0.2-0.3-0.4-0.4-1.3-0.3c-0.9,0.2-1.5,0.1-1.9-0.5c0,0-0.1,0-0.1,0l-0.2,0
				c-0.8,0.1-2.3,0.2-3.3-1.1l-0.2,0l-0.2-0.2c-0.1,0-0.1,0-0.2,0c-0.2,0-0.4,0-0.6,0c-0.8,0-1.5,0-2.3-0.2
				c-0.6-0.1-1.2-0.3-1.7-0.5c-0.7-0.2-1.3-0.4-2-0.6c-0.8-0.1-1.9-0.4-2.7-1c-0.6-0.5-1.3-0.7-2-1c-0.6-0.3-1.3-0.5-1.9-0.9
				c-1.4,0.2-2.6-0.1-3.7-0.4c-0.3-0.1-0.6-0.2-1-0.2c-1-0.2-1.9-0.3-2.7-0.2c-2.2,0.2-4.2-0.3-6.1-1.4c-0.3-0.2-0.6-0.4-0.9-0.4
				c-0.7,0-1.3-0.3-1.8-0.5c-0.2-0.1-0.4-0.2-0.6-0.3c-0.6-0.3-1.3-0.6-1.7-0.6c-0.3,0-0.6,0.1-1,0.1c-1,0.1-2,0.2-3.1,0
				c-0.1,0-0.3,0-0.4,0c-0.4,0-0.8-0.1-1.3-0.3c-0.5-0.2-0.9-0.3-1.3-0.2c-0.5,0.1-1.8,0.3-2.8-0.8c0,0,0,0-0.1,0
				c-0.9,0.3-1.8,0.2-2.8-0.1c-0.4-0.1-0.7-0.1-1.1,0c-0.5,0.2-1.4,0.6-2.3,0c-0.6-0.4-1.1-0.2-2.1,0.1c-0.4,0.1-0.8,0.3-1.2,0.4
				c0,0-0.1,0.1-0.1,0.1c-0.3,0.3-0.6,0.5-0.8,0.8c-1.2,1.1-2.5,2.4-4.4,2.8c-0.2,0.3-0.5,0.6-0.7,0.9c-0.4,0.5-0.8,0.9-1,1.4
				c-1.1,2.3-3,3.4-5.2,4.5c-1,0.5-2,0.6-3,0.8c-0.9,0.1-1.8,0.3-2.6,0.7c-1.4,0.8-3.2,1.1-4.8,0.8c-0.2,0-0.3,0.1-0.4,0.1
				c-0.5,0.1-1.1,0.3-1.6,0.5c-0.8,0.3-1.7,0.7-2.6,0.7c-0.4,0-0.9,0.1-1.4,0.3c-0.8,0.2-1.7,0.4-2.8,0.3l-0.6-0.1
				c-0.5-0.1-0.9-0.1-1.4-0.2l-0.1,0c-2.2-0.1-4.5-0.2-6.8-0.1c-0.9,0-1.6-0.1-2.1-0.3c-0.9-0.4-2-0.5-3.1-0.7
				c-0.6-0.1-1.2-0.2-1.9-0.3c-1.1-0.2-2.2-0.3-3.4-0.4c-0.6,0-1.1-0.1-1.7-0.2c-0.6-0.1-1.1-0.2-1.6-0.4c-0.6-0.2-1-0.3-1.4-0.2
				c-1.1,0.2-2.2,0.3-3.3,0.5l-0.3,0c-0.3,0-0.8,0.1-1.4-0.1c-0.6-0.3-1.2-0.3-1.8-0.2c-1.5,0.3-3.2,0.3-4.8,0.2
				c0.1,2.1,0.1,4.1,0,6.1c0,1.2-0.1,2.5-0.1,3.8c0,2.6,0,5.1-0.1,7.6c0,1.5,0,2.9-0.1,4.4c0,2.8,0,5.6,0,8.3c0,3.3,0.1,6.8,0,10.2
				c-0.1,5.4-0.3,10.4-0.5,15.2l-0.1,1.3c-0.2,4.6-0.5,9.3-1,14C91,325.2,91,325.9,91,326.6z"/>
			<path class="st3" d="M266.8,322.4c-0.7,0-1.3-0.2-1.6-0.7c-0.6-0.4-1-0.9-1.3-1.4c-0.3-0.2-0.6-0.5-0.7-1c-0.1-0.5-0.4-0.8-1-1.4
				c-0.3-0.2-0.6-0.5-0.8-0.8c-0.1-0.1-0.2-0.3-0.3-0.4c-0.8-1.2-1.4-2-2.5-2.4c-0.8-0.3-1.7-1.1-2-2.3l0-0.1
				c-0.5-0.2-0.8-0.5-1.1-0.7c-0.1-0.1-0.3-0.3-0.4-0.3c-1.2-0.4-1.6-1.4-1.9-2.1c-0.1-0.1-0.1-0.3-0.2-0.4
				c-0.3-0.3-0.4-0.6-0.4-0.8l0,0c-0.2-0.1-0.4-0.2-0.6-0.5c-0.5-0.8-1.3-1.4-2.2-1.9c-0.4-0.3-0.9-0.6-1.3-0.9
				c-0.3-0.2-0.5-0.4-0.7-0.7c-0.4-0.4-0.8-0.7-1.2-0.9c-0.5-0.2-0.8-0.5-1-1c-0.9-0.4-1.3-1.2-1.5-1.7c-0.2-0.3-0.3-0.6-0.3-1
				c-0.4-0.3-0.7-0.7-0.9-1l-0.1-0.1c-0.3-0.3-0.6-0.6-0.9-1c-0.5-0.5-0.9-1-1.3-1.6c-0.3-0.5-0.6-0.8-1.2-1.1
				c-0.1,0-0.2-0.1-0.2-0.1c-0.5-0.2-1.5-0.6-1.7-1.8c-0.1-0.7-0.5-1.1-1.4-1.5c-1.2-0.5-2.9-1.5-3.4-3.7c-0.2-0.7-0.4-0.9-0.6-1
				l-0.2-0.1L231,285l0-0.2l-0.1-0.1l-0.3-2.5c-0.2-1.8-0.5-3.5-0.7-5.3c-0.1-0.9,0.2-1.9,0.7-2.6l0.9-1.2c0-0.1-0.1-0.2-0.1-0.3
				l0-0.2l0-0.2c0.2-0.9,0.6-1.6,0.9-2.3c0.2-0.4,0.4-0.8,0.6-1.2c0.1-0.2,0.2-0.6,0.7-0.8c0.5-0.2,0.9-0.6,1.3-1.1
				c0.4-0.5,0.9-1,1.6-1.4c0.2-0.1,0.3-0.3,0.5-0.6c0.2-0.3,0.4-0.6,0.8-0.9c1.1-1.2,2.3-2.6,3.2-4.1c1-1.7,2.4-2.6,3.6-3.5
				c0.3-0.2,0.4-0.4,0.5-0.6c0.1-0.4,0.5-1,1.2-1.3c0.9-0.4,1.3-0.8,1.6-1.6c0.2-0.6,0.7-1,1.1-1.2c0.1-0.1,0.3-0.2,0.3-0.3
				c0.2-1.2,0.8-2.1,1.3-3.1c0.4-0.6,0.7-1.2,0.9-1.8l0.1-0.2c0.3-0.7,0.3-1,0.2-1.4c-0.4-1.3,0.7-2.7,0.8-2.9
				c0.5-0.6,0.5-1.3,0.6-2.3c0.1-1.6,1.3-1.9,1.8-2.1c0.8-0.2,1.7-0.7,2.5-1.5c0.7-0.7,1.5-1.1,2.4-1.4c0.9-0.3,1.8-0.8,2.5-1.2
				c0.6-0.3,1.2-0.6,2-0.8c0.2-0.1,0.3-0.1,0.4-0.4c0.3-0.6,0.8-1.1,1.4-1.3c0.5-0.2,1-0.1,1.6,0.1c0.4-0.2,0.9-0.2,1.2-0.2
				c0.2,0,0.4,0,0.5,0c0.7-0.5,1.5-0.7,2.2-0.8c0.3-0.1,0.6-0.1,0.9-0.2c1.9-0.7,3.9-1,5.8-1.4l1.2-0.2c1.4-0.3,3-0.3,4.7,0
				c1.4,0.2,2.8,0.4,4.2,1.1c0.1,0.1,0.4,0.1,0.8,0c0.4,0,0.9,0,1.4,0.1l0.5,0.1c1.3,0.3,2.5,0.6,3.8,0.6c1.3,0.1,2.8,0.6,4.1,1.4
				c0.3,0.2,0.8,0.3,1.5,0.2c1.1-0.1,2.2,0.2,3.2,0.4c0.7,0.2,1.4,0.3,2.1,0.3c0.1,0,0.2,0,0.2,0c0.4,0,1.1-0.1,1.7,0.3l0.2,0l0.1,0
				c0.5,0,1.3-0.1,2,0.4c0.2,0,0.4,0.1,0.7,0.3c0.3,0.1,0.6,0.3,0.9,0.7c0.2,0.1,0.4,0.3,0.6,0.5c0.4,0.2,0.7,0.6,0.9,0.9
				c0.9,0.8,1.3,1.8,1.7,2.7c0.2,0.4,0.3,0.7,0.5,1.1c0.2,0.4,0.4,0.7,0.6,1.1c0.3,0.5,0.5,1.1,0.8,1.5c1.2,1.6,2.1,3.5,2.9,5.8
				c0,0,0,0,0,0c1.2,0.6,1.8,1.6,2.1,2.5c0.3,0.6,0.8,1.1,1.4,1.6c0.3,0.3,0.7,0.6,0.9,0.9c1.7,1.9,3.6,3.7,4.9,5.1
				c0.3,0.3,1,1.2,0.1,2.4c-0.4,0.5-0.7,1.2-0.8,2c-0.4,2.6-1.9,4.6-3.3,6.2c-0.7,0.9-1.4,1.4-2.2,1.8c0,0-0.1,0.1-0.2,0.4
				c-0.5,1.3-1.2,2.4-1.9,3.4c-0.4,0.6-0.8,1.2-1.1,1.8c-0.3,0.6-0.7,1-1.1,1.4c-0.2,0.2-0.5,0.5-0.6,0.7c-0.4,0.6-0.3,0.8,0.2,1.8
				l0.1,0.2c0.7,1.3,1.8,2.4,2.9,3.5c0.6,0.6,1.1,1.1,1.7,1.7c0.4,0.5,0.8,1,1.2,1.5c0.6,0.9,1.2,1.7,2,2.2c0.7,0.6,1.2,1.3,1.7,2
				c0.4,0.6,0.7,1.1,1.2,1.4c0.8,0.6,1.5,1.2,2.2,1.9c1.3,1.2,2.6,2.3,4.1,3.2c0.9,0.5,3.1,1.7,3,4.2l0,0c0,0,0,0.1,0.1,0.1
				c0.5,0.6,0.7,1.3,0.6,1.9l0,0c-0.1,0.7,0,1.5,0,2.3c0.1,0.8,0.1,1.6,0,2.4c0,0.6-0.1,1.2-0.1,1.7c0,1.2-0.1,2.5-0.4,3.8
				c-0.3,1.3-0.5,2.6-0.2,3.8c0.2,0.7-0.1,1.2-0.2,1.4c-0.3,0.4-0.8,0.6-1.5,0.6c-2.7,0-5.5,0-8.2,0.1c-4.4,0.1-8.8,0.2-13.2,0.3
				c-2.4,0.1-4.9,0.1-7.3,0.2c-2.7,0.1-5.5,0.2-8.2,0.3c-7.6,0.2-15.9,0.6-26.2,1.2c-2,0.1-4,0.3-6,0.4
				C267,322.4,266.9,322.4,266.8,322.4z M266,319.2c0.1,0.2,0.3,0.4,0.7,0.6l0.4,0.3c2-0.2,3.9-0.3,5.9-0.4
				c10.2-0.6,18.6-1,26.2-1.2c2.7-0.1,5.4-0.2,8.2-0.3c2.5-0.1,4.9-0.2,7.4-0.2c4.4-0.1,8.8-0.2,13.2-0.3c2.5,0,5-0.1,7.5-0.1
				c-0.2-1.4,0.1-2.8,0.3-4c0.2-1.1,0.3-2.2,0.3-3.4c0-0.6,0-1.2,0.1-1.8c0.1-0.6,0-1.3-0.1-2c-0.1-0.9-0.1-1.8,0-2.8
				c0,0,0-0.2-0.1-0.3c-0.4-0.5-0.6-1-0.6-1.6c0-0.9-0.5-1.5-1.8-2.2c-1.7-1-3.2-2.2-4.6-3.5c-0.7-0.6-1.4-1.2-2.1-1.8
				c-0.7-0.6-1.2-1.3-1.7-2c-0.4-0.6-0.7-1.1-1.2-1.5c-1-0.8-1.7-1.7-2.4-2.7c-0.3-0.5-0.7-0.9-1.1-1.4c-0.5-0.6-1-1.1-1.6-1.6
				c-1.2-1.2-2.4-2.4-3.3-4l-0.1-0.1c-0.5-1-1.3-2.4-0.1-4.2c0.3-0.4,0.6-0.8,0.9-1c0.3-0.3,0.6-0.5,0.7-0.8c0.4-0.7,0.8-1.3,1.2-2
				c0.6-1,1.2-1.9,1.6-3c0.3-0.8,0.7-1.4,1.3-1.6c0.5-0.3,1-0.7,1.5-1.3c1.5-1.8,2.5-3.2,2.8-5.1c0.2-1.1,0.5-2,1-2.8
				c-1.4-1.4-3-3-4.7-4.8c-0.2-0.3-0.5-0.5-0.8-0.8c-0.7-0.6-1.5-1.3-2-2.4c-0.4-0.8-0.7-1.2-1.1-1.4c-0.7-0.3-1-1-1.1-1.2
				c-0.7-2.1-1.6-3.8-2.7-5.2c-0.4-0.6-0.7-1.2-1-1.8c-0.2-0.3-0.3-0.7-0.5-1c-0.2-0.4-0.4-0.9-0.6-1.3c-0.3-0.7-0.5-1.3-0.9-1.7
				l-0.2,0l-0.3-0.6c-0.1-0.2-0.1-0.2-0.1-0.2l-0.5-0.2l-0.1-0.3l-0.4-0.1l-0.2-0.4l-0.2,0l-0.2-0.3c0,0-0.1,0-0.1,0l-0.4-0.1
				l-0.3-0.3c0,0-0.3,0-0.4,0l-0.2,0l-1.3,0l-0.3-0.3c-0.1,0-0.1,0-0.2,0c-0.2,0-0.4,0-0.6,0c-0.9,0-1.7-0.2-2.5-0.4
				c-0.9-0.2-1.7-0.4-2.5-0.3c-0.8,0.1-2,0-2.9-0.6c-0.9-0.6-2-1-2.9-1c-1.5-0.1-2.9-0.4-4.2-0.7l-0.5-0.1c-0.2,0-0.5,0-0.8,0
				c-0.6,0-1.2,0.1-1.9-0.3c-1-0.5-2.1-0.7-3.3-0.9c-1.6-0.2-2.9-0.2-4.1,0l-1.2,0.2c-1.9,0.3-3.7,0.7-5.4,1.3
				c-0.4,0.1-0.7,0.2-1.1,0.3c-0.6,0.1-1.1,0.3-1.5,0.5c-0.6,0.4-1.2,0.4-1.7,0.4c-0.2,0-0.5,0-0.5,0.1c-0.2,0.2-0.7,0.4-1.4,0
				c-0.1-0.1-0.2-0.1-0.2-0.1c-0.2,0.6-0.7,1.4-1.9,1.7c-0.5,0.1-1,0.3-1.4,0.6c-0.9,0.5-1.9,1.1-3,1.4c-0.6,0.2-1,0.4-1.5,0.9
				c-1.1,1-2.2,1.6-3.4,2c0,0-0.1,0-0.1,0h0c-0.1,1.1-0.2,2.3-1.1,3.5c-0.2,0.3-0.4,0.8-0.4,0.9c0.4,1.1,0.1,2-0.2,2.8l-0.1,0.2
				c-0.3,0.8-0.7,1.5-1.1,2.2c-0.5,0.8-0.9,1.5-1,2.3c-0.2,1-0.9,1.4-1.3,1.7c-0.1,0.1-0.2,0.1-0.2,0.2c-0.5,1.3-1.3,2.2-2.7,2.8
				c0,0,0,0.1-0.1,0.1c-0.3,0.6-0.7,1.2-1.3,1.6c-1.1,0.8-2.3,1.6-3,2.8c-0.9,1.6-2.2,3.1-3.3,4.3l0,0.2l-0.2,0c0,0,0,0-0.1,0.1
				l-0.1-0.1l-0.2,0l0.1,0.2c-0.1,0.1-0.3,0.3-0.4,0.5c-0.3,0.4-0.6,0.9-1.2,1.3c-0.4,0.2-0.7,0.6-1.1,1c-0.5,0.5-1,1.1-1.7,1.5
				c-0.2,0.4-0.4,0.8-0.6,1.1c-0.3,0.5-0.5,1-0.6,1.4c0,0.1,0.1,0.2,0.1,0.3c0.3,0.6,0.7,1.7-0.1,2.8c-0.2,0.3-0.7,1.1-1.6,1.1
				c0,0,0,0,0,0c0.2,1.7,0.4,3.4,0.6,5.1l0.2,1.6c0.1,0.2,0.2,0.4,0.3,0.7c0.9,0.7,1.2,1.8,1.3,2.2c0.2,1,0.9,1.6,2.1,2.2
				c1,0.5,2.4,1.3,2.8,3.2c0,0,0.2,0.1,0.3,0.1c0.1,0.1,0.3,0.1,0.4,0.2c0.9,0.5,1.5,1,2,1.9c0.3,0.4,0.6,0.8,1.1,1.2
				c0.3,0.4,0.7,0.7,1,1.2l0.1,0.2c0.2,0.2,0.3,0.5,0.5,0.5c0.4,0.2,0.7,0.6,0.9,1c0.1,0.2,0.1,0.4,0.1,0.7l0,0.1
				c0.2,0.5,0.2,0.6,0.3,0.6l0.6,0l0.7,0.9l0,0.2c0.7,0.3,1.2,0.8,1.7,1.3c0.2,0.2,0.4,0.4,0.6,0.5c0.4,0.3,0.8,0.6,1.1,0.8
				c0.9,0.6,1.9,1.3,2.6,2.3l0.2,0.1l0.7,0.8c0.1,0.1,0.1,0.2,0.2,0.4l0.1,0.2c0.2,0.3,0.3,0.6,0.4,0.9c0.3,0.6,0.4,0.8,0.6,0.9
				c0.5,0.2,0.8,0.5,1.1,0.7c0.1,0.1,0.3,0.3,0.4,0.3h0l0.9,0l0.5,1.7c0.1,0.4,0.5,0.7,0.6,0.8c1.9,0.7,2.9,2.2,3.7,3.4l0.1,0.2
				c0.2,0.2,0.3,0.3,0.5,0.5c0.6,0.6,1.4,1.2,1.7,2.4c0.1,0,0.1,0.1,0.1,0.1l0.5,0.4L266,319.2z M254.4,239.7l1.1,0.1
				c0,0,0.1-0.1,0.1-0.1L254.4,239.7z"/>
			<path class="st3" d="M398,324.4c-1,0-2-0.1-3-0.2c-0.7-0.1-1.4-0.1-2.2-0.1c-3-0.1-6.1-0.3-9-0.4c-3.2-0.2-6.5-0.3-9.7-0.5
				c-5.2-0.2-10.3-0.3-15.3-0.4c-0.7,0-1.9-0.3-2.1-2.1c-0.1-0.7-0.1-1.5,0.1-2.4c0-0.3,0.1-0.6,0.3-0.8c0.1-0.6,0.2-1.2,0.3-1.8
				c0.1-0.9,0.3-1.8,0.5-2.7c0.2-0.9,0.2-1.8,0.2-2.8c0-0.9,0-1.7,0.1-2.7c0-0.3,0-0.6,0.1-0.8c-0.3-0.6-0.6-1.4-0.7-2.1
				c-0.1-0.7-0.4-1.2-1-1.6l-0.2-0.1c-0.3-0.2-0.9-0.6-1.2-1.2c-0.4-0.3-0.7-0.6-1-0.8c-0.1-0.1-0.2-0.2-0.3-0.3
				c-0.9-0.3-1.3-1.1-1.5-1.5c-0.2-0.3-0.4-0.6-0.7-0.8c-0.5-0.4-1-1-1.3-1.8c-0.4-0.3-0.6-0.7-0.7-1c-0.6-0.5-0.9-1.1-1-1.7
				c-1.1-0.6-1.9-1.6-2.5-2.8c-0.3-0.2-0.5-0.6-0.5-1.2c-0.2-0.3-0.3-0.6-0.4-0.9c-1-0.8-2-1.8-2.5-3.2c0,0-0.2-0.2-0.3-0.3
				c-0.1-0.1-0.2-0.2-0.3-0.3c-0.1-0.1-0.1-0.1-0.2-0.2c-0.4-0.4-1-0.9-1.1-1.8l-0.2-0.3c-1.1-1.3-1.3-3.1-0.5-4.2
				c0.2-0.3,0.4-0.5,0.5-0.8c0.4-0.7,1-1.6,2-2.1c0.2-0.1,0.4-0.5,0.6-0.9l0.1-0.2c0.3-0.6,0.6-1.1,1-1.6c0.4-0.7,0.9-1.3,1.1-2
				c0.5-1.4,1.7-2.2,2.9-2.9c1.3-0.7,2.3-1.9,3-3.6c0.2-0.5,0.4-1.1,0.5-1.7c0.2-0.7,0.4-1.4,0.7-2.1c0-0.1-0.1-0.1-0.1-0.2
				c-0.3-0.6-0.8-1.1-1.3-1.6c-0.5-0.5-0.9-1-1.3-1.6c-0.4-0.6-0.7-1.1-1.1-1.7l-0.3-0.4c-0.4-0.2-0.7-0.6-1-1.3
				c-0.6-0.2-1.4-0.6-1.5-2c0-0.2-0.1-0.4-0.4-0.7c-0.2-0.2-0.3-0.4-0.5-0.7c-0.7-1.1-1.1-2.5-1.2-3.9c0-0.5-0.3-1-0.5-1.5
				c-1-2-1.6-4-1.9-6.2c-0.1-0.6-1.2-1.6-2-1.8c-1-0.2-1.9-0.6-2.8-0.9l-0.3-0.1c-0.1,0-0.2-0.1-0.3-0.1c-0.9,0.7-1.6,0.3-1.8,0.2
				c-0.3-0.2-0.8-0.7-0.5-1.7c0.4-1.7,2-3.1,3.8-3.3c2.2-0.2,4.6-0.2,7,0c0.3,0,0.7,0.1,1.1,0.3c0.8,0.5,1.7,0.7,2.6,0.9
				c1.4,0.2,2.6,0.6,3.8,1c0.6,0.2,1.2,0.4,1.8,0.6c0.4,0.1,0.9,0.2,1.4,0.2c0.3,0,0.7,0.1,1,0.1c1.2,0.2,2.3,0.3,3.5,0.3l0.9,0.1
				c0.5,0,1,0.1,1.5,0.1c1.7,0.2,3.3,0.3,4.8-0.1c0.9-0.2,1.8-0.4,2.6-0.5c0.8-0.1,1.5-0.2,2.2-0.4c0.5-0.1,1.1-0.3,1.8-0.5
				c1.1-0.4,2.3-0.8,3.5-1c1.3-0.3,2.5-0.5,3.8-0.7l1.3-0.2c0.2,0,0.3,0,0.5,0l0.2,0c0.6-0.5,1.4-0.6,1.8-0.6l0.2,0
				c0.4,0,0.8-0.1,1.2-0.2c0.7-0.2,1.4-0.3,2.2-0.3l0.4-0.2c0.6-0.3,1.4-0.6,2.2-0.6c0.9-0.4,1.9-0.6,2.9-0.6c0.5,0,0.7,0,0.8-0.1
				c1.1-0.6,2.2-0.4,2.7-0.3c0.4,0.1,0.9,0.2,1.3,0.2c1.6,0.3,3.1,0.6,4.6,0.6c0.7,0,1.3,0.2,1.9,0.6c0.2,0.2,0.6,0.4,1.1,0.3h0
				c0.7-0.1,1.2,0.1,1.6,0.5c0.5,0.5,0.6,1.2,0.6,1.8c-0.1,2-0.4,4-0.6,5.9c-0.1,1-0.3,2-0.4,3.1c0,0.2,0,0.4,0,0.6
				c0,0.5-0.1,1.1-0.3,1.7l0,0.4c-0.1,2.3-0.4,4.6-0.8,6.8c-0.1,0.8-0.2,1.5-0.3,2.3c-0.5,3.7-0.8,7.5-1.2,11.2
				c-0.2,1.8-0.4,3.6-0.5,5.5c-0.1,0.9-0.2,1.8-0.3,2.8l-0.2,1.9l-0.3,3.1c-0.2,2.6-0.4,5.2-0.7,7.8c-0.2,2.6-0.5,5.2-0.7,7.8
				l-0.4,4l-2,25.6c0,0.6-0.3,1.6-1.9,1.7C398.3,324.4,398.1,324.4,398,324.4z M359,320.5c5,0.1,10.1,0.2,15.2,0.4
				c3.3,0.1,6.5,0.3,9.7,0.5c2.9,0.2,6,0.3,9,0.4c0.8,0,1.5,0.1,2.3,0.2c1.1,0.1,2.1,0.2,3.1,0.2l0.2-2.9l2.2-26.3
				c0.2-2.6,0.5-5.2,0.7-7.8c0.2-2.6,0.5-5.2,0.7-7.8l0.5-5.1c0.1-0.9,0.2-1.8,0.3-2.8c0.2-1.8,0.4-3.6,0.5-5.5
				c0.4-3.7,0.7-7.5,1.2-11.3c0.1-0.8,0.2-1.5,0.3-2.3c0.3-2.2,0.6-4.5,0.7-6.7l0.1-0.9c0.1-0.3,0.1-0.7,0.2-1.1c0-0.2,0-0.5,0-0.7
				c0.1-1,0.2-2.1,0.4-3.1c0.2-1.8,0.5-3.7,0.6-5.5c-0.8,0-1.6-0.2-2.3-0.7c-0.2-0.1-0.4-0.2-0.6-0.2c-1.7,0-3.4-0.3-5-0.6
				c-0.4-0.1-0.8-0.2-1.3-0.2c-0.5-0.1-0.9-0.1-1.2,0.1c-0.7,0.4-1.4,0.4-2,0.4c-0.7,0-1.4,0.1-1.9,0.4l-0.2,0.1l-0.3,0
				c-0.7,0-1.2,0.2-1.6,0.4l-0.1,0.1l-1,0.4l-0.3,0c-0.5,0-1.1,0.1-1.7,0.2c-0.5,0.1-1,0.3-1.6,0.3l-0.3,0c-0.2,0-0.4,0-0.5,0.1
				l-0.3,0.5l-1.4,0.1l-1.4,0.2c-1.2,0.2-2.5,0.4-3.7,0.7c-1.1,0.2-2.2,0.6-3.2,0.9c-0.7,0.3-1.4,0.5-2,0.6
				c-0.8,0.2-1.7,0.3-2.4,0.4c-0.8,0.1-1.6,0.2-2.4,0.4c-1.9,0.5-3.8,0.3-5.6,0.2c-0.5,0-0.9-0.1-1.4-0.1l-0.9-0.1
				c-1.2-0.1-2.5-0.2-3.8-0.4c-0.3-0.1-0.6-0.1-0.9-0.1c-0.6-0.1-1.1-0.1-1.7-0.3c-0.6-0.2-1.2-0.4-1.9-0.6
				c-1.2-0.4-2.3-0.8-3.4-0.9c-1.1-0.2-2.3-0.4-3.4-1.2c0,0-0.1,0-0.1,0c-2.2-0.3-4.4-0.3-6.5,0c-0.3,0-0.7,0.2-1,0.4
				c0.1,0,0.3,0.1,0.3,0.1l0.3,0.1c0.8,0.3,1.6,0.6,2.4,0.8c1.6,0.3,3.6,2,3.8,3.8c0.2,1.9,0.7,3.6,1.6,5.3c0.3,0.6,0.7,1.4,0.8,2.3
				c0.1,1.1,0.4,2.2,0.9,3c0.1,0.1,0.2,0.3,0.3,0.4c0.3,0.4,0.8,1.1,0.9,2c0.7,0.2,1.2,0.9,1.4,1.5l0.3,0.1l0.7,1
				c0.4,0.6,0.8,1.1,1.2,1.7c0.3,0.4,0.7,0.8,1.1,1.3c0.6,0.6,1.2,1.3,1.6,2.1c0.2,0.4,0.6,1.1,0.2,2c-0.3,0.6-0.5,1.3-0.7,2
				c-0.2,0.6-0.4,1.2-0.6,1.9c-0.9,2.2-2.2,3.8-4,4.8c-0.9,0.5-1.6,1-1.8,1.7c-0.3,0.9-0.8,1.7-1.3,2.4c-0.3,0.5-0.6,0.9-0.8,1.4
				l-0.1,0.2c-0.3,0.6-0.8,1.5-1.6,1.9c-0.4,0.2-0.7,0.6-1.1,1.3c-0.2,0.3-0.4,0.7-0.7,1c-0.1,0.1,0,0.8,0.5,1.3l0.1,0.2l0.6,1
				l0,0.4c0,0.1,0.2,0.3,0.3,0.4c0.1,0.1,0.2,0.2,0.3,0.3c0.1,0.1,0.1,0.1,0.2,0.2c0.3,0.3,0.7,0.6,0.9,1.2c0.3,1,1.1,1.6,2,2.4
				l0.4,0.2l0.1,0.4c0,0.1,0,0.2,0.1,0.3c0,0,0,0,0,0l0.2,0.1l0.3,1.1l0,0l0.1,0.1l0.1,0.2c0.4,1,1,1.7,1.9,2.1l0.3,0.1l0.2,0.3l0,0
				c0.2,0.2,0.3,0.4,0.5,0.6c0.2,0.3,0.3,0.6,0.4,0.9c0.1,0.1,0.1,0.3,0.2,0.4c0.1,0,0.1,0.1,0.2,0.2l-0.1,0.1l0.1,0.2l0.4,0.2
				l0.2,0.7c0.1,0.4,0.3,0.6,0.7,1c0.3,0.3,0.7,0.7,1,1.3l0.1,0.1c0.1,0.1,0.2,0.4,0.3,0.4l0.5,0.1l0.2,0.3c0.2,0.1,0.3,0.3,0.5,0.4
				c0.3,0.3,0.5,0.5,0.8,0.6l0.1,0.1l0.6,0.3l0,0.7c0,0,0.2,0.1,0.3,0.1c0.1,0.1,0.2,0.1,0.3,0.2c1.1,0.8,1.7,1.8,1.9,3.2
				c0.1,0.6,0.3,1.2,0.6,1.6l0.2,0.3l-0.1,1l-0.2,0.2l0,0.2l0,0.1c-0.1,0.7-0.1,1.5-0.1,2.4c0,1.1,0,2.2-0.3,3.4
				c-0.2,0.8-0.3,1.6-0.5,2.5c-0.1,0.8-0.2,1.5-0.4,2.3l-0.1,0.4l-0.2,0.2C358.9,319.3,358.9,319.9,359,320.5
				C359,320.5,359,320.5,359,320.5z M335.4,234.8l1.1,0.3c0,0,0-0.1,0-0.2L335.4,234.8z"/>
			<path class="st3" d="M98.7,241c-0.5,0-0.9-0.1-1.3-0.4c-0.7-0.5-0.7-1.3-0.8-2.6c-0.1-1.2-0.2-2.3-0.3-3.5
				c-0.1-0.9-0.2-1.9-0.2-2.8c0-0.3,0-0.5,0-0.7c-0.1-1.9-0.1-3.9-0.1-5.6c-0.7-4.6-1.1-9.3-1.6-13.9c-0.4-3.9-0.8-7.9-1.3-11.9
				c-0.5-3.7-0.9-7.5-1.2-11.1c-0.2-1.6-0.3-3.2-0.5-4.9c-0.1-0.3,0-0.6,0-0.9c-0.3-1.1-0.4-2.3-0.4-3.4c0-0.3,0-0.6,0-0.9l0-0.1
				c-0.4-1.2-0.5-2.5-0.6-3.7c0-0.4-0.1-0.9-0.1-1.3c-0.1-1.1-0.2-2.1-0.3-3.2c-0.1-1.1-0.2-2.3-0.3-3.4c-0.6-4.6-1.1-9.3-1.5-13.8
				l-0.5-4.8c-0.5-4.3-0.9-8.8-1.3-13.2l-0.1-1c-0.1-1-0.2-1.9-0.2-2.9c0,0,0-0.1,0-0.1l0-2.3l1.1,0.9c0.3-0.1,0.5-0.1,0.6-0.1
				l5-0.4c2.4-0.2,4.8-0.4,7.2-0.6l1.5-0.1c4.1-0.4,8.2-0.7,12.2-1.1c4-0.4,8-0.8,12-1.2l7.5-0.7c2.3-0.2,4.6-0.5,7-0.7l0.3,0
				c0.4-0.1,1-0.1,1.6,0c0.4-0.1,0.8-0.1,1.1,0.1l0.3,0c0,0,0.1,0,0.1,0c0.3-0.1,0.9-0.2,1.5,0c0.3,0.2,0.6,0.4,0.9,0.6
				c0,0.5,0,1.1,0.1,1.6c-0.3,1.1-1.3,1.5-1.8,1.7c-0.1,0-0.2,0.1-0.2,0.1c-0.5,0.9-1.1,1.9-1.8,2.8c-0.6,0.7-1.1,1.5-1.3,2.5
				c-0.1,0.9-0.7,1.5-0.9,1.8l-0.2,0.2c-0.6,0.6-1.1,1-1.2,1.7c-0.2,0.8-0.9,1.5-1.8,1.6c-0.1,0-0.1,0-0.1,0c0,0-0.1,0.1,0,0.5
				c0,1.3-0.1,2.5-0.2,3.8c-0.1,0.9-0.1,1.8-0.2,2.7c0,2.4,0.3,4.3,1,5.9c0.3,0.8,0.5,1.5,0.7,2.3c0,0.2,0.1,0.4,0.1,0.6
				c0.2,0.9,0.6,1.7,1.1,2.6l0.1,0.3c0.1,0.2,0.2,0.5,0.3,0.7c0,0.1,0.1,0.2,0.1,0.4c0.1,0.2,0.2,0.4,0.3,0.5c0.4,0.8,0.7,1.5,1.3,2
				c0.7,0.5,1,1.2,1.4,1.9c0.1,0.3,0.3,0.5,0.4,0.8c0.7,1.1,1.4,2.1,1.9,3.3c0.4,0.9,1,1.7,2.1,2.7c0.3,0.2,0.4,0.5,0.6,0.7
				c0.2,0.2,0.3,0.4,0.4,0.4c0.7,0.2,1.1,1,1,1.7c-0.1,0.5,0.1,0.9,0.4,1.6c0.1,0.3,0.3,0.7,0.4,1.1c0,0,0,0,0.1,0.1l0.1,0.1
				c0.7,0.7,1.5,1.6,1.3,3.1c0,0.1,0.1,0.2,0.3,0.5c0.7,0.9,0.9,2,0.7,3.3c-0.1,0.5,0.1,0.8,0.5,1.5c0.5,0.8,0.8,1.4,1,2.1
				c0.3,1.1,0.6,1.9,1.3,2.4c1,0.7,1.1,1.7,1.2,2.3c0,0.2,0.1,0.5,0.1,0.6c0.1,0.2,0.1,0.4,0.2,0.6c0,0.1,0.1,0.3,0.1,0.3
				c0.5,0.7,0.5,1.5,0,2.2c0,0.1,0,0.2,0,0.3c0.8,1.7,0.9,3.5,0.9,5.2l0,0.2c0,0.4,0,0.9,0.2,1c0.7,0.8,1.1,1.8,1.4,2.7
				c0.1,0.3,0.2,0.6,0.3,0.8c0.7,1.7,1.4,3,2.2,4.2c0.4,0.6,0.7,1.4,1,2.1c0.1,0.2,0.2,0.4,0.3,0.7c0.7,1.8,0.6,3.5,0.3,5.1
				c0.3,0.2,0.5,0.5,0.7,0.7c0.1,0.1,0.2,0.3,0.3,0.3c1.2,0.2,1.5,1.1,1.4,1.6c0,0.3-0.2,1.2-1.4,1.4c0,0-0.2,0.1-0.3,0.2
				c-0.2,0.2-0.5,0.4-0.8,0.5c-0.5,0.6-1.2,0.9-1.7,1.2c-0.3,0.1-0.6,0.3-0.8,0.4c-0.9,0.8-1.5,1.7-1.8,2.7l-0.3,0.9l-0.3,0
				l-0.2,0.9l-0.3,0.2l0,0.1l-0.2,0.3c-1.2,1.6-2.7,2.9-4.8,4c-0.9,0.5-1.8,0.8-2.7,1.2c-0.7,0.3-1.4,0.5-2,0.9l-0.1,0.1
				c-1,0.8-2.2,1.1-3.2,1.4c-0.5,0.1-1.1,0.3-1.5,0.5c-1.8,0.8-3.7,1.4-5.6,2l-1,0.3c-1.5,0.5-3.1,0.7-4.8,0.5c-0.6-0.1-1.3,0-2,0.2
				c-0.6,0.1-1.2,0.2-1.9,0.2c-0.8,0-1.5,0.1-2.3,0.2c-0.5,0.1-1,0.1-1.5,0.2c-1.1,0.1-2.2,0-3.3-0.2c-1.7-0.4-3.5-0.2-5,0
				c-0.1,0-0.3,0-0.4,0c-0.8,0.4-1.6,0.6-2.4,0.5c-1.9-0.2-3.8-0.1-6,0.2c-0.6,0.1-1.1,0-1.5-0.1c-0.3-0.1-0.6-0.1-0.8-0.1
				c-1.2,0.2-2.5,0.4-3.6,0.5l-0.9,0.1C99.5,241,99.1,241,98.7,241z M93.7,183.9c0.2,1.5,0.3,3,0.5,4.5c0.4,3.6,0.7,7.4,1.2,11
				c0.5,4,0.9,8,1.3,12c0.5,4.6,0.9,9.3,1.6,13.9l0,0.1l0,0.1c0,1.7-0.1,3.7,0.1,5.6l0,0.1l0,0.1c0,0.1,0,0.2,0,0.2l0,0.1
				c0.1,0.9,0.2,1.8,0.2,2.7c0.1,1.1,0.2,2.3,0.3,3.5c0,0.3,0.1,0.6,0.1,0.9c0.2,0,0.5-0.1,0.8-0.1l1-0.1c1.2-0.1,2.3-0.3,3.5-0.5
				c0.6-0.1,1.2,0,1.6,0c0.3,0.1,0.6,0.1,0.8,0.1c2.4-0.4,4.5-0.4,6.6-0.2c0.5,0.1,0.9,0,1.2-0.3l0.3-0.2l0.6,0c0,0,0.1,0,0.1,0
				c0.1,0,0.1,0,0.2,0c1.7-0.2,3.8-0.4,5.8,0.1c1,0.2,1.8,0.3,2.6,0.2c0.5,0,1-0.1,1.4-0.2c0.9-0.1,1.7-0.3,2.6-0.3
				c0.5,0,1.1-0.1,1.6-0.2c0.8-0.1,1.6-0.2,2.6-0.2c1.4,0.1,2.7,0,3.8-0.4l1-0.3c1.8-0.6,3.7-1.2,5.4-2c0.6-0.3,1.2-0.4,1.8-0.6
				c1-0.3,1.9-0.5,2.5-1.1l0.2-0.2l0.3-0.1c0.7-0.3,1.4-0.6,2.1-0.9c0.9-0.3,1.7-0.7,2.5-1.1c1.7-0.9,2.9-1.9,3.8-3.1
				c0-0.1,0.1-0.2,0.1-0.2c-0.4-0.5-0.3-1.1-0.2-1.4c0.2-0.5,0.6-1.1,1.6-1.1c0.5-1,1.1-1.9,2-2.7c0.5-0.4,1-0.7,1.5-0.9
				c0.5-0.2,0.8-0.4,0.9-0.6l0.3-0.5l0.6-0.1c0,0,0.1,0,0.1-0.1c-0.1-0.1-0.2-0.3-0.3-0.4c-0.1-0.1-0.2-0.3-0.3-0.3
				c-0.2,0-1.2-0.3-0.9-1.8c0.3-1.4,0.4-2.8-0.1-4.2c-0.1-0.2-0.2-0.5-0.3-0.7c-0.2-0.6-0.5-1.2-0.8-1.6c-0.9-1.3-1.6-2.8-2.4-4.6
				c-0.1-0.3-0.2-0.6-0.4-1c-0.3-0.8-0.5-1.4-0.9-1.9c-0.7-0.8-0.7-1.7-0.7-2.5l0-0.3c0-1.5-0.1-3-0.7-4.3c-0.4-0.8-0.4-1.6,0-2.4
				c-0.2-0.3-0.3-0.7-0.3-0.9c0-0.1,0-0.2-0.1-0.3c-0.2-0.4-0.2-0.8-0.3-1.1c-0.1-0.6-0.1-0.7-0.3-0.8c-1.4-1-1.9-2.4-2.3-3.7
				c-0.1-0.4-0.3-0.9-0.7-1.4c-0.5-0.8-1.1-1.7-0.9-3.1c0.1-0.6,0-1.2-0.3-1.6c-0.4-0.6-0.8-1.3-0.7-2.1c0.1-0.4-0.1-0.6-0.6-1.2
				l-0.1-0.1c-0.2-0.3-0.5-0.5-0.6-1c-0.1-0.3-0.2-0.6-0.3-0.9c-0.3-0.6-0.6-1.3-0.6-2.2c-0.5-0.3-0.8-0.7-1-1
				c-0.1-0.1-0.2-0.3-0.3-0.4c-1.2-1.2-2.1-2.3-2.6-3.4c-0.5-1-1.1-2-1.7-2.9c-0.2-0.4-0.4-0.7-0.6-1c-0.3-0.5-0.5-0.9-0.8-1.2
				c-1-0.8-1.5-1.8-1.9-2.7l-0.3-0.5c-0.1-0.3-0.2-0.6-0.3-0.8c0-0.1-0.1-0.2-0.1-0.4l-0.1-0.3c-0.5-1-1-2-1.2-3.1
				c0-0.2-0.1-0.4-0.1-0.6c-0.1-0.7-0.3-1.3-0.5-1.8c-0.9-1.9-1.3-4.2-1.2-6.9c0-1,0.1-2,0.2-2.9c0.1-1.2,0.2-2.4,0.2-3.5
				c-0.1-2.2,1.2-2.7,2.1-2.9c0.3-1.2,1.1-2,1.8-2.7l0.2-0.2c0.2-0.2,0.3-0.4,0.3-0.4c0.2-1.5,1-2.7,1.8-3.6
				c0.7-0.9,1.3-1.8,1.7-2.7l0.1-0.3l0.2-0.1l-0.1,0l-0.6,0l-0.3-0.1c-0.2-0.1-0.4,0-0.7,0c-0.1,0-0.3,0-0.4,0
				c-2.3,0.2-4.6,0.4-6.9,0.7l-7.5,0.7c-4,0.4-8,0.8-12,1.2c-4.1,0.4-8.2,0.8-12.2,1.1l-1.5,0.1c-2.4,0.2-4.8,0.4-7.2,0.6l-4.1,0.4
				c0,0.2,0.1,0.3,0.1,0.5l-0.6,0.1c0,0.1,0,0.1,0,0.2l0.6-0.1l0.1,0.5l-0.6,0.1c0,0.3,0.1,0.6,0.1,1c0,0.4,0.1,0.7,0.1,1.1
				c0.4,4.4,0.8,8.9,1.3,13.2l0,0.3l0.9,0l0,0.6c0,0.4,0,0.8,0,1.3c0,0.4,0,0.9-0.1,1.4l-0.1,0.4l-0.3,0.3l-0.1-0.1l0.1,0.8
				c0.5,4.5,0.9,9.2,1.5,13.7c0.1,1.2,0.2,2.4,0.3,3.5c0.1,1,0.2,2.1,0.3,3.1c0.1,0.5,0.1,0.9,0.1,1.4c0.1,1.2,0.2,2.3,0.5,3.3
				l0.1,0.5c0,0.3,0,0.6,0,0.9c0.1,1.2,0.1,2.2,0.5,3.3l0.3,1L93.7,183.9z"/>
		</g>
	</g>
</g>
<g id="Hexagone">
	<path class="st3" d="M245.5,0L0,141.7v283.5l245.5,141.7L491,425.2V141.7L245.5,0z M474.2,415.5l-228.7,132l-228.7-132V151.4
		l228.7-132l228.7,132V415.5z"/>
</g>
<g id="Text">
	<g>
		<g>
			<path class="st2" d="M112.8,362.9l0.6,3.6c2.4-3.9,5.7-4.5,8.9-4.5c3.3,0,6.4,1.3,8.1,3l-3.5,6.8c-1.6-1.3-3.1-2-5.6-2
				c-4.1,0-7.9,2.2-7.9,8v16.6h-7.8v-31.5H112.8z"/>
			<path class="st2" d="M141,362.7v38.3c0,7.8-3.4,12.8-10.5,12.8c-2.3,0-4.7-0.6-7-2.1l2.8-6.1c1.3,0.6,2.6,1,3.8,0.9
				c2.6-0.1,3.1-2.1,3.1-5.6v-38.3H141z M132.6,353.9c0,6.1,9.2,6.1,9.2,0C141.8,347.8,132.6,347.8,132.6,353.9z"/>
			<path class="st2" d="M180.4,349.7v44.7h-7.3l-0.5-4.3c-2.4,3.8-6.3,5-10.2,5c-9.3,0-16.2-6.1-16.2-16.5c0-10.9,6.8-16.5,16-16.5
				c3.3,0,8.5,1.8,10.4,5v-17.4H180.4z M154,378.6c0,5.5,4,9.3,8.9,9.3c4.9,0,9.1-3.6,9.1-9.3c0-5.5-4.2-9.2-9.1-9.2
				C157.9,369.4,154,372.9,154,378.6z"/>
			<path class="st4" d="M197.1,374.9V368h6.5c4.5,0,9.3-1.2,9.4-5.4c0-2.6-2-5.9-9.2-5.9c-4,0-9.3,1.4-9.3,5.5H186
				c0-9.7,9.6-13.2,17.8-13.2c8.4,0,17.5,4.1,17.6,13.6c0,3.5-2.3,7.6-6.2,8.8c4.3,1.4,7.3,5.6,7.3,9.4c0,10.9-10.3,14.2-18.9,14.2
				c-8.5,0-18.2-3.6-18.3-13.7h8.5c0,4.6,6.2,6.2,9.8,6.2c4.3,0,10-1.8,10-6.6c0-2.7-1.5-6-9.5-6H197.1z"/>
			<path class="st2" d="M236.7,349.7v17.4c1.9-3.3,7-5,10.4-5c9.2,0,16,5.6,16,16.5c0,10.4-7,16.5-16.2,16.5c-3.8,0-7.7-1.3-10.2-5
				l-0.5,4.3h-7.3v-44.7H236.7z M237.2,378.6c0,5.7,4.2,9.3,9.1,9.3c5,0,8.9-3.8,8.9-9.3c0-5.7-4-9.2-8.9-9.2
				C241.5,369.4,237.2,373.1,237.2,378.6z"/>
			<path class="st2" d="M275.5,381.4c0.5,3.9,3.9,6.7,9.4,6.7c2.9,0,6.6-1.1,8.4-2.9l5,4.9c-3.3,3.5-8.8,5.1-13.5,5.1
				c-10.9,0-17.3-6.7-17.3-16.8c0-9.6,6.5-16.5,16.7-16.5c10.5,0,17.1,6.5,15.9,19.5H275.5z M292.7,374.9c-0.5-4.1-3.7-6.1-8.2-6.1
				c-4.2,0-7.7,2-8.8,6.1H292.7z"/>
			<path class="st2" d="M329.3,394.4v-16.5c0-4.8-2.6-8.4-7.6-8.4c-4.8,0-8.1,4-8.1,8.8v16.1h-7.7v-31.6h7l0.5,4.3
				c3.2-3.1,6.4-4.7,10.4-4.7c7.4,0,13.4,5.6,13.4,15.5v16.6H329.3z"/>
			<path class="st2" d="M370.9,390.3c-3.6,3.6-7.5,5-12.1,5c-9.1,0-16.7-5.5-16.7-16.7c0-11.2,7.6-16.7,16.7-16.7
				c4.5,0,7.9,1.3,11.4,4.7l-4.9,5.2c-1.9-1.7-4.2-2.5-6.3-2.5c-5.2,0-9.1,3.8-9.1,9.3c0,6,4.1,9.2,8.9,9.2c2.5,0,5-0.7,6.9-2.6
				L370.9,390.3z"/>
			<path class="st2" d="M382.1,349.6v17.5c2.8-3.6,6.3-4.7,9.8-4.7c8.9,0,12.9,6.1,12.9,15.3v16.6h-7.8v-16.6c0-5.8-3-8.2-7.2-8.2
				c-4.6,0-7.8,3.9-7.8,8.6v16.1h-7.8v-44.7H382.1z"/>
		</g>
	</g>
	<g>
		<g>
			<path class="st2" d="M248,519.9c0.4,0,0.8,0.1,1.3,0.3l-0.6-1.1l1.3-0.7l4.4,7.6c0.6,1.1,0.9,2,1,2.8c0.1,1.5-0.7,2.7-2.3,3.6
				c-0.9,0.5-1.8,0.8-2.6,0.7c-0.8,0-1.6-0.5-2.1-1.3l1.4-0.8c0.3,0.3,0.6,0.5,0.9,0.6c0.5,0.1,1.1,0,1.8-0.4
				c1.1-0.6,1.6-1.4,1.5-2.4c-0.1-0.6-0.4-1.4-1.1-2.5c0,0.6-0.2,1.1-0.5,1.5c-0.3,0.4-0.7,0.8-1.4,1.2c-0.9,0.5-1.9,0.7-2.9,0.4
				c-1-0.3-2-1.1-2.9-2.6c-0.8-1.4-1.1-2.7-0.9-3.9c0.2-1.2,0.8-2,1.8-2.6C246.6,520,247.3,519.9,248,519.9z M249,521.3
				c-0.7-0.3-1.4-0.2-2.1,0.2c-1,0.6-1.4,1.4-1.2,2.6c0.1,0.6,0.4,1.3,0.8,2.1c0.5,0.9,1.1,1.5,1.8,1.8c0.7,0.3,1.3,0.2,2-0.2
				c1-0.6,1.5-1.4,1.3-2.6c-0.1-0.6-0.3-1.3-0.7-2C250.4,522.2,249.7,521.6,249,521.3z"/>
			<path class="st2" d="M250.2,514l1.4-0.8l0.9,1.6l-1.4,0.8L250.2,514z M252,517.2l1.4-0.8l4.8,8.3l-1.4,0.8L252,517.2z"/>
			<path class="st2" d="M254.5,512.6l1.4-0.8l1.3,2.3l1.3-0.8l0.7,1.1l-1.3,0.8l3.1,5.4c0.2,0.3,0.4,0.4,0.6,0.4
				c0.1,0,0.3-0.1,0.6-0.2c0.1,0,0.1-0.1,0.2-0.1c0.1,0,0.2-0.1,0.3-0.2l0.6,1.1c-0.1,0.1-0.3,0.3-0.4,0.4c-0.2,0.1-0.3,0.2-0.5,0.4
				c-0.7,0.4-1.2,0.5-1.6,0.3c-0.4-0.2-0.8-0.6-1.1-1.1l-3.2-5.5l-1.1,0.7l-0.7-1.1l1.1-0.7L254.5,512.6z"/>
			<path class="st2" d="M258.2,509.4l1.4-0.8l2.5,4.3c0.1-0.6,0.2-1.1,0.4-1.4c0.3-0.6,0.8-1,1.4-1.4c1.2-0.7,2.3-0.7,3.2-0.2
				c0.5,0.3,1,0.9,1.5,1.7l3.1,5.3l-1.4,0.8l-3-5.3c-0.4-0.6-0.7-1-1-1.2c-0.5-0.3-1.1-0.3-1.8,0.1c-0.6,0.3-1,0.8-1.2,1.5
				c-0.2,0.7,0,1.6,0.6,2.7l2.6,4.4l-1.4,0.8L258.2,509.4z"/>
			<path class="st2" d="M270.2,506.6l3.2,5.5c0.2,0.4,0.5,0.7,0.8,0.9c0.5,0.4,1.1,0.3,1.8-0.1c1-0.6,1.4-1.4,1.2-2.5
				c-0.1-0.6-0.4-1.3-0.8-2.1l-2.4-4.1l1.4-0.8l4.8,8.3l-1.3,0.8l-0.7-1.2c0,0.4-0.1,0.8-0.2,1.2c-0.3,0.7-0.8,1.3-1.6,1.8
				c-1.2,0.7-2.2,0.8-3.1,0.2c-0.5-0.3-0.9-0.8-1.3-1.5l-3.3-5.7L270.2,506.6z"/>
			<path class="st2" d="M275.8,499.2l1.4-0.8l2.4,4.2c0.1-0.6,0.3-1.1,0.6-1.6c0.3-0.5,0.7-0.8,1.2-1.1c1-0.6,2.1-0.7,3.1-0.4
				c1.1,0.3,2,1.2,2.8,2.6c0.8,1.3,1.1,2.6,0.9,3.8c-0.1,1.2-0.8,2.2-1.9,2.8c-0.6,0.4-1.3,0.5-1.9,0.5c-0.4,0-0.8-0.2-1.3-0.4
				l0.6,1.1l-1.3,0.7L275.8,499.2z M286.7,505.7c0-0.8-0.2-1.7-0.8-2.7c-0.5-0.9-1.1-1.5-1.8-1.9c-0.7-0.4-1.4-0.3-2.2,0.1
				c-0.6,0.4-1.1,0.9-1.3,1.7c-0.2,0.8,0,1.7,0.6,2.8c0.5,0.8,0.9,1.4,1.4,1.7c0.9,0.7,1.9,0.8,2.9,0.2
				C286.2,507.2,286.6,506.6,286.7,505.7z"/>
			<path class="st2" d="M290.7,503.6l1.6-0.9l1,1.7l-1.6,0.9L290.7,503.6z"/>
			<path class="st2" d="M296.8,491.9c0.9,0.1,1.7,0.7,2.4,1.7l-1.4,0.8c-0.4-0.5-0.8-0.8-1.3-1c-0.5-0.2-1.1-0.1-1.7,0.3
				c-0.9,0.5-1.3,1.3-1.2,2.4c0.1,0.7,0.4,1.5,0.8,2.3c0.5,0.8,1.1,1.4,1.7,1.8s1.4,0.3,2.2-0.1c0.6-0.3,0.9-0.8,1.1-1.3
				c0.1-0.6,0.1-1.2-0.1-1.9l1.4-0.8c0.5,1.2,0.6,2.2,0.2,3.1c-0.3,0.9-1,1.6-1.9,2.1c-1.1,0.6-2.2,0.7-3.3,0.3
				c-1.1-0.4-2-1.2-2.7-2.4c-0.8-1.5-1.1-2.8-0.9-4c0.2-1.2,0.9-2.2,2-2.8C295,492,295.9,491.8,296.8,491.9z"/>
			<path class="st2" d="M305.5,487.3c1.2,0.3,2.1,1.1,2.9,2.5c0.8,1.3,1.1,2.6,0.9,3.9c-0.1,1.3-0.9,2.3-2.3,3.1
				c-1.1,0.7-2.3,0.8-3.4,0.4c-1.1-0.4-2.1-1.2-2.8-2.5c-0.8-1.4-1.1-2.7-0.9-4s0.9-2.2,2.1-2.9C303.3,487.2,304.4,487,305.5,487.3z
				 M307.9,493.4c-0.1-0.9-0.3-1.8-0.8-2.6c-0.4-0.8-0.9-1.3-1.5-1.7c-0.8-0.5-1.7-0.5-2.7,0c-0.9,0.5-1.3,1.2-1.3,2.1
				c0,0.9,0.3,1.8,0.8,2.7c0.5,0.9,1.1,1.5,1.9,1.9c0.7,0.4,1.5,0.3,2.4-0.2C307.5,495,307.9,494.3,307.9,493.4z"/>
			<path class="st2" d="M307.8,484.9l1.4-0.8l0.7,1.2c0.1-0.6,0.2-1.1,0.4-1.4c0.3-0.6,0.7-1,1.3-1.4c0.7-0.4,1.3-0.5,1.9-0.4
				c0.3,0.1,0.7,0.2,1.1,0.5c0.1-0.6,0.2-1.2,0.5-1.6c0.3-0.5,0.7-0.8,1.2-1.1c1.1-0.6,2.1-0.7,3-0.1c0.5,0.3,0.9,0.8,1.3,1.6
				l3.2,5.6l-1.5,0.8l-3.3-5.8c-0.3-0.6-0.7-0.9-1.1-0.9c-0.4,0-0.8,0-1.2,0.3c-0.5,0.3-0.9,0.8-1.1,1.4c-0.2,0.6,0,1.3,0.5,2.2
				l2.8,4.9l-1.4,0.8l-3.1-5.4c-0.3-0.6-0.6-0.9-0.9-1.1c-0.4-0.3-0.9-0.2-1.5,0.1c-0.5,0.3-0.9,0.8-1.1,1.4c-0.2,0.7,0,1.5,0.6,2.6
				l2.6,4.4l-1.4,0.8L307.8,484.9z"/>
			<path class="st2" d="M321.9,472.6l1.2-0.7l3,13.5l-1.2,0.7L321.9,472.6z"/>
			<path class="st2" d="M325.6,474.6l1.3-0.8l0.8,1.4c-0.1-0.3,0-0.8,0.2-1.5c0.2-0.6,0.6-1.1,1.1-1.5c0,0,0.1,0,0.1-0.1
				c0.1,0,0.2-0.1,0.3-0.2l0.9,1.5c-0.1,0-0.2,0.1-0.2,0.1c-0.1,0-0.2,0.1-0.2,0.1c-0.7,0.4-1.1,0.9-1.2,1.6s0,1.3,0.3,1.9l2.8,4.8
				l-1.4,0.8L325.6,474.6z"/>
			<path class="st2" d="M331.4,469.3l-1.4,0.8l-0.9-1.6l1.4-0.8L331.4,469.3z M335.6,482.8c0.6-0.4,1-0.7,1-0.8c0.1-0.2,0-0.5-0.3-1
				l-5.4-9.4l1.4-0.8l5.5,9.5c0.4,0.6,0.5,1.1,0.5,1.5c0,0.7-0.5,1.3-1.4,1.8c-0.1,0-0.1,0.1-0.2,0.1c-0.1,0-0.2,0.1-0.4,0.2
				L335.6,482.8z"/>
			<path class="st2" d="M339.2,467.2c0.3,0,0.8,0.1,1.3,0.3l-2.4-4.2l1.3-0.8L346,474l-1.3,0.7l-0.7-1.2c0,0.7-0.2,1.3-0.5,1.8
				c-0.3,0.5-0.8,0.9-1.3,1.2c-0.9,0.5-2,0.6-3.1,0.2c-1.1-0.4-2.1-1.2-2.8-2.5c-0.7-1.2-1-2.4-0.9-3.7c0.1-1.2,0.7-2.2,1.9-2.9
				C338,467.3,338.6,467.1,339.2,467.2z M339.6,475.2c0.7,0.4,1.5,0.3,2.3-0.1c0.6-0.4,1-1,1.1-1.8c0.1-0.8-0.2-1.7-0.8-2.8
				c-0.6-1.1-1.3-1.7-2-2c-0.7-0.3-1.4-0.2-2,0.2c-0.7,0.4-1.1,1-1.3,1.8c-0.1,0.8,0.1,1.7,0.7,2.8
				C338.3,474.2,338.9,474.8,339.6,475.2z"/>
			<path class="st2" d="M344,464l6.1,5.5l-1.6-8.1l1.5-0.9l1.7,10.2l-1.5,0.9l-7.9-6.6L344,464z"/>
			<path class="st2" d="M356.6,457.1c0.7,0,1.3,0.1,1.9,0.3c0.5,0.3,1,0.6,1.4,1.1c0.3,0.3,0.7,0.9,1.2,1.8l-6.1,3.5
				c0.5,0.8,1.1,1.4,1.8,1.7c0.7,0.3,1.4,0.2,2.2-0.2c0.7-0.4,1.2-1,1.3-1.7c0.1-0.4,0.1-0.9,0-1.3l1.4-0.8c0.1,0.3,0.2,0.7,0.2,1.2
				c0,0.5,0,0.9-0.2,1.3c-0.2,0.7-0.6,1.2-1.1,1.8c-0.3,0.3-0.6,0.5-1.1,0.8c-1,0.6-2.1,0.7-3.3,0.4c-1.2-0.3-2.1-1.2-2.9-2.5
				c-0.8-1.3-1-2.6-0.8-3.9c0.2-1.3,1-2.2,2.1-2.9C355.2,457.3,355.9,457.1,356.6,457.1z M359,460c-0.4-0.6-0.8-1-1.2-1.2
				c-0.8-0.5-1.6-0.4-2.5,0.1c-0.6,0.4-1,0.9-1.2,1.6c-0.2,0.7-0.1,1.4,0.3,2.2L359,460z"/>
			<path class="st2" d="M360.2,454.7l1.3-0.8l0.8,1.4c-0.1-0.3,0-0.8,0.2-1.5c0.2-0.6,0.6-1.1,1.1-1.5c0,0,0.1,0,0.1-0.1
				c0.1,0,0.2-0.1,0.3-0.2l0.9,1.5c-0.1,0-0.2,0.1-0.2,0.1c-0.1,0-0.2,0.1-0.2,0.1c-0.7,0.4-1.1,0.9-1.2,1.6c-0.1,0.7,0,1.3,0.3,1.9
				l2.8,4.8L365,463L360.2,454.7z"/>
			<path class="st2" d="M369.6,456.9c0.3,0.4,0.6,0.7,1,0.9c0.6,0.2,1.4,0.1,2.2-0.4c0.5-0.3,0.9-0.7,1.2-1.1c0.3-0.5,0.3-0.9,0-1.4
				c-0.2-0.4-0.5-0.5-0.9-0.5c-0.3,0-0.7,0.1-1.4,0.3l-1.3,0.4c-0.8,0.2-1.5,0.3-1.9,0.3c-0.8,0-1.4-0.4-1.8-1.1
				c-0.5-0.8-0.5-1.6-0.3-2.4c0.3-0.8,0.9-1.5,1.9-2.1c1.3-0.7,2.4-0.9,3.4-0.5c0.6,0.3,1.1,0.7,1.4,1.2l-1.3,0.8
				c-0.2-0.3-0.5-0.5-0.8-0.7c-0.5-0.2-1.2,0-2,0.4c-0.5,0.3-0.9,0.6-1,1c-0.2,0.4-0.1,0.7,0.1,1c0.2,0.4,0.6,0.5,1,0.6
				c0.3,0,0.7-0.1,1.1-0.2l1.1-0.3c1.1-0.3,2-0.5,2.4-0.5c0.8,0,1.3,0.5,1.8,1.2c0.4,0.7,0.5,1.5,0.3,2.4c-0.3,0.9-1,1.6-2.1,2.3
				c-1.2,0.7-2.3,0.9-3.1,0.7s-1.5-0.8-2-1.6L369.6,456.9z"/>
			<path class="st2" d="M378.7,444.3c0.7,0,1.3,0.1,1.9,0.3c0.5,0.3,1,0.6,1.4,1.1c0.3,0.3,0.7,0.9,1.2,1.8l-6.1,3.5
				c0.5,0.8,1.1,1.4,1.8,1.7c0.7,0.3,1.4,0.2,2.2-0.2c0.7-0.4,1.2-1,1.3-1.7c0.1-0.4,0.1-0.8,0-1.3l1.4-0.8c0.1,0.3,0.2,0.7,0.2,1.2
				c0,0.5,0,0.9-0.2,1.3c-0.2,0.7-0.6,1.2-1.1,1.8c-0.3,0.3-0.6,0.5-1.1,0.8c-1,0.6-2.1,0.7-3.3,0.4c-1.2-0.3-2.1-1.2-2.9-2.5
				c-0.8-1.3-1-2.6-0.8-3.9s1-2.2,2.1-2.9C377.4,444.5,378,444.3,378.7,444.3z M381.1,447.2c-0.4-0.6-0.8-1-1.2-1.2
				c-0.8-0.5-1.6-0.4-2.5,0.1c-0.6,0.4-1,0.9-1.2,1.6c-0.2,0.7-0.1,1.4,0.3,2.2L381.1,447.2z"/>
			<path class="st2" d="M383.1,437.3l1.2-0.7l3,13.5l-1.2,0.7L383.1,437.3z"/>
			<path class="st2" d="M386.8,439.3l1.3-0.8l0.8,1.4c-0.1-0.3,0-0.8,0.2-1.5c0.2-0.6,0.6-1.1,1.1-1.5c0,0,0.1,0,0.1-0.1
				c0.1,0,0.2-0.1,0.3-0.2l0.9,1.5c-0.1,0-0.2,0.1-0.2,0.1s-0.2,0.1-0.2,0.1c-0.7,0.4-1.1,0.9-1.2,1.6c-0.1,0.7,0,1.3,0.3,1.9
				l2.8,4.8l-1.4,0.8L386.8,439.3z"/>
			<path class="st2" d="M392.6,434l-1.4,0.8l-0.9-1.6l1.4-0.8L392.6,434z M396.7,447.5c0.6-0.4,1-0.7,1-0.8c0.1-0.2,0-0.5-0.3-1
				l-5.4-9.4l1.4-0.8l5.5,9.5c0.4,0.6,0.5,1.1,0.5,1.5c0,0.7-0.5,1.3-1.4,1.8c-0.1,0-0.1,0.1-0.2,0.1c-0.1,0-0.2,0.1-0.4,0.2
				L396.7,447.5z"/>
			<path class="st2" d="M400.3,431.8c0.3,0,0.8,0.1,1.3,0.3l-2.4-4.2l1.3-0.8l6.6,11.5l-1.3,0.7l-0.7-1.2c0,0.7-0.2,1.3-0.5,1.8
				c-0.3,0.5-0.8,0.9-1.3,1.2c-0.9,0.5-2,0.6-3.1,0.2c-1.1-0.4-2.1-1.2-2.8-2.5c-0.7-1.2-1-2.4-0.9-3.7c0.1-1.2,0.7-2.2,1.9-2.9
				C399.1,432,399.7,431.8,400.3,431.8z M400.8,439.9c0.7,0.4,1.5,0.3,2.3-0.1c0.6-0.4,1-1,1.1-1.8c0.1-0.8-0.2-1.7-0.8-2.8
				c-0.6-1.1-1.3-1.7-2-2c-0.7-0.3-1.4-0.2-2,0.2c-0.7,0.4-1.1,1-1.2,1.8c-0.1,0.8,0.1,1.7,0.7,2.8
				C399.4,438.9,400.1,439.5,400.8,439.9z"/>
			<path class="st2" d="M409,436.5c-1-0.4-1.8-1.1-2.4-2.1l1.5-0.8c0.5,0.7,0.9,1.1,1.3,1.3c0.7,0.4,1.5,0.3,2.5-0.3
				c0.7-0.4,1.2-1,1.4-1.6c0.2-0.7,0.1-1.3-0.2-1.9c-0.4-0.8-1-1.2-1.6-1.2c-0.6,0-1.4,0.2-2.2,0.7c-0.1,0.1-0.2,0.1-0.3,0.2
				c-0.1,0.1-0.2,0.1-0.3,0.2l-0.7-1.2c0.2-0.1,0.3-0.1,0.4-0.2c0.1-0.1,0.2-0.1,0.3-0.2c0.5-0.3,0.9-0.6,1.1-1
				c0.4-0.6,0.4-1.3,0-2.1c-0.3-0.6-0.8-0.9-1.3-0.9c-0.6-0.1-1.1,0-1.6,0.3c-0.9,0.5-1.4,1.2-1.4,2.1c0,0.5,0.2,1,0.5,1.7l-1.4,0.8
				c-0.5-0.8-0.7-1.6-0.7-2.4c0-1.4,0.7-2.5,2.1-3.3c1.1-0.7,2.2-0.9,3.1-0.8c0.9,0.1,1.6,0.7,2.2,1.7c0.4,0.7,0.5,1.3,0.4,2
				c-0.1,0.4-0.3,0.8-0.5,1.1c0.7-0.2,1.3-0.1,1.9,0.1c0.6,0.3,1.1,0.7,1.5,1.4c0.6,1.1,0.8,2.1,0.5,3.2c-0.3,1.1-1.1,2-2.4,2.7
				C411.2,436.7,410.1,436.9,409,436.5z"/>
			<path class="st2" d="M411.4,420.9l1.4-0.8l2.4,4.2c0.1-0.6,0.3-1.1,0.6-1.5c0.3-0.5,0.7-0.8,1.2-1.1c1-0.6,2.1-0.7,3.1-0.4
				c1.1,0.3,2,1.2,2.8,2.6c0.8,1.3,1.1,2.6,0.9,3.8c-0.1,1.2-0.8,2.2-1.9,2.8c-0.6,0.4-1.3,0.5-1.9,0.5c-0.4,0-0.8-0.2-1.3-0.4
				l0.6,1.1l-1.3,0.7L411.4,420.9z M422.3,427.4c0-0.8-0.2-1.7-0.8-2.7c-0.5-0.9-1.1-1.5-1.8-1.9c-0.7-0.4-1.4-0.3-2.2,0.1
				c-0.6,0.4-1.1,0.9-1.3,1.7c-0.2,0.8,0,1.7,0.6,2.8c0.5,0.8,0.9,1.4,1.4,1.7c0.9,0.7,1.9,0.8,2.9,0.2
				C421.9,428.9,422.2,428.3,422.3,427.4z"/>
			<path class="st2" d="M427.5,416.1c0.7,0,1.3,0.1,1.9,0.3c0.5,0.3,1,0.6,1.4,1.1c0.3,0.3,0.7,0.9,1.2,1.8l-6.1,3.5
				c0.5,0.8,1.1,1.4,1.8,1.7s1.4,0.2,2.2-0.2c0.7-0.4,1.2-1,1.3-1.7c0.1-0.4,0.1-0.8,0-1.3l1.4-0.8c0.1,0.3,0.2,0.7,0.2,1.2
				c0,0.5,0,0.9-0.2,1.3c-0.2,0.7-0.6,1.2-1.1,1.8c-0.3,0.3-0.6,0.5-1.1,0.8c-1,0.6-2.1,0.7-3.3,0.4c-1.2-0.3-2.1-1.2-2.9-2.5
				c-0.8-1.3-1-2.6-0.8-3.9c0.2-1.3,1-2.2,2.1-2.9C426.1,416.3,426.8,416.2,427.5,416.1z M429.9,419.1c-0.4-0.6-0.8-1-1.2-1.2
				c-0.8-0.5-1.6-0.4-2.5,0.1c-0.6,0.4-1,0.9-1.2,1.6c-0.2,0.7-0.1,1.4,0.3,2.2L429.9,419.1z"/>
			<path class="st2" d="M431,413.8l1.3-0.8l0.7,1.2c0.1-0.7,0.3-1.3,0.6-1.8c0.3-0.5,0.7-0.9,1.3-1.2c1.2-0.7,2.2-0.7,3.1-0.1
				c0.5,0.3,1,0.9,1.5,1.7l3.1,5.3l-1.4,0.8l-3-5.3c-0.3-0.5-0.6-0.9-0.9-1.1c-0.5-0.4-1.2-0.4-1.8,0c-0.3,0.2-0.6,0.4-0.8,0.6
				c-0.3,0.3-0.5,0.8-0.6,1.3c-0.1,0.4-0.1,0.8,0,1.1c0.1,0.3,0.3,0.8,0.6,1.3l2.5,4.4l-1.4,0.8L431,413.8z"/>
			<path class="st2" d="M445.7,405.9c0.9,0.1,1.7,0.7,2.4,1.7l-1.4,0.8c-0.4-0.5-0.8-0.8-1.3-1c-0.5-0.2-1.1-0.1-1.7,0.3
				c-0.9,0.5-1.3,1.3-1.2,2.4c0.1,0.7,0.4,1.5,0.8,2.3c0.5,0.8,1.1,1.4,1.7,1.8c0.7,0.4,1.4,0.3,2.2-0.1c0.6-0.3,0.9-0.8,1.1-1.3
				c0.1-0.6,0.1-1.2-0.1-1.9l1.4-0.8c0.5,1.2,0.6,2.2,0.2,3.1c-0.3,0.9-1,1.6-1.9,2.1c-1.1,0.6-2.2,0.7-3.3,0.3
				c-1.1-0.4-2-1.2-2.7-2.4c-0.8-1.5-1.1-2.8-0.9-4c0.2-1.2,0.9-2.2,2-2.8C443.9,406,444.8,405.8,445.7,405.9z"/>
			<path class="st2" d="M446.1,400.9l1.4-0.8l2.5,4.3c0.1-0.6,0.2-1.1,0.4-1.4c0.3-0.6,0.8-1,1.4-1.4c1.2-0.7,2.3-0.7,3.2-0.2
				c0.5,0.3,1,0.9,1.5,1.7l3.1,5.3l-1.4,0.8l-3-5.3c-0.4-0.6-0.7-1-1-1.2c-0.5-0.3-1.1-0.3-1.8,0.1c-0.6,0.3-1,0.8-1.2,1.5
				c-0.2,0.7,0,1.6,0.6,2.7l2.6,4.4l-1.4,0.8L446.1,400.9z"/>
		</g>
	</g>
</g>
</svg>
